G75*
%MOIN*%
%OFA0B0*%
%FSLAX25Y25*%
%IPPOS*%
%LPD*%
%AMOC8*
5,1,8,0,0,1.08239X$1,22.5*
%
%ADD10C,0.01000*%
%ADD11C,0.00000*%
%ADD12C,0.01600*%
%ADD13R,0.07874X0.04331*%
D10*
X0110444Y0004527D02*
X0257294Y0004330D01*
X0257098Y0278346D01*
X0110050Y0278346D01*
X0110444Y0004527D01*
D11*
X0133476Y0084645D02*
X0133478Y0084803D01*
X0133484Y0084961D01*
X0133494Y0085119D01*
X0133508Y0085277D01*
X0133526Y0085434D01*
X0133547Y0085591D01*
X0133573Y0085747D01*
X0133603Y0085903D01*
X0133636Y0086058D01*
X0133674Y0086211D01*
X0133715Y0086364D01*
X0133760Y0086516D01*
X0133809Y0086667D01*
X0133862Y0086816D01*
X0133918Y0086964D01*
X0133978Y0087110D01*
X0134042Y0087255D01*
X0134110Y0087398D01*
X0134181Y0087540D01*
X0134255Y0087680D01*
X0134333Y0087817D01*
X0134415Y0087953D01*
X0134499Y0088087D01*
X0134588Y0088218D01*
X0134679Y0088347D01*
X0134774Y0088474D01*
X0134871Y0088599D01*
X0134972Y0088721D01*
X0135076Y0088840D01*
X0135183Y0088957D01*
X0135293Y0089071D01*
X0135406Y0089182D01*
X0135521Y0089291D01*
X0135639Y0089396D01*
X0135760Y0089498D01*
X0135883Y0089598D01*
X0136009Y0089694D01*
X0136137Y0089787D01*
X0136267Y0089877D01*
X0136400Y0089963D01*
X0136535Y0090047D01*
X0136671Y0090126D01*
X0136810Y0090203D01*
X0136951Y0090275D01*
X0137093Y0090345D01*
X0137237Y0090410D01*
X0137383Y0090472D01*
X0137530Y0090530D01*
X0137679Y0090585D01*
X0137829Y0090636D01*
X0137980Y0090683D01*
X0138132Y0090726D01*
X0138285Y0090765D01*
X0138440Y0090801D01*
X0138595Y0090832D01*
X0138751Y0090860D01*
X0138907Y0090884D01*
X0139064Y0090904D01*
X0139222Y0090920D01*
X0139379Y0090932D01*
X0139538Y0090940D01*
X0139696Y0090944D01*
X0139854Y0090944D01*
X0140012Y0090940D01*
X0140171Y0090932D01*
X0140328Y0090920D01*
X0140486Y0090904D01*
X0140643Y0090884D01*
X0140799Y0090860D01*
X0140955Y0090832D01*
X0141110Y0090801D01*
X0141265Y0090765D01*
X0141418Y0090726D01*
X0141570Y0090683D01*
X0141721Y0090636D01*
X0141871Y0090585D01*
X0142020Y0090530D01*
X0142167Y0090472D01*
X0142313Y0090410D01*
X0142457Y0090345D01*
X0142599Y0090275D01*
X0142740Y0090203D01*
X0142879Y0090126D01*
X0143015Y0090047D01*
X0143150Y0089963D01*
X0143283Y0089877D01*
X0143413Y0089787D01*
X0143541Y0089694D01*
X0143667Y0089598D01*
X0143790Y0089498D01*
X0143911Y0089396D01*
X0144029Y0089291D01*
X0144144Y0089182D01*
X0144257Y0089071D01*
X0144367Y0088957D01*
X0144474Y0088840D01*
X0144578Y0088721D01*
X0144679Y0088599D01*
X0144776Y0088474D01*
X0144871Y0088347D01*
X0144962Y0088218D01*
X0145051Y0088087D01*
X0145135Y0087953D01*
X0145217Y0087817D01*
X0145295Y0087680D01*
X0145369Y0087540D01*
X0145440Y0087398D01*
X0145508Y0087255D01*
X0145572Y0087110D01*
X0145632Y0086964D01*
X0145688Y0086816D01*
X0145741Y0086667D01*
X0145790Y0086516D01*
X0145835Y0086364D01*
X0145876Y0086211D01*
X0145914Y0086058D01*
X0145947Y0085903D01*
X0145977Y0085747D01*
X0146003Y0085591D01*
X0146024Y0085434D01*
X0146042Y0085277D01*
X0146056Y0085119D01*
X0146066Y0084961D01*
X0146072Y0084803D01*
X0146074Y0084645D01*
X0146072Y0084487D01*
X0146066Y0084329D01*
X0146056Y0084171D01*
X0146042Y0084013D01*
X0146024Y0083856D01*
X0146003Y0083699D01*
X0145977Y0083543D01*
X0145947Y0083387D01*
X0145914Y0083232D01*
X0145876Y0083079D01*
X0145835Y0082926D01*
X0145790Y0082774D01*
X0145741Y0082623D01*
X0145688Y0082474D01*
X0145632Y0082326D01*
X0145572Y0082180D01*
X0145508Y0082035D01*
X0145440Y0081892D01*
X0145369Y0081750D01*
X0145295Y0081610D01*
X0145217Y0081473D01*
X0145135Y0081337D01*
X0145051Y0081203D01*
X0144962Y0081072D01*
X0144871Y0080943D01*
X0144776Y0080816D01*
X0144679Y0080691D01*
X0144578Y0080569D01*
X0144474Y0080450D01*
X0144367Y0080333D01*
X0144257Y0080219D01*
X0144144Y0080108D01*
X0144029Y0079999D01*
X0143911Y0079894D01*
X0143790Y0079792D01*
X0143667Y0079692D01*
X0143541Y0079596D01*
X0143413Y0079503D01*
X0143283Y0079413D01*
X0143150Y0079327D01*
X0143015Y0079243D01*
X0142879Y0079164D01*
X0142740Y0079087D01*
X0142599Y0079015D01*
X0142457Y0078945D01*
X0142313Y0078880D01*
X0142167Y0078818D01*
X0142020Y0078760D01*
X0141871Y0078705D01*
X0141721Y0078654D01*
X0141570Y0078607D01*
X0141418Y0078564D01*
X0141265Y0078525D01*
X0141110Y0078489D01*
X0140955Y0078458D01*
X0140799Y0078430D01*
X0140643Y0078406D01*
X0140486Y0078386D01*
X0140328Y0078370D01*
X0140171Y0078358D01*
X0140012Y0078350D01*
X0139854Y0078346D01*
X0139696Y0078346D01*
X0139538Y0078350D01*
X0139379Y0078358D01*
X0139222Y0078370D01*
X0139064Y0078386D01*
X0138907Y0078406D01*
X0138751Y0078430D01*
X0138595Y0078458D01*
X0138440Y0078489D01*
X0138285Y0078525D01*
X0138132Y0078564D01*
X0137980Y0078607D01*
X0137829Y0078654D01*
X0137679Y0078705D01*
X0137530Y0078760D01*
X0137383Y0078818D01*
X0137237Y0078880D01*
X0137093Y0078945D01*
X0136951Y0079015D01*
X0136810Y0079087D01*
X0136671Y0079164D01*
X0136535Y0079243D01*
X0136400Y0079327D01*
X0136267Y0079413D01*
X0136137Y0079503D01*
X0136009Y0079596D01*
X0135883Y0079692D01*
X0135760Y0079792D01*
X0135639Y0079894D01*
X0135521Y0079999D01*
X0135406Y0080108D01*
X0135293Y0080219D01*
X0135183Y0080333D01*
X0135076Y0080450D01*
X0134972Y0080569D01*
X0134871Y0080691D01*
X0134774Y0080816D01*
X0134679Y0080943D01*
X0134588Y0081072D01*
X0134499Y0081203D01*
X0134415Y0081337D01*
X0134333Y0081473D01*
X0134255Y0081610D01*
X0134181Y0081750D01*
X0134110Y0081892D01*
X0134042Y0082035D01*
X0133978Y0082180D01*
X0133918Y0082326D01*
X0133862Y0082474D01*
X0133809Y0082623D01*
X0133760Y0082774D01*
X0133715Y0082926D01*
X0133674Y0083079D01*
X0133636Y0083232D01*
X0133603Y0083387D01*
X0133573Y0083543D01*
X0133547Y0083699D01*
X0133526Y0083856D01*
X0133508Y0084013D01*
X0133494Y0084171D01*
X0133484Y0084329D01*
X0133478Y0084487D01*
X0133476Y0084645D01*
X0197846Y0262597D02*
X0197848Y0262755D01*
X0197854Y0262913D01*
X0197864Y0263071D01*
X0197878Y0263229D01*
X0197896Y0263386D01*
X0197917Y0263543D01*
X0197943Y0263699D01*
X0197973Y0263855D01*
X0198006Y0264010D01*
X0198044Y0264163D01*
X0198085Y0264316D01*
X0198130Y0264468D01*
X0198179Y0264619D01*
X0198232Y0264768D01*
X0198288Y0264916D01*
X0198348Y0265062D01*
X0198412Y0265207D01*
X0198480Y0265350D01*
X0198551Y0265492D01*
X0198625Y0265632D01*
X0198703Y0265769D01*
X0198785Y0265905D01*
X0198869Y0266039D01*
X0198958Y0266170D01*
X0199049Y0266299D01*
X0199144Y0266426D01*
X0199241Y0266551D01*
X0199342Y0266673D01*
X0199446Y0266792D01*
X0199553Y0266909D01*
X0199663Y0267023D01*
X0199776Y0267134D01*
X0199891Y0267243D01*
X0200009Y0267348D01*
X0200130Y0267450D01*
X0200253Y0267550D01*
X0200379Y0267646D01*
X0200507Y0267739D01*
X0200637Y0267829D01*
X0200770Y0267915D01*
X0200905Y0267999D01*
X0201041Y0268078D01*
X0201180Y0268155D01*
X0201321Y0268227D01*
X0201463Y0268297D01*
X0201607Y0268362D01*
X0201753Y0268424D01*
X0201900Y0268482D01*
X0202049Y0268537D01*
X0202199Y0268588D01*
X0202350Y0268635D01*
X0202502Y0268678D01*
X0202655Y0268717D01*
X0202810Y0268753D01*
X0202965Y0268784D01*
X0203121Y0268812D01*
X0203277Y0268836D01*
X0203434Y0268856D01*
X0203592Y0268872D01*
X0203749Y0268884D01*
X0203908Y0268892D01*
X0204066Y0268896D01*
X0204224Y0268896D01*
X0204382Y0268892D01*
X0204541Y0268884D01*
X0204698Y0268872D01*
X0204856Y0268856D01*
X0205013Y0268836D01*
X0205169Y0268812D01*
X0205325Y0268784D01*
X0205480Y0268753D01*
X0205635Y0268717D01*
X0205788Y0268678D01*
X0205940Y0268635D01*
X0206091Y0268588D01*
X0206241Y0268537D01*
X0206390Y0268482D01*
X0206537Y0268424D01*
X0206683Y0268362D01*
X0206827Y0268297D01*
X0206969Y0268227D01*
X0207110Y0268155D01*
X0207249Y0268078D01*
X0207385Y0267999D01*
X0207520Y0267915D01*
X0207653Y0267829D01*
X0207783Y0267739D01*
X0207911Y0267646D01*
X0208037Y0267550D01*
X0208160Y0267450D01*
X0208281Y0267348D01*
X0208399Y0267243D01*
X0208514Y0267134D01*
X0208627Y0267023D01*
X0208737Y0266909D01*
X0208844Y0266792D01*
X0208948Y0266673D01*
X0209049Y0266551D01*
X0209146Y0266426D01*
X0209241Y0266299D01*
X0209332Y0266170D01*
X0209421Y0266039D01*
X0209505Y0265905D01*
X0209587Y0265769D01*
X0209665Y0265632D01*
X0209739Y0265492D01*
X0209810Y0265350D01*
X0209878Y0265207D01*
X0209942Y0265062D01*
X0210002Y0264916D01*
X0210058Y0264768D01*
X0210111Y0264619D01*
X0210160Y0264468D01*
X0210205Y0264316D01*
X0210246Y0264163D01*
X0210284Y0264010D01*
X0210317Y0263855D01*
X0210347Y0263699D01*
X0210373Y0263543D01*
X0210394Y0263386D01*
X0210412Y0263229D01*
X0210426Y0263071D01*
X0210436Y0262913D01*
X0210442Y0262755D01*
X0210444Y0262597D01*
X0210442Y0262439D01*
X0210436Y0262281D01*
X0210426Y0262123D01*
X0210412Y0261965D01*
X0210394Y0261808D01*
X0210373Y0261651D01*
X0210347Y0261495D01*
X0210317Y0261339D01*
X0210284Y0261184D01*
X0210246Y0261031D01*
X0210205Y0260878D01*
X0210160Y0260726D01*
X0210111Y0260575D01*
X0210058Y0260426D01*
X0210002Y0260278D01*
X0209942Y0260132D01*
X0209878Y0259987D01*
X0209810Y0259844D01*
X0209739Y0259702D01*
X0209665Y0259562D01*
X0209587Y0259425D01*
X0209505Y0259289D01*
X0209421Y0259155D01*
X0209332Y0259024D01*
X0209241Y0258895D01*
X0209146Y0258768D01*
X0209049Y0258643D01*
X0208948Y0258521D01*
X0208844Y0258402D01*
X0208737Y0258285D01*
X0208627Y0258171D01*
X0208514Y0258060D01*
X0208399Y0257951D01*
X0208281Y0257846D01*
X0208160Y0257744D01*
X0208037Y0257644D01*
X0207911Y0257548D01*
X0207783Y0257455D01*
X0207653Y0257365D01*
X0207520Y0257279D01*
X0207385Y0257195D01*
X0207249Y0257116D01*
X0207110Y0257039D01*
X0206969Y0256967D01*
X0206827Y0256897D01*
X0206683Y0256832D01*
X0206537Y0256770D01*
X0206390Y0256712D01*
X0206241Y0256657D01*
X0206091Y0256606D01*
X0205940Y0256559D01*
X0205788Y0256516D01*
X0205635Y0256477D01*
X0205480Y0256441D01*
X0205325Y0256410D01*
X0205169Y0256382D01*
X0205013Y0256358D01*
X0204856Y0256338D01*
X0204698Y0256322D01*
X0204541Y0256310D01*
X0204382Y0256302D01*
X0204224Y0256298D01*
X0204066Y0256298D01*
X0203908Y0256302D01*
X0203749Y0256310D01*
X0203592Y0256322D01*
X0203434Y0256338D01*
X0203277Y0256358D01*
X0203121Y0256382D01*
X0202965Y0256410D01*
X0202810Y0256441D01*
X0202655Y0256477D01*
X0202502Y0256516D01*
X0202350Y0256559D01*
X0202199Y0256606D01*
X0202049Y0256657D01*
X0201900Y0256712D01*
X0201753Y0256770D01*
X0201607Y0256832D01*
X0201463Y0256897D01*
X0201321Y0256967D01*
X0201180Y0257039D01*
X0201041Y0257116D01*
X0200905Y0257195D01*
X0200770Y0257279D01*
X0200637Y0257365D01*
X0200507Y0257455D01*
X0200379Y0257548D01*
X0200253Y0257644D01*
X0200130Y0257744D01*
X0200009Y0257846D01*
X0199891Y0257951D01*
X0199776Y0258060D01*
X0199663Y0258171D01*
X0199553Y0258285D01*
X0199446Y0258402D01*
X0199342Y0258521D01*
X0199241Y0258643D01*
X0199144Y0258768D01*
X0199049Y0258895D01*
X0198958Y0259024D01*
X0198869Y0259155D01*
X0198785Y0259289D01*
X0198703Y0259425D01*
X0198625Y0259562D01*
X0198551Y0259702D01*
X0198480Y0259844D01*
X0198412Y0259987D01*
X0198348Y0260132D01*
X0198288Y0260278D01*
X0198232Y0260426D01*
X0198179Y0260575D01*
X0198130Y0260726D01*
X0198085Y0260878D01*
X0198044Y0261031D01*
X0198006Y0261184D01*
X0197973Y0261339D01*
X0197943Y0261495D01*
X0197917Y0261651D01*
X0197896Y0261808D01*
X0197878Y0261965D01*
X0197864Y0262123D01*
X0197854Y0262281D01*
X0197848Y0262439D01*
X0197846Y0262597D01*
D12*
X0116567Y0259696D02*
X0116571Y0259995D01*
X0116582Y0260293D01*
X0116600Y0260591D01*
X0116626Y0260889D01*
X0116659Y0261185D01*
X0116699Y0261481D01*
X0116746Y0261776D01*
X0116801Y0262070D01*
X0116863Y0262362D01*
X0116932Y0262653D01*
X0117008Y0262941D01*
X0117091Y0263228D01*
X0117181Y0263513D01*
X0117278Y0263795D01*
X0117382Y0264075D01*
X0117493Y0264352D01*
X0117611Y0264627D01*
X0117735Y0264898D01*
X0117866Y0265167D01*
X0118004Y0265432D01*
X0118148Y0265694D01*
X0118298Y0265952D01*
X0118455Y0266206D01*
X0118618Y0266456D01*
X0118787Y0266702D01*
X0118962Y0266944D01*
X0119142Y0267182D01*
X0119329Y0267415D01*
X0119521Y0267644D01*
X0119719Y0267868D01*
X0119922Y0268086D01*
X0120131Y0268300D01*
X0120345Y0268509D01*
X0120563Y0268712D01*
X0120787Y0268910D01*
X0121016Y0269102D01*
X0121249Y0269289D01*
X0121487Y0269469D01*
X0121729Y0269644D01*
X0121975Y0269813D01*
X0122225Y0269976D01*
X0122479Y0270133D01*
X0122737Y0270283D01*
X0122999Y0270427D01*
X0123264Y0270565D01*
X0123533Y0270696D01*
X0123804Y0270820D01*
X0124079Y0270938D01*
X0124356Y0271049D01*
X0124636Y0271153D01*
X0124918Y0271250D01*
X0125203Y0271340D01*
X0125490Y0271423D01*
X0125778Y0271499D01*
X0126069Y0271568D01*
X0126361Y0271630D01*
X0126655Y0271685D01*
X0126950Y0271732D01*
X0127246Y0271772D01*
X0127542Y0271805D01*
X0127840Y0271831D01*
X0128138Y0271849D01*
X0128436Y0271860D01*
X0128735Y0271864D01*
X0129034Y0271860D01*
X0129332Y0271849D01*
X0129630Y0271831D01*
X0129928Y0271805D01*
X0130224Y0271772D01*
X0130520Y0271732D01*
X0130815Y0271685D01*
X0131109Y0271630D01*
X0131401Y0271568D01*
X0131692Y0271499D01*
X0131980Y0271423D01*
X0132267Y0271340D01*
X0132552Y0271250D01*
X0132834Y0271153D01*
X0133114Y0271049D01*
X0133391Y0270938D01*
X0133666Y0270820D01*
X0133937Y0270696D01*
X0134206Y0270565D01*
X0134471Y0270427D01*
X0134733Y0270283D01*
X0134991Y0270133D01*
X0135245Y0269976D01*
X0135495Y0269813D01*
X0135741Y0269644D01*
X0135983Y0269469D01*
X0136221Y0269289D01*
X0136454Y0269102D01*
X0136683Y0268910D01*
X0136907Y0268712D01*
X0137125Y0268509D01*
X0137339Y0268300D01*
X0137548Y0268086D01*
X0137751Y0267868D01*
X0137949Y0267644D01*
X0138141Y0267415D01*
X0138328Y0267182D01*
X0138508Y0266944D01*
X0138683Y0266702D01*
X0138852Y0266456D01*
X0139015Y0266206D01*
X0139172Y0265952D01*
X0139322Y0265694D01*
X0139466Y0265432D01*
X0139604Y0265167D01*
X0139735Y0264898D01*
X0139859Y0264627D01*
X0139977Y0264352D01*
X0140088Y0264075D01*
X0140192Y0263795D01*
X0140289Y0263513D01*
X0140379Y0263228D01*
X0140462Y0262941D01*
X0140538Y0262653D01*
X0140607Y0262362D01*
X0140669Y0262070D01*
X0140724Y0261776D01*
X0140771Y0261481D01*
X0140811Y0261185D01*
X0140844Y0260889D01*
X0140870Y0260591D01*
X0140888Y0260293D01*
X0140899Y0259995D01*
X0140903Y0259696D01*
X0140899Y0259397D01*
X0140888Y0259099D01*
X0140870Y0258801D01*
X0140844Y0258503D01*
X0140811Y0258207D01*
X0140771Y0257911D01*
X0140724Y0257616D01*
X0140669Y0257322D01*
X0140607Y0257030D01*
X0140538Y0256739D01*
X0140462Y0256451D01*
X0140379Y0256164D01*
X0140289Y0255879D01*
X0140192Y0255597D01*
X0140088Y0255317D01*
X0139977Y0255040D01*
X0139859Y0254765D01*
X0139735Y0254494D01*
X0139604Y0254225D01*
X0139466Y0253960D01*
X0139322Y0253698D01*
X0139172Y0253440D01*
X0139015Y0253186D01*
X0138852Y0252936D01*
X0138683Y0252690D01*
X0138508Y0252448D01*
X0138328Y0252210D01*
X0138141Y0251977D01*
X0137949Y0251748D01*
X0137751Y0251524D01*
X0137548Y0251306D01*
X0137339Y0251092D01*
X0137125Y0250883D01*
X0136907Y0250680D01*
X0136683Y0250482D01*
X0136454Y0250290D01*
X0136221Y0250103D01*
X0135983Y0249923D01*
X0135741Y0249748D01*
X0135495Y0249579D01*
X0135245Y0249416D01*
X0134991Y0249259D01*
X0134733Y0249109D01*
X0134471Y0248965D01*
X0134206Y0248827D01*
X0133937Y0248696D01*
X0133666Y0248572D01*
X0133391Y0248454D01*
X0133114Y0248343D01*
X0132834Y0248239D01*
X0132552Y0248142D01*
X0132267Y0248052D01*
X0131980Y0247969D01*
X0131692Y0247893D01*
X0131401Y0247824D01*
X0131109Y0247762D01*
X0130815Y0247707D01*
X0130520Y0247660D01*
X0130224Y0247620D01*
X0129928Y0247587D01*
X0129630Y0247561D01*
X0129332Y0247543D01*
X0129034Y0247532D01*
X0128735Y0247528D01*
X0128436Y0247532D01*
X0128138Y0247543D01*
X0127840Y0247561D01*
X0127542Y0247587D01*
X0127246Y0247620D01*
X0126950Y0247660D01*
X0126655Y0247707D01*
X0126361Y0247762D01*
X0126069Y0247824D01*
X0125778Y0247893D01*
X0125490Y0247969D01*
X0125203Y0248052D01*
X0124918Y0248142D01*
X0124636Y0248239D01*
X0124356Y0248343D01*
X0124079Y0248454D01*
X0123804Y0248572D01*
X0123533Y0248696D01*
X0123264Y0248827D01*
X0122999Y0248965D01*
X0122737Y0249109D01*
X0122479Y0249259D01*
X0122225Y0249416D01*
X0121975Y0249579D01*
X0121729Y0249748D01*
X0121487Y0249923D01*
X0121249Y0250103D01*
X0121016Y0250290D01*
X0120787Y0250482D01*
X0120563Y0250680D01*
X0120345Y0250883D01*
X0120131Y0251092D01*
X0119922Y0251306D01*
X0119719Y0251524D01*
X0119521Y0251748D01*
X0119329Y0251977D01*
X0119142Y0252210D01*
X0118962Y0252448D01*
X0118787Y0252690D01*
X0118618Y0252936D01*
X0118455Y0253186D01*
X0118298Y0253440D01*
X0118148Y0253698D01*
X0118004Y0253960D01*
X0117866Y0254225D01*
X0117735Y0254494D01*
X0117611Y0254765D01*
X0117493Y0255040D01*
X0117382Y0255317D01*
X0117278Y0255597D01*
X0117181Y0255879D01*
X0117091Y0256164D01*
X0117008Y0256451D01*
X0116932Y0256739D01*
X0116863Y0257030D01*
X0116801Y0257322D01*
X0116746Y0257616D01*
X0116699Y0257911D01*
X0116659Y0258207D01*
X0116626Y0258503D01*
X0116600Y0258801D01*
X0116582Y0259099D01*
X0116571Y0259397D01*
X0116567Y0259696D01*
X0116961Y0023672D02*
X0116965Y0023971D01*
X0116976Y0024269D01*
X0116994Y0024567D01*
X0117020Y0024865D01*
X0117053Y0025161D01*
X0117093Y0025457D01*
X0117140Y0025752D01*
X0117195Y0026046D01*
X0117257Y0026338D01*
X0117326Y0026629D01*
X0117402Y0026917D01*
X0117485Y0027204D01*
X0117575Y0027489D01*
X0117672Y0027771D01*
X0117776Y0028051D01*
X0117887Y0028328D01*
X0118005Y0028603D01*
X0118129Y0028874D01*
X0118260Y0029143D01*
X0118398Y0029408D01*
X0118542Y0029670D01*
X0118692Y0029928D01*
X0118849Y0030182D01*
X0119012Y0030432D01*
X0119181Y0030678D01*
X0119356Y0030920D01*
X0119536Y0031158D01*
X0119723Y0031391D01*
X0119915Y0031620D01*
X0120113Y0031844D01*
X0120316Y0032062D01*
X0120525Y0032276D01*
X0120739Y0032485D01*
X0120957Y0032688D01*
X0121181Y0032886D01*
X0121410Y0033078D01*
X0121643Y0033265D01*
X0121881Y0033445D01*
X0122123Y0033620D01*
X0122369Y0033789D01*
X0122619Y0033952D01*
X0122873Y0034109D01*
X0123131Y0034259D01*
X0123393Y0034403D01*
X0123658Y0034541D01*
X0123927Y0034672D01*
X0124198Y0034796D01*
X0124473Y0034914D01*
X0124750Y0035025D01*
X0125030Y0035129D01*
X0125312Y0035226D01*
X0125597Y0035316D01*
X0125884Y0035399D01*
X0126172Y0035475D01*
X0126463Y0035544D01*
X0126755Y0035606D01*
X0127049Y0035661D01*
X0127344Y0035708D01*
X0127640Y0035748D01*
X0127936Y0035781D01*
X0128234Y0035807D01*
X0128532Y0035825D01*
X0128830Y0035836D01*
X0129129Y0035840D01*
X0129428Y0035836D01*
X0129726Y0035825D01*
X0130024Y0035807D01*
X0130322Y0035781D01*
X0130618Y0035748D01*
X0130914Y0035708D01*
X0131209Y0035661D01*
X0131503Y0035606D01*
X0131795Y0035544D01*
X0132086Y0035475D01*
X0132374Y0035399D01*
X0132661Y0035316D01*
X0132946Y0035226D01*
X0133228Y0035129D01*
X0133508Y0035025D01*
X0133785Y0034914D01*
X0134060Y0034796D01*
X0134331Y0034672D01*
X0134600Y0034541D01*
X0134865Y0034403D01*
X0135127Y0034259D01*
X0135385Y0034109D01*
X0135639Y0033952D01*
X0135889Y0033789D01*
X0136135Y0033620D01*
X0136377Y0033445D01*
X0136615Y0033265D01*
X0136848Y0033078D01*
X0137077Y0032886D01*
X0137301Y0032688D01*
X0137519Y0032485D01*
X0137733Y0032276D01*
X0137942Y0032062D01*
X0138145Y0031844D01*
X0138343Y0031620D01*
X0138535Y0031391D01*
X0138722Y0031158D01*
X0138902Y0030920D01*
X0139077Y0030678D01*
X0139246Y0030432D01*
X0139409Y0030182D01*
X0139566Y0029928D01*
X0139716Y0029670D01*
X0139860Y0029408D01*
X0139998Y0029143D01*
X0140129Y0028874D01*
X0140253Y0028603D01*
X0140371Y0028328D01*
X0140482Y0028051D01*
X0140586Y0027771D01*
X0140683Y0027489D01*
X0140773Y0027204D01*
X0140856Y0026917D01*
X0140932Y0026629D01*
X0141001Y0026338D01*
X0141063Y0026046D01*
X0141118Y0025752D01*
X0141165Y0025457D01*
X0141205Y0025161D01*
X0141238Y0024865D01*
X0141264Y0024567D01*
X0141282Y0024269D01*
X0141293Y0023971D01*
X0141297Y0023672D01*
X0141293Y0023373D01*
X0141282Y0023075D01*
X0141264Y0022777D01*
X0141238Y0022479D01*
X0141205Y0022183D01*
X0141165Y0021887D01*
X0141118Y0021592D01*
X0141063Y0021298D01*
X0141001Y0021006D01*
X0140932Y0020715D01*
X0140856Y0020427D01*
X0140773Y0020140D01*
X0140683Y0019855D01*
X0140586Y0019573D01*
X0140482Y0019293D01*
X0140371Y0019016D01*
X0140253Y0018741D01*
X0140129Y0018470D01*
X0139998Y0018201D01*
X0139860Y0017936D01*
X0139716Y0017674D01*
X0139566Y0017416D01*
X0139409Y0017162D01*
X0139246Y0016912D01*
X0139077Y0016666D01*
X0138902Y0016424D01*
X0138722Y0016186D01*
X0138535Y0015953D01*
X0138343Y0015724D01*
X0138145Y0015500D01*
X0137942Y0015282D01*
X0137733Y0015068D01*
X0137519Y0014859D01*
X0137301Y0014656D01*
X0137077Y0014458D01*
X0136848Y0014266D01*
X0136615Y0014079D01*
X0136377Y0013899D01*
X0136135Y0013724D01*
X0135889Y0013555D01*
X0135639Y0013392D01*
X0135385Y0013235D01*
X0135127Y0013085D01*
X0134865Y0012941D01*
X0134600Y0012803D01*
X0134331Y0012672D01*
X0134060Y0012548D01*
X0133785Y0012430D01*
X0133508Y0012319D01*
X0133228Y0012215D01*
X0132946Y0012118D01*
X0132661Y0012028D01*
X0132374Y0011945D01*
X0132086Y0011869D01*
X0131795Y0011800D01*
X0131503Y0011738D01*
X0131209Y0011683D01*
X0130914Y0011636D01*
X0130618Y0011596D01*
X0130322Y0011563D01*
X0130024Y0011537D01*
X0129726Y0011519D01*
X0129428Y0011508D01*
X0129129Y0011504D01*
X0128830Y0011508D01*
X0128532Y0011519D01*
X0128234Y0011537D01*
X0127936Y0011563D01*
X0127640Y0011596D01*
X0127344Y0011636D01*
X0127049Y0011683D01*
X0126755Y0011738D01*
X0126463Y0011800D01*
X0126172Y0011869D01*
X0125884Y0011945D01*
X0125597Y0012028D01*
X0125312Y0012118D01*
X0125030Y0012215D01*
X0124750Y0012319D01*
X0124473Y0012430D01*
X0124198Y0012548D01*
X0123927Y0012672D01*
X0123658Y0012803D01*
X0123393Y0012941D01*
X0123131Y0013085D01*
X0122873Y0013235D01*
X0122619Y0013392D01*
X0122369Y0013555D01*
X0122123Y0013724D01*
X0121881Y0013899D01*
X0121643Y0014079D01*
X0121410Y0014266D01*
X0121181Y0014458D01*
X0120957Y0014656D01*
X0120739Y0014859D01*
X0120525Y0015068D01*
X0120316Y0015282D01*
X0120113Y0015500D01*
X0119915Y0015724D01*
X0119723Y0015953D01*
X0119536Y0016186D01*
X0119356Y0016424D01*
X0119181Y0016666D01*
X0119012Y0016912D01*
X0118849Y0017162D01*
X0118692Y0017416D01*
X0118542Y0017674D01*
X0118398Y0017936D01*
X0118260Y0018201D01*
X0118129Y0018470D01*
X0118005Y0018741D01*
X0117887Y0019016D01*
X0117776Y0019293D01*
X0117672Y0019573D01*
X0117575Y0019855D01*
X0117485Y0020140D01*
X0117402Y0020427D01*
X0117326Y0020715D01*
X0117257Y0021006D01*
X0117195Y0021298D01*
X0117140Y0021592D01*
X0117093Y0021887D01*
X0117053Y0022183D01*
X0117020Y0022479D01*
X0116994Y0022777D01*
X0116976Y0023075D01*
X0116965Y0023373D01*
X0116961Y0023672D01*
D13*
X0228948Y0025983D03*
X0228948Y0019290D03*
X0228948Y0012597D03*
X0244696Y0012597D03*
X0244696Y0019290D03*
X0244696Y0025983D03*
X0244696Y0034842D03*
X0244696Y0041534D03*
X0244696Y0048227D03*
X0244696Y0057086D03*
X0244696Y0063779D03*
X0244696Y0070472D03*
X0244696Y0079330D03*
X0244696Y0086023D03*
X0244696Y0092716D03*
X0244696Y0101574D03*
X0244696Y0108267D03*
X0244696Y0114960D03*
X0244696Y0123621D03*
X0244696Y0130314D03*
X0244696Y0137007D03*
X0244696Y0145668D03*
X0244696Y0152361D03*
X0244696Y0159054D03*
X0244696Y0167912D03*
X0244696Y0174605D03*
X0244696Y0181298D03*
X0244696Y0190157D03*
X0244696Y0196849D03*
X0244696Y0203542D03*
X0244696Y0212401D03*
X0244696Y0219094D03*
X0244696Y0225786D03*
X0244696Y0234645D03*
X0244696Y0241338D03*
X0244696Y0248031D03*
X0244696Y0256889D03*
X0244696Y0263582D03*
X0244696Y0270275D03*
X0228948Y0270275D03*
X0228948Y0263582D03*
X0228948Y0256889D03*
X0228948Y0248031D03*
X0228948Y0241338D03*
X0228948Y0234645D03*
X0228948Y0225786D03*
X0228948Y0219094D03*
X0228948Y0212401D03*
X0228948Y0203542D03*
X0228948Y0196849D03*
X0228948Y0190157D03*
X0228948Y0181298D03*
X0228948Y0174605D03*
X0228948Y0167912D03*
X0228948Y0159054D03*
X0228948Y0152361D03*
X0228948Y0145668D03*
X0228948Y0137007D03*
X0228948Y0130314D03*
X0228948Y0123621D03*
X0228948Y0114960D03*
X0228948Y0108267D03*
X0228948Y0101574D03*
X0228948Y0092716D03*
X0228948Y0086023D03*
X0228948Y0079330D03*
X0228948Y0070472D03*
X0228948Y0063779D03*
X0228948Y0057086D03*
X0228948Y0048227D03*
X0228948Y0041534D03*
X0228948Y0034842D03*
M02*
