G75*
%MOIN*%
%OFA0B0*%
%FSLAX25Y25*%
%IPPOS*%
%LPD*%
%AMOC8*
5,1,8,0,0,1.08239X$1,22.5*
%
%ADD10C,0.00400*%
%ADD11C,0.00600*%
%ADD12C,0.01000*%
%ADD13C,0.01200*%
%ADD14C,0.00300*%
%ADD15R,0.00030X0.00030*%
%ADD16R,0.00030X0.00060*%
%ADD17R,0.00030X0.00090*%
%ADD18R,0.00030X0.00240*%
%ADD19R,0.00030X0.00120*%
%ADD20R,0.00030X0.00180*%
%ADD21R,0.00030X0.00510*%
%ADD22R,0.00030X0.00540*%
%ADD23R,0.00030X0.00270*%
%ADD24R,0.00030X0.00750*%
%ADD25R,0.00030X0.00810*%
%ADD26R,0.00030X0.00330*%
%ADD27R,0.00030X0.01020*%
%ADD28R,0.00030X0.01080*%
%ADD29R,0.00030X0.00390*%
%ADD30R,0.00030X0.01110*%
%ADD31R,0.00030X0.01350*%
%ADD32R,0.00030X0.00420*%
%ADD33R,0.00030X0.00300*%
%ADD34R,0.00030X0.01560*%
%ADD35R,0.00030X0.00450*%
%ADD36R,0.00030X0.00360*%
%ADD37R,0.00030X0.01860*%
%ADD38R,0.00030X0.00480*%
%ADD39R,0.00030X0.02130*%
%ADD40R,0.00030X0.00570*%
%ADD41R,0.00030X0.00600*%
%ADD42R,0.00030X0.02370*%
%ADD43R,0.00030X0.00630*%
%ADD44R,0.00030X0.02430*%
%ADD45R,0.00030X0.00690*%
%ADD46R,0.00030X0.02670*%
%ADD47R,0.00030X0.00720*%
%ADD48R,0.00030X0.02700*%
%ADD49R,0.00030X0.00780*%
%ADD50R,0.00030X0.02910*%
%ADD51R,0.00030X0.02970*%
%ADD52R,0.00030X0.00840*%
%ADD53R,0.00030X0.03060*%
%ADD54R,0.00030X0.03240*%
%ADD55R,0.00030X0.00840*%
%ADD56R,0.00030X0.03540*%
%ADD57R,0.00030X0.00900*%
%ADD58R,0.00030X0.03810*%
%ADD59R,0.00030X0.00960*%
%ADD60R,0.00030X0.00090*%
%ADD61R,0.00030X0.00870*%
%ADD62R,0.00030X0.04050*%
%ADD63R,0.00030X0.00990*%
%ADD64R,0.00030X0.04020*%
%ADD65R,0.00030X0.01050*%
%ADD66R,0.00030X0.04260*%
%ADD67R,0.00030X0.04290*%
%ADD68R,0.00030X0.04530*%
%ADD69R,0.00030X0.01140*%
%ADD70R,0.00030X0.04590*%
%ADD71R,0.00030X0.01200*%
%ADD72R,0.00030X0.04830*%
%ADD73R,0.00030X0.01230*%
%ADD74R,0.00030X0.04860*%
%ADD75R,0.00030X0.01290*%
%ADD76R,0.00030X0.05040*%
%ADD77R,0.00030X0.05130*%
%ADD78R,0.00030X0.01380*%
%ADD79R,0.00030X0.05400*%
%ADD80R,0.00030X0.01410*%
%ADD81R,0.00030X0.01290*%
%ADD82R,0.00030X0.05700*%
%ADD83R,0.00030X0.01320*%
%ADD84R,0.00030X0.05940*%
%ADD85R,0.00030X0.01470*%
%ADD86R,0.00030X0.05970*%
%ADD87R,0.00030X0.01500*%
%ADD88R,0.00030X0.06240*%
%ADD89R,0.00030X0.01530*%
%ADD90R,0.00030X0.06510*%
%ADD91R,0.00030X0.01590*%
%ADD92R,0.00030X0.01620*%
%ADD93R,0.00030X0.06750*%
%ADD94R,0.00030X0.01680*%
%ADD95R,0.00030X0.06810*%
%ADD96R,0.00030X0.01710*%
%ADD97R,0.00030X0.06960*%
%ADD98R,0.00030X0.01740*%
%ADD99R,0.00030X0.07020*%
%ADD100R,0.00030X0.01800*%
%ADD101R,0.00030X0.01830*%
%ADD102R,0.00030X0.07320*%
%ADD103R,0.00030X0.07290*%
%ADD104R,0.00030X0.07560*%
%ADD105R,0.00030X0.01740*%
%ADD106R,0.00030X0.07860*%
%ADD107R,0.00030X0.01890*%
%ADD108R,0.00030X0.08100*%
%ADD109R,0.00030X0.01950*%
%ADD110R,0.00030X0.08130*%
%ADD111R,0.00030X0.01980*%
%ADD112R,0.00030X0.08400*%
%ADD113R,0.00030X0.02010*%
%ADD114R,0.00030X0.08430*%
%ADD115R,0.00030X0.02040*%
%ADD116R,0.00030X0.08640*%
%ADD117R,0.00030X0.02070*%
%ADD118R,0.00030X0.08670*%
%ADD119R,0.00030X0.02100*%
%ADD120R,0.00030X0.08910*%
%ADD121R,0.00030X0.02160*%
%ADD122R,0.00030X0.08970*%
%ADD123R,0.00030X0.09000*%
%ADD124R,0.00030X0.02220*%
%ADD125R,0.00030X0.09180*%
%ADD126R,0.00030X0.09150*%
%ADD127R,0.00030X0.02310*%
%ADD128R,0.00030X0.09480*%
%ADD129R,0.00030X0.02340*%
%ADD130R,0.00030X0.09720*%
%ADD131R,0.00030X0.10020*%
%ADD132R,0.00030X0.02400*%
%ADD133R,0.00030X0.10260*%
%ADD134R,0.00030X0.02460*%
%ADD135R,0.00030X0.10290*%
%ADD136R,0.00030X0.02490*%
%ADD137R,0.00030X0.10560*%
%ADD138R,0.00030X0.02520*%
%ADD139R,0.00030X0.10590*%
%ADD140R,0.00030X0.02550*%
%ADD141R,0.00030X0.10800*%
%ADD142R,0.00030X0.02610*%
%ADD143R,0.00030X0.10830*%
%ADD144R,0.00030X0.10890*%
%ADD145R,0.00030X0.11130*%
%ADD146R,0.00030X0.02760*%
%ADD147R,0.00030X0.11400*%
%ADD148R,0.00030X0.02820*%
%ADD149R,0.00030X0.11700*%
%ADD150R,0.00030X0.02880*%
%ADD151R,0.00030X0.11940*%
%ADD152R,0.00030X0.11910*%
%ADD153R,0.00030X0.12180*%
%ADD154R,0.00030X0.02940*%
%ADD155R,0.00030X0.12420*%
%ADD156R,0.00030X0.12450*%
%ADD157R,0.00030X0.03030*%
%ADD158R,0.00030X0.12720*%
%ADD159R,0.00030X0.03090*%
%ADD160R,0.00030X0.03120*%
%ADD161R,0.00030X0.12750*%
%ADD162R,0.00030X0.03180*%
%ADD163R,0.00030X0.03210*%
%ADD164R,0.00030X0.12780*%
%ADD165R,0.00030X0.03270*%
%ADD166R,0.00030X0.03330*%
%ADD167R,0.00030X0.03360*%
%ADD168R,0.00030X0.03390*%
%ADD169R,0.00030X0.03420*%
%ADD170R,0.00030X0.03480*%
%ADD171R,0.00030X0.12720*%
%ADD172R,0.00030X0.03540*%
%ADD173R,0.00030X0.03600*%
%ADD174R,0.00030X0.03630*%
%ADD175R,0.00030X0.03660*%
%ADD176R,0.00030X0.03690*%
%ADD177R,0.00030X0.03720*%
%ADD178R,0.00030X0.03780*%
%ADD179R,0.00030X0.03840*%
%ADD180R,0.00030X0.03870*%
%ADD181R,0.00030X0.03930*%
%ADD182R,0.00030X0.03960*%
%ADD183R,0.00030X0.12810*%
%ADD184R,0.00030X0.12840*%
%ADD185R,0.00030X0.03990*%
%ADD186R,0.00030X0.04080*%
%ADD187R,0.00030X0.04110*%
%ADD188R,0.00030X0.04140*%
%ADD189R,0.00030X0.04170*%
%ADD190R,0.00030X0.04230*%
%ADD191R,0.00030X0.04320*%
%ADD192R,0.00030X0.04380*%
%ADD193R,0.00030X0.04440*%
%ADD194R,0.00030X0.04500*%
%ADD195R,0.00030X0.04560*%
%ADD196R,0.00030X0.04590*%
%ADD197R,0.00030X0.04620*%
%ADD198R,0.00030X0.04650*%
%ADD199R,0.00030X0.04680*%
%ADD200R,0.00030X0.04740*%
%ADD201R,0.00030X0.04890*%
%ADD202R,0.00030X0.04950*%
%ADD203R,0.00030X0.05010*%
%ADD204R,0.00030X0.04890*%
%ADD205R,0.00030X0.04920*%
%ADD206R,0.00030X0.05070*%
%ADD207R,0.00030X0.04980*%
%ADD208R,0.00030X0.12870*%
%ADD209R,0.00030X0.05160*%
%ADD210R,0.00030X0.05190*%
%ADD211R,0.00030X0.05250*%
%ADD212R,0.00030X0.05280*%
%ADD213R,0.00030X0.05340*%
%ADD214R,0.00030X0.05460*%
%ADD215R,0.00030X0.05490*%
%ADD216R,0.00030X0.12840*%
%ADD217R,0.00030X0.05520*%
%ADD218R,0.00030X0.05430*%
%ADD219R,0.00030X0.05580*%
%ADD220R,0.00030X0.12900*%
%ADD221R,0.00030X0.05610*%
%ADD222R,0.00030X0.05640*%
%ADD223R,0.00030X0.05670*%
%ADD224R,0.00030X0.05730*%
%ADD225R,0.00030X0.05760*%
%ADD226R,0.00030X0.05820*%
%ADD227R,0.00030X0.12870*%
%ADD228R,0.00030X0.05880*%
%ADD229R,0.00030X0.05910*%
%ADD230R,0.00030X0.05940*%
%ADD231R,0.00030X0.05850*%
%ADD232R,0.00030X0.06000*%
%ADD233R,0.00030X0.06060*%
%ADD234R,0.00030X0.06090*%
%ADD235R,0.00030X0.06120*%
%ADD236R,0.00030X0.06150*%
%ADD237R,0.00030X0.06210*%
%ADD238R,0.00030X0.12930*%
%ADD239R,0.00030X0.12960*%
%ADD240R,0.00030X0.06270*%
%ADD241R,0.00030X0.06270*%
%ADD242R,0.00030X0.13020*%
%ADD243R,0.00030X0.12990*%
%ADD244R,0.00030X0.06300*%
%ADD245R,0.00030X0.06330*%
%ADD246R,0.00030X0.13020*%
%ADD247R,0.00030X0.06360*%
%ADD248R,0.00030X0.13050*%
%ADD249R,0.00030X0.13080*%
%ADD250R,0.00030X0.06390*%
%ADD251R,0.00030X0.13110*%
%ADD252R,0.00030X0.13140*%
%ADD253R,0.00030X0.06420*%
%ADD254R,0.00030X0.06390*%
%ADD255R,0.00030X0.13140*%
%ADD256R,0.00030X0.06450*%
%ADD257R,0.00030X0.13170*%
%ADD258R,0.00030X0.06480*%
%ADD259R,0.00030X0.13200*%
%ADD260R,0.00030X0.13230*%
%ADD261R,0.00030X0.06420*%
%ADD262R,0.00030X0.13170*%
%ADD263R,0.00030X0.13260*%
%ADD264R,0.00030X0.06540*%
%ADD265R,0.00030X0.13290*%
%ADD266R,0.00030X0.06540*%
%ADD267R,0.00030X0.13320*%
%ADD268R,0.00030X0.06600*%
%ADD269R,0.00030X0.06570*%
%ADD270R,0.00030X0.13320*%
%ADD271R,0.00030X0.06630*%
%ADD272R,0.00030X0.13350*%
%ADD273R,0.00030X0.13380*%
%ADD274R,0.00030X0.13410*%
%ADD275R,0.00030X0.06660*%
%ADD276R,0.00030X0.12360*%
%ADD277R,0.00030X0.12330*%
%ADD278R,0.00030X0.12060*%
%ADD279R,0.00030X0.12030*%
%ADD280R,0.00030X0.11670*%
%ADD281R,0.00030X0.06180*%
%ADD282R,0.00030X0.11370*%
%ADD283R,0.00030X0.11340*%
%ADD284R,0.00030X0.10950*%
%ADD285R,0.00030X0.06090*%
%ADD286R,0.00030X0.10650*%
%ADD287R,0.00030X0.10500*%
%ADD288R,0.00030X0.10320*%
%ADD289R,0.00030X0.09990*%
%ADD290R,0.00030X0.05790*%
%ADD291R,0.00030X0.09630*%
%ADD292R,0.00030X0.09600*%
%ADD293R,0.00030X0.05670*%
%ADD294R,0.00030X0.09330*%
%ADD295R,0.00030X0.08940*%
%ADD296R,0.00030X0.08610*%
%ADD297R,0.00030X0.00120*%
%ADD298R,0.00030X0.08670*%
%ADD299R,0.00030X0.08280*%
%ADD300R,0.00030X0.08010*%
%ADD301R,0.00030X0.05370*%
%ADD302R,0.00030X0.07980*%
%ADD303R,0.00030X0.05310*%
%ADD304R,0.00030X0.07950*%
%ADD305R,0.00030X0.07590*%
%ADD306R,0.00030X0.05190*%
%ADD307R,0.00030X0.07260*%
%ADD308R,0.00030X0.05100*%
%ADD309R,0.00030X0.06900*%
%ADD310R,0.00030X0.06870*%
%ADD311R,0.00030X0.06570*%
%ADD312R,0.00030X0.04800*%
%ADD313R,0.00030X0.05550*%
%ADD314R,0.00030X0.04770*%
%ADD315R,0.00030X0.05220*%
%ADD316R,0.00030X0.04470*%
%ADD317R,0.00030X0.04410*%
%ADD318R,0.00030X0.04200*%
%ADD319R,0.00030X0.04350*%
%ADD320R,0.00030X0.03900*%
%ADD321R,0.00030X0.03510*%
%ADD322R,0.00030X0.02790*%
%ADD323R,0.00030X0.02520*%
%ADD324R,0.00030X0.02190*%
%ADD325R,0.00030X0.01890*%
%ADD326R,0.00030X0.03750*%
%ADD327R,0.00030X0.03570*%
%ADD328R,0.00030X0.03450*%
%ADD329R,0.00030X0.00150*%
%ADD330R,0.00030X0.03240*%
%ADD331R,0.00030X0.03150*%
%ADD332R,0.00030X0.02850*%
%ADD333R,0.00030X0.02640*%
%ADD334R,0.00030X0.00570*%
%ADD335R,0.00030X0.00660*%
%ADD336R,0.00030X0.02370*%
%ADD337R,0.00030X0.02280*%
%ADD338R,0.00030X0.02190*%
%ADD339R,0.00030X0.01920*%
%ADD340R,0.00030X0.02580*%
%ADD341R,0.00030X0.01920*%
%ADD342R,0.00030X0.05640*%
%ADD343R,0.00030X0.01650*%
%ADD344R,0.00030X0.01470*%
%ADD345R,0.00030X0.07620*%
%ADD346R,0.00030X0.08310*%
%ADD347R,0.00030X0.08880*%
%ADD348R,0.00030X0.09450*%
%ADD349R,0.00030X0.09570*%
%ADD350R,0.00030X0.01170*%
%ADD351R,0.00030X0.10080*%
%ADD352R,0.00030X0.10200*%
%ADD353R,0.00030X0.10620*%
%ADD354R,0.00030X0.00990*%
%ADD355R,0.00030X0.00930*%
%ADD356R,0.00030X0.11430*%
%ADD357R,0.00030X0.12090*%
%ADD358R,0.00030X0.00870*%
%ADD359R,0.00030X0.12120*%
%ADD360R,0.00030X0.12690*%
%ADD361R,0.00030X0.13950*%
%ADD362R,0.00030X0.13980*%
%ADD363R,0.00030X0.14550*%
%ADD364R,0.00030X0.14670*%
%ADD365R,0.00030X0.15150*%
%ADD366R,0.00030X0.15240*%
%ADD367R,0.00030X0.15930*%
%ADD368R,0.00030X0.15900*%
%ADD369R,0.00030X0.00270*%
%ADD370R,0.00030X0.16500*%
%ADD371R,0.00030X0.17160*%
%ADD372R,0.00030X0.17190*%
%ADD373R,0.00030X0.17730*%
%ADD374R,0.00030X0.17790*%
%ADD375R,0.00030X0.18420*%
%ADD376R,0.00030X0.18480*%
%ADD377R,0.00030X0.18990*%
%ADD378R,0.00030X0.19050*%
%ADD379R,0.00030X0.19560*%
%ADD380R,0.00030X0.19770*%
%ADD381R,0.00030X0.19890*%
%ADD382R,0.00030X0.19710*%
%ADD383R,0.00030X0.19680*%
%ADD384R,0.00030X0.19650*%
%ADD385R,0.00030X0.19470*%
%ADD386R,0.00030X0.19470*%
%ADD387R,0.00030X0.19380*%
%ADD388R,0.00030X0.19410*%
%ADD389R,0.00030X0.19230*%
%ADD390R,0.00030X0.19260*%
%ADD391R,0.00030X0.19140*%
%ADD392R,0.00030X0.19170*%
%ADD393R,0.00030X0.18960*%
%ADD394R,0.00030X0.18930*%
%ADD395R,0.00030X0.18870*%
%ADD396R,0.00030X0.18750*%
%ADD397R,0.00030X0.18780*%
%ADD398R,0.00030X0.18330*%
%ADD399R,0.00030X0.18300*%
%ADD400R,0.00030X0.17370*%
%ADD401R,0.00030X0.17310*%
%ADD402R,0.00030X0.16560*%
%ADD403R,0.00030X0.15540*%
%ADD404R,0.00030X0.14760*%
%ADD405R,0.00030X0.14640*%
%ADD406R,0.00030X0.13800*%
%ADD407R,0.00030X0.13680*%
%ADD408R,0.00030X0.12000*%
%ADD409R,0.00030X0.11220*%
%ADD410R,0.00030X0.11160*%
%ADD411R,0.00030X0.09390*%
%ADD412R,0.00030X0.07800*%
%ADD413R,0.00030X0.07650*%
%ADD414R,0.00030X0.01170*%
%ADD415C,0.00800*%
%ADD416C,0.00500*%
%ADD417C,0.00100*%
D10*
X0210012Y0127581D02*
X0210014Y0127603D01*
X0210019Y0127624D01*
X0210027Y0127645D01*
X0210039Y0127663D01*
X0210053Y0127680D01*
X0210070Y0127694D01*
X0210088Y0127706D01*
X0210109Y0127714D01*
X0210130Y0127719D01*
X0210152Y0127721D01*
D11*
X0113929Y0109450D02*
X0113929Y0238621D01*
D12*
X0114381Y0239566D02*
X0114381Y0127361D01*
X0126586Y0127424D01*
X0126586Y0208857D01*
X0114775Y0208857D01*
X0114381Y0239566D02*
X0202570Y0239566D01*
X0202570Y0239172D02*
X0202570Y0221456D01*
X0217137Y0212007D01*
X0217137Y0110826D01*
X0203554Y0100983D02*
X0128751Y0101377D01*
X0128472Y0101312D01*
X0128192Y0101253D01*
X0127910Y0101201D01*
X0127627Y0101156D01*
X0127342Y0101117D01*
X0127057Y0101086D01*
X0126772Y0101061D01*
X0126486Y0101044D01*
X0126199Y0101033D01*
X0125912Y0101029D01*
X0125626Y0101032D01*
X0125339Y0101042D01*
X0125053Y0101059D01*
X0124767Y0101083D01*
X0124482Y0101114D01*
X0124198Y0101151D01*
X0123915Y0101196D01*
X0123633Y0101247D01*
X0123352Y0101305D01*
X0123073Y0101370D01*
X0122795Y0101442D01*
X0122519Y0101520D01*
X0122246Y0101605D01*
X0121974Y0101696D01*
X0121704Y0101794D01*
X0121437Y0101899D01*
X0121173Y0102010D01*
X0120912Y0102127D01*
X0120653Y0102251D01*
X0120397Y0102381D01*
X0120145Y0102517D01*
X0119896Y0102659D01*
X0119650Y0102807D01*
X0119408Y0102961D01*
X0119170Y0103120D01*
X0118936Y0103286D01*
X0118706Y0103457D01*
X0118480Y0103633D01*
X0118258Y0103815D01*
X0118041Y0104002D01*
X0117829Y0104195D01*
X0117621Y0104392D01*
X0117418Y0104595D01*
X0117220Y0104802D01*
X0117027Y0105014D01*
X0116839Y0105231D01*
X0116657Y0105452D01*
X0116480Y0105677D01*
X0116308Y0105907D01*
X0116142Y0106141D01*
X0115982Y0106378D01*
X0115827Y0106620D01*
X0115678Y0106865D01*
X0115536Y0107114D01*
X0115399Y0107366D01*
X0115269Y0107621D01*
X0115144Y0107879D01*
X0115026Y0108141D01*
X0114915Y0108405D01*
X0114809Y0108671D01*
X0114711Y0108941D01*
X0114618Y0109212D01*
X0114533Y0109486D01*
X0114454Y0109761D01*
X0114381Y0110039D01*
X0114381Y0110038D02*
X0114381Y0127361D01*
X0150011Y0094684D02*
X0216940Y0094684D01*
X0216940Y0005117D01*
X0169696Y0005117D01*
X0169726Y0020550D01*
X0170513Y0021337D02*
X0196891Y0021337D01*
X0196861Y0005511D01*
X0169696Y0005117D02*
X0150011Y0005117D01*
X0150011Y0094684D01*
X0204145Y0127361D02*
X0216743Y0127361D01*
X0216743Y0208464D01*
X0204145Y0208464D01*
X0204145Y0127361D01*
D13*
X0217188Y0113966D02*
X0217182Y0113658D01*
X0217168Y0113351D01*
X0217147Y0113044D01*
X0217119Y0112738D01*
X0217083Y0112433D01*
X0217040Y0112128D01*
X0216989Y0111825D01*
X0216932Y0111523D01*
X0216867Y0111222D01*
X0216794Y0110923D01*
X0216715Y0110626D01*
X0216628Y0110331D01*
X0216534Y0110039D01*
X0216434Y0109748D01*
X0216326Y0109460D01*
X0216211Y0109175D01*
X0216090Y0108892D01*
X0215961Y0108613D01*
X0215826Y0108337D01*
X0215684Y0108064D01*
X0215536Y0107795D01*
X0215381Y0107529D01*
X0215220Y0107267D01*
X0215053Y0107009D01*
X0214879Y0106755D01*
X0214700Y0106506D01*
X0214514Y0106260D01*
X0214323Y0106020D01*
X0214125Y0105784D01*
X0213922Y0105553D01*
X0213714Y0105327D01*
X0213500Y0105106D01*
X0213281Y0104890D01*
X0213057Y0104680D01*
X0212828Y0104475D01*
X0212593Y0104276D01*
X0212355Y0104082D01*
X0212111Y0103894D01*
X0211863Y0103713D01*
X0211611Y0103537D01*
X0211354Y0103367D01*
X0211094Y0103204D01*
X0210830Y0103047D01*
X0210561Y0102896D01*
X0210290Y0102752D01*
X0210015Y0102615D01*
X0209736Y0102484D01*
X0209455Y0102360D01*
X0209171Y0102243D01*
X0208884Y0102132D01*
X0208594Y0102029D01*
X0208302Y0101933D01*
X0208008Y0101844D01*
X0207712Y0101761D01*
X0207413Y0101687D01*
X0207113Y0101619D01*
X0206812Y0101559D01*
X0206509Y0101505D01*
X0206205Y0101460D01*
X0205900Y0101421D01*
X0205594Y0101390D01*
X0205287Y0101367D01*
X0204980Y0101350D01*
X0204673Y0101342D01*
X0204366Y0101340D01*
X0217188Y0113965D02*
X0217188Y0114316D01*
X0217205Y0114318D01*
X0217222Y0114322D01*
X0217238Y0114329D01*
X0217252Y0114339D01*
X0217265Y0114352D01*
X0217275Y0114366D01*
X0217282Y0114382D01*
X0217286Y0114399D01*
X0217288Y0114416D01*
X0217288Y0115416D01*
X0170513Y0021337D02*
X0169726Y0020550D01*
D14*
X0169750Y0021585D02*
X0169266Y0022069D01*
X0169266Y0024487D01*
X0170717Y0024487D01*
X0171201Y0024004D01*
X0171201Y0023036D01*
X0170717Y0022552D01*
X0169266Y0022552D01*
X0169750Y0021585D02*
X0170233Y0021585D01*
X0168254Y0023036D02*
X0168254Y0024004D01*
X0167771Y0024487D01*
X0166803Y0024487D01*
X0166319Y0024004D01*
X0166319Y0023520D01*
X0168254Y0023520D01*
X0168254Y0023036D02*
X0167771Y0022552D01*
X0166803Y0022552D01*
X0165308Y0022552D02*
X0165308Y0024487D01*
X0165308Y0023520D02*
X0164340Y0024487D01*
X0163857Y0024487D01*
X0172205Y0024487D02*
X0172689Y0024487D01*
X0173656Y0023520D01*
X0173656Y0024487D02*
X0173656Y0022552D01*
X0174668Y0022552D02*
X0176119Y0022552D01*
X0176603Y0023036D01*
X0176119Y0023520D01*
X0174668Y0023520D01*
X0174668Y0024004D02*
X0174668Y0022552D01*
X0174668Y0024004D02*
X0175152Y0024487D01*
X0176119Y0024487D01*
X0177614Y0024004D02*
X0177614Y0022552D01*
X0177614Y0024004D02*
X0178098Y0024487D01*
X0179066Y0024487D01*
X0179549Y0024004D01*
X0180561Y0024971D02*
X0181045Y0025455D01*
X0182012Y0025455D01*
X0182496Y0024971D01*
X0182496Y0023036D01*
X0182012Y0022552D01*
X0181045Y0022552D01*
X0180561Y0023036D01*
X0179549Y0022552D02*
X0179549Y0025455D01*
X0186439Y0024487D02*
X0187407Y0024487D01*
X0186923Y0024971D02*
X0186923Y0023036D01*
X0186439Y0022552D01*
X0188404Y0022552D02*
X0188887Y0023036D01*
X0188887Y0024971D01*
X0188404Y0024487D02*
X0189371Y0024487D01*
X0190383Y0024004D02*
X0190383Y0022552D01*
X0191834Y0022552D01*
X0192318Y0023036D01*
X0191834Y0023520D01*
X0190383Y0023520D01*
X0190383Y0024004D02*
X0190866Y0024487D01*
X0191834Y0024487D01*
X0193329Y0024487D02*
X0193813Y0024004D01*
X0195264Y0024004D01*
X0195264Y0025455D02*
X0195264Y0022552D01*
X0193813Y0022552D01*
X0193329Y0023036D01*
X0193329Y0023520D01*
X0193813Y0024004D01*
X0193329Y0024487D02*
X0193329Y0024971D01*
X0193813Y0025455D01*
X0195264Y0025455D01*
X0217003Y0076632D02*
X0217003Y0078083D01*
X0217487Y0078567D01*
X0217971Y0078567D01*
X0218455Y0078083D01*
X0218455Y0076632D01*
X0219906Y0076632D02*
X0219906Y0078083D01*
X0219422Y0078567D01*
X0218938Y0078567D01*
X0218455Y0078083D01*
X0218455Y0079578D02*
X0218455Y0081513D01*
X0218938Y0081513D02*
X0217003Y0081513D01*
X0217003Y0079578D02*
X0218938Y0079578D01*
X0219906Y0080546D01*
X0218938Y0081513D01*
X0219906Y0082525D02*
X0219906Y0084460D01*
X0219906Y0083492D02*
X0217003Y0083492D01*
X0217003Y0086439D02*
X0219906Y0086439D01*
X0219906Y0087406D02*
X0219906Y0085471D01*
X0218455Y0088418D02*
X0218455Y0090353D01*
X0219422Y0089385D02*
X0217487Y0089385D01*
X0217003Y0076632D02*
X0219906Y0076632D01*
X0166647Y0080422D02*
X0166164Y0079938D01*
X0164229Y0079938D01*
X0163745Y0080422D01*
X0163745Y0081389D01*
X0164229Y0081873D01*
X0165196Y0081873D01*
X0165196Y0080906D01*
X0166164Y0081873D02*
X0166647Y0081389D01*
X0166647Y0080422D01*
X0166647Y0082885D02*
X0163745Y0082885D01*
X0163745Y0084820D02*
X0166647Y0084820D01*
X0166647Y0085831D02*
X0166647Y0087282D01*
X0166164Y0087766D01*
X0164229Y0087766D01*
X0163745Y0087282D01*
X0163745Y0085831D01*
X0166647Y0085831D01*
X0166647Y0082885D02*
X0163745Y0084820D01*
X0138735Y0068686D02*
X0138735Y0066751D01*
X0138735Y0067719D02*
X0135833Y0067719D01*
X0135833Y0064772D02*
X0138735Y0064772D01*
X0138735Y0063805D02*
X0138735Y0065740D01*
X0137768Y0062793D02*
X0135833Y0062793D01*
X0137284Y0062793D02*
X0137284Y0060858D01*
X0137768Y0060858D02*
X0135833Y0060858D01*
X0136317Y0059847D02*
X0135833Y0059363D01*
X0135833Y0057912D01*
X0138735Y0057912D01*
X0138735Y0059363D01*
X0138252Y0059847D01*
X0137768Y0059847D01*
X0137284Y0059363D01*
X0137284Y0057912D01*
X0137284Y0059363D02*
X0136800Y0059847D01*
X0136317Y0059847D01*
X0137768Y0060858D02*
X0138735Y0061826D01*
X0137768Y0062793D01*
X0130342Y0071786D02*
X0128408Y0071786D01*
X0127924Y0072269D01*
X0127924Y0073237D01*
X0128408Y0073721D01*
X0129375Y0073721D01*
X0129375Y0072753D01*
X0130342Y0071786D02*
X0130826Y0072269D01*
X0130826Y0073237D01*
X0130342Y0073721D01*
X0130826Y0074732D02*
X0127924Y0076667D01*
X0130826Y0076667D01*
X0130826Y0077679D02*
X0130826Y0079130D01*
X0130342Y0079614D01*
X0128408Y0079614D01*
X0127924Y0079130D01*
X0127924Y0077679D01*
X0130826Y0077679D01*
X0130826Y0074732D02*
X0127924Y0074732D01*
X0120144Y0075583D02*
X0119177Y0076550D01*
X0117242Y0076550D01*
X0118693Y0076550D02*
X0118693Y0074615D01*
X0119177Y0074615D02*
X0120144Y0075583D01*
X0119177Y0074615D02*
X0117242Y0074615D01*
X0117725Y0073604D02*
X0117242Y0073120D01*
X0117242Y0071669D01*
X0120144Y0071669D01*
X0120144Y0073120D01*
X0119660Y0073604D01*
X0119177Y0073604D01*
X0118693Y0073120D01*
X0118693Y0071669D01*
X0118693Y0073120D02*
X0118209Y0073604D01*
X0117725Y0073604D01*
X0120144Y0077562D02*
X0120144Y0079497D01*
X0120144Y0078529D02*
X0117242Y0078529D01*
X0120144Y0080508D02*
X0120144Y0082443D01*
X0120144Y0081476D02*
X0117242Y0081476D01*
X0118693Y0083455D02*
X0118693Y0085390D01*
X0119660Y0084422D02*
X0117725Y0084422D01*
X0128043Y0150698D02*
X0128043Y0152149D01*
X0128527Y0152633D01*
X0130462Y0152633D01*
X0130946Y0152149D01*
X0130946Y0150698D01*
X0128043Y0150698D01*
X0128043Y0153644D02*
X0128043Y0155579D01*
X0128043Y0154612D02*
X0130946Y0154612D01*
X0129978Y0153644D01*
X0131146Y0161334D02*
X0128243Y0161334D01*
X0128243Y0162785D01*
X0128727Y0163269D01*
X0130662Y0163269D01*
X0131146Y0162785D01*
X0131146Y0161334D01*
X0130662Y0164280D02*
X0131146Y0164764D01*
X0131146Y0165732D01*
X0130662Y0166215D01*
X0130178Y0166215D01*
X0128243Y0164280D01*
X0128243Y0166215D01*
X0128049Y0188784D02*
X0127565Y0189267D01*
X0127565Y0190235D01*
X0128049Y0190719D01*
X0129016Y0190719D01*
X0129016Y0189751D01*
X0128049Y0188784D02*
X0129984Y0188784D01*
X0130468Y0189267D01*
X0130468Y0190235D01*
X0129984Y0190719D01*
X0130468Y0191730D02*
X0127565Y0191730D01*
X0127565Y0193665D02*
X0130468Y0193665D01*
X0130468Y0194677D02*
X0130468Y0196128D01*
X0129984Y0196612D01*
X0128049Y0196612D01*
X0127565Y0196128D01*
X0127565Y0194677D01*
X0130468Y0194677D01*
X0130468Y0191730D02*
X0127565Y0193665D01*
X0129107Y0202250D02*
X0129107Y0204185D01*
X0129107Y0205197D02*
X0129591Y0206164D01*
X0129591Y0206648D01*
X0129107Y0207132D01*
X0128139Y0207132D01*
X0127656Y0206648D01*
X0127656Y0205681D01*
X0128139Y0205197D01*
X0129107Y0205197D02*
X0130558Y0205197D01*
X0130558Y0207132D01*
X0130558Y0208144D02*
X0128623Y0208144D01*
X0127656Y0209111D01*
X0128623Y0210078D01*
X0130558Y0210078D01*
X0130074Y0203218D02*
X0128139Y0203218D01*
X0148846Y0232625D02*
X0150080Y0232625D01*
X0149463Y0232625D02*
X0149463Y0235094D01*
X0150080Y0235094D01*
X0151295Y0234477D02*
X0151295Y0232625D01*
X0151295Y0234477D02*
X0151912Y0235094D01*
X0153763Y0235094D01*
X0153763Y0232625D01*
X0154984Y0232625D02*
X0156219Y0232625D01*
X0155602Y0232625D02*
X0155602Y0235094D01*
X0156219Y0235094D01*
X0157433Y0234477D02*
X0157433Y0232625D01*
X0158668Y0232625D02*
X0158668Y0234477D01*
X0158050Y0235094D01*
X0157433Y0234477D01*
X0158668Y0234477D02*
X0159285Y0235094D01*
X0159902Y0235094D01*
X0159902Y0232625D01*
X0164799Y0232625D02*
X0167268Y0232625D01*
X0166034Y0232625D02*
X0166034Y0236329D01*
X0167268Y0235094D01*
X0168483Y0235711D02*
X0168483Y0233243D01*
X0169100Y0232625D01*
X0170951Y0232625D01*
X0170951Y0236329D01*
X0169100Y0236329D01*
X0168483Y0235711D01*
X0175849Y0235094D02*
X0177700Y0235094D01*
X0178318Y0234477D01*
X0177700Y0233860D01*
X0176466Y0233860D01*
X0175849Y0233243D01*
X0176466Y0232625D01*
X0178318Y0232625D01*
X0179532Y0233243D02*
X0179532Y0234477D01*
X0180149Y0235094D01*
X0181384Y0235094D01*
X0182001Y0234477D01*
X0182001Y0233243D01*
X0181384Y0232625D01*
X0180149Y0232625D01*
X0179532Y0233243D01*
X0183215Y0232625D02*
X0183215Y0234477D01*
X0183832Y0235094D01*
X0184450Y0234477D01*
X0184450Y0232625D01*
X0185684Y0232625D02*
X0185684Y0235094D01*
X0185067Y0235094D01*
X0184450Y0234477D01*
X0186898Y0234477D02*
X0186898Y0233860D01*
X0189367Y0233860D01*
X0189367Y0234477D02*
X0188750Y0235094D01*
X0187515Y0235094D01*
X0186898Y0234477D01*
X0187515Y0232625D02*
X0188750Y0232625D01*
X0189367Y0233243D01*
X0189367Y0234477D01*
X0190581Y0232625D02*
X0190581Y0236329D01*
X0193050Y0236329D02*
X0193050Y0232625D01*
X0191816Y0233860D01*
X0190581Y0232625D01*
X0200577Y0208030D02*
X0202512Y0208030D01*
X0200577Y0208030D02*
X0199609Y0207062D01*
X0200577Y0206095D01*
X0202512Y0206095D01*
X0202028Y0205083D02*
X0201544Y0205083D01*
X0201061Y0204599D01*
X0200577Y0205083D01*
X0200093Y0205083D01*
X0199609Y0204599D01*
X0199609Y0203632D01*
X0200093Y0203148D01*
X0200093Y0202159D02*
X0199609Y0202159D01*
X0199609Y0201675D01*
X0200093Y0201675D01*
X0200093Y0202159D01*
X0200093Y0200663D02*
X0199609Y0200180D01*
X0199609Y0199212D01*
X0200093Y0198728D01*
X0201061Y0199696D02*
X0201061Y0200180D01*
X0200577Y0200663D01*
X0200093Y0200663D01*
X0201061Y0200180D02*
X0201544Y0200663D01*
X0202028Y0200663D01*
X0202512Y0200180D01*
X0202512Y0199212D01*
X0202028Y0198728D01*
X0201061Y0197717D02*
X0201061Y0195782D01*
X0202028Y0196749D02*
X0200093Y0196749D01*
X0202028Y0203148D02*
X0202512Y0203632D01*
X0202512Y0204599D01*
X0202028Y0205083D01*
X0201061Y0204599D02*
X0201061Y0204116D01*
X0200470Y0174948D02*
X0199987Y0174948D01*
X0199503Y0174464D01*
X0199503Y0173496D01*
X0199987Y0173013D01*
X0200954Y0173013D01*
X0200954Y0174464D01*
X0200470Y0174948D01*
X0201922Y0173980D02*
X0200954Y0173013D01*
X0201922Y0173980D02*
X0202405Y0174948D01*
X0201922Y0172001D02*
X0199987Y0172001D01*
X0199503Y0171517D01*
X0199503Y0170066D01*
X0202405Y0170066D01*
X0202405Y0171517D01*
X0201922Y0172001D01*
X0202405Y0165499D02*
X0202405Y0163564D01*
X0200954Y0163564D01*
X0201438Y0164531D01*
X0201438Y0165015D01*
X0200954Y0165499D01*
X0199987Y0165499D01*
X0199503Y0165015D01*
X0199503Y0164048D01*
X0199987Y0163564D01*
X0199987Y0162552D02*
X0201922Y0162552D01*
X0202405Y0162069D01*
X0202405Y0160617D01*
X0199503Y0160617D01*
X0199503Y0162069D01*
X0199987Y0162552D01*
X0155602Y0236329D02*
X0155602Y0236946D01*
X0149463Y0236946D02*
X0149463Y0236329D01*
D15*
X0200325Y0244179D03*
X0200295Y0244539D03*
X0202515Y0247059D03*
X0210225Y0252129D03*
X0217665Y0250389D03*
X0220095Y0249369D03*
X0218685Y0245709D03*
X0218085Y0244059D03*
X0218685Y0239469D03*
X0221445Y0243789D03*
X0215415Y0239739D03*
X0213195Y0242829D03*
X0221445Y0235569D03*
X0210765Y0229929D03*
X0205335Y0230829D03*
D16*
X0201045Y0240954D03*
X0200325Y0244554D03*
X0220545Y0250524D03*
D17*
X0219885Y0253719D03*
X0219855Y0253719D03*
X0206265Y0251229D03*
X0206205Y0251169D03*
X0205815Y0250719D03*
X0205755Y0250659D03*
X0205365Y0250209D03*
X0205305Y0250149D03*
X0204225Y0248919D03*
X0202665Y0247179D03*
X0202215Y0246669D03*
X0202155Y0246609D03*
X0202095Y0246549D03*
X0201705Y0246099D03*
X0201195Y0245529D03*
X0201135Y0245469D03*
X0200745Y0245019D03*
X0200685Y0244959D03*
X0200625Y0244869D03*
X0200355Y0244569D03*
D18*
X0200355Y0244074D03*
X0200385Y0244074D03*
D19*
X0200385Y0244584D03*
X0217065Y0249534D03*
D20*
X0219795Y0253674D03*
X0200445Y0244614D03*
X0200415Y0244614D03*
X0217365Y0228894D03*
D21*
X0221985Y0238329D03*
X0219525Y0253449D03*
X0200415Y0243939D03*
D22*
X0200445Y0243924D03*
X0200805Y0244854D03*
X0217305Y0229104D03*
D23*
X0200625Y0244659D03*
X0200505Y0244659D03*
X0200475Y0244659D03*
D24*
X0201135Y0245019D03*
X0200475Y0243819D03*
X0217275Y0229239D03*
D25*
X0217245Y0229269D03*
X0217215Y0229269D03*
X0200505Y0243789D03*
X0201075Y0245019D03*
X0201195Y0245049D03*
D26*
X0200565Y0244689D03*
X0200535Y0244689D03*
X0219705Y0253599D03*
D27*
X0200535Y0243684D03*
D28*
X0200565Y0243654D03*
X0201345Y0245184D03*
X0219135Y0253104D03*
D29*
X0219615Y0253509D03*
X0200595Y0244719D03*
D30*
X0201375Y0245199D03*
X0200595Y0243639D03*
X0219105Y0253089D03*
D31*
X0218925Y0252939D03*
X0218895Y0252939D03*
X0218235Y0243759D03*
X0221895Y0238479D03*
X0201555Y0245319D03*
X0200655Y0243519D03*
X0200625Y0243519D03*
D32*
X0200655Y0244764D03*
X0219645Y0253524D03*
D33*
X0200685Y0244734D03*
D34*
X0201825Y0245484D03*
X0200715Y0243354D03*
X0200685Y0243354D03*
D35*
X0200715Y0244809D03*
X0219585Y0253479D03*
X0222015Y0238329D03*
D36*
X0219675Y0253584D03*
X0200745Y0244764D03*
D37*
X0200745Y0243204D03*
X0200775Y0243204D03*
X0202125Y0245694D03*
X0218535Y0252624D03*
D38*
X0219555Y0253464D03*
X0200775Y0244824D03*
X0217335Y0229044D03*
D39*
X0200835Y0243069D03*
X0200805Y0243069D03*
X0218325Y0252429D03*
D40*
X0200835Y0244869D03*
D41*
X0200865Y0244884D03*
X0219465Y0253404D03*
X0219495Y0253404D03*
D42*
X0202635Y0245979D03*
X0202605Y0245979D03*
X0200865Y0242949D03*
D43*
X0200895Y0244899D03*
D44*
X0200895Y0242919D03*
X0202725Y0246069D03*
X0218055Y0252219D03*
X0218085Y0252219D03*
D45*
X0219405Y0253359D03*
X0200925Y0244929D03*
D46*
X0200925Y0242799D03*
X0202935Y0246189D03*
X0202965Y0246189D03*
D47*
X0200955Y0244944D03*
D48*
X0200955Y0242784D03*
X0217875Y0252084D03*
X0217905Y0252084D03*
D49*
X0219345Y0253314D03*
X0219375Y0253314D03*
X0201015Y0244974D03*
X0200985Y0244974D03*
D50*
X0200985Y0242679D03*
X0203145Y0246309D03*
X0203205Y0246369D03*
D51*
X0203265Y0246399D03*
X0201015Y0242649D03*
D52*
X0201045Y0245004D03*
X0219285Y0253254D03*
D53*
X0221775Y0238764D03*
X0221805Y0238764D03*
X0201045Y0242604D03*
D54*
X0201075Y0242514D03*
X0201105Y0242514D03*
D55*
X0201105Y0245064D03*
D56*
X0201135Y0242364D03*
X0201165Y0242364D03*
D57*
X0201165Y0245094D03*
X0219255Y0253194D03*
D58*
X0217035Y0251379D03*
X0204225Y0246939D03*
X0201225Y0242229D03*
X0201195Y0242229D03*
D59*
X0201225Y0245124D03*
D60*
X0201255Y0245589D03*
X0201645Y0246039D03*
X0205245Y0250089D03*
X0206325Y0251289D03*
D61*
X0201255Y0245079D03*
D62*
X0201255Y0242079D03*
X0204315Y0247059D03*
X0216885Y0251229D03*
X0221715Y0238959D03*
X0221745Y0238959D03*
D63*
X0201285Y0245139D03*
D64*
X0201285Y0242064D03*
D65*
X0201315Y0245169D03*
D66*
X0201315Y0241944D03*
X0216735Y0251124D03*
D67*
X0216705Y0251109D03*
X0204525Y0247179D03*
X0201345Y0241929D03*
D68*
X0201375Y0241809D03*
D69*
X0201405Y0245214D03*
D70*
X0201405Y0241779D03*
X0216465Y0250899D03*
X0216495Y0250899D03*
X0216555Y0231249D03*
D71*
X0217155Y0229464D03*
X0217185Y0229464D03*
X0201435Y0245244D03*
X0219015Y0253044D03*
X0219045Y0253044D03*
D72*
X0216315Y0250779D03*
X0216285Y0250749D03*
X0221685Y0239079D03*
X0216495Y0231429D03*
X0201435Y0241659D03*
X0205035Y0247509D03*
X0205065Y0247509D03*
D73*
X0201465Y0245259D03*
X0218175Y0243789D03*
D74*
X0221655Y0239094D03*
X0216465Y0231444D03*
X0201465Y0241644D03*
D75*
X0201495Y0245289D03*
X0201525Y0245289D03*
D76*
X0201495Y0241554D03*
D77*
X0201525Y0241509D03*
X0201555Y0241509D03*
X0205395Y0247719D03*
D78*
X0201585Y0245334D03*
D79*
X0201585Y0241374D03*
X0201615Y0241374D03*
X0205605Y0247854D03*
X0205635Y0247854D03*
X0215835Y0250344D03*
D80*
X0218835Y0252849D03*
X0201675Y0245409D03*
X0201615Y0245349D03*
D81*
X0201645Y0245319D03*
X0218955Y0252969D03*
X0218985Y0252999D03*
X0221925Y0238479D03*
D82*
X0201675Y0241224D03*
X0201645Y0241224D03*
D83*
X0201705Y0245364D03*
X0218205Y0243774D03*
D84*
X0216285Y0231984D03*
X0216255Y0231984D03*
X0201705Y0241104D03*
D85*
X0201735Y0245439D03*
X0218865Y0252879D03*
D86*
X0215415Y0249999D03*
X0201735Y0241089D03*
D87*
X0201765Y0245454D03*
X0217125Y0229614D03*
X0218775Y0252804D03*
D88*
X0201795Y0240954D03*
X0201765Y0240954D03*
X0216195Y0232134D03*
X0216225Y0232134D03*
D89*
X0217095Y0229629D03*
X0201795Y0245469D03*
D90*
X0201825Y0240819D03*
X0201855Y0240819D03*
X0212265Y0249219D03*
X0212715Y0249279D03*
X0212745Y0249279D03*
X0214995Y0249669D03*
D91*
X0218715Y0252759D03*
X0218745Y0252759D03*
X0201855Y0245499D03*
D92*
X0201885Y0245514D03*
D93*
X0201885Y0240699D03*
D94*
X0201915Y0245544D03*
X0218655Y0252714D03*
D95*
X0201915Y0240669D03*
D96*
X0201945Y0245559D03*
X0218625Y0252699D03*
D97*
X0201945Y0240534D03*
D98*
X0201975Y0245574D03*
X0202095Y0245604D03*
D99*
X0202005Y0240504D03*
X0201975Y0240504D03*
X0218775Y0242424D03*
X0218805Y0242424D03*
D100*
X0218595Y0252654D03*
X0202215Y0245694D03*
X0202005Y0245604D03*
D101*
X0202035Y0245619D03*
X0202065Y0245649D03*
X0218505Y0252579D03*
X0218565Y0252639D03*
D102*
X0202035Y0240354D03*
D103*
X0202065Y0240369D03*
X0216015Y0232719D03*
D104*
X0215985Y0232854D03*
X0221505Y0239574D03*
X0202125Y0240234D03*
X0202095Y0240234D03*
D105*
X0202155Y0245664D03*
D106*
X0202155Y0240084D03*
X0202185Y0240084D03*
D107*
X0202185Y0245739D03*
D108*
X0202215Y0239964D03*
D109*
X0202245Y0245769D03*
D110*
X0202245Y0239949D03*
D111*
X0202275Y0245784D03*
D112*
X0202275Y0239814D03*
D113*
X0202305Y0245799D03*
X0218385Y0252489D03*
X0218415Y0252489D03*
D114*
X0221385Y0239709D03*
X0221415Y0239709D03*
X0202305Y0239799D03*
D115*
X0202335Y0245814D03*
D116*
X0202335Y0239694D03*
D117*
X0202365Y0245829D03*
D118*
X0202365Y0239679D03*
D119*
X0202395Y0245844D03*
X0218355Y0252444D03*
D120*
X0218985Y0241959D03*
X0215715Y0233589D03*
X0202395Y0239559D03*
D121*
X0202425Y0245874D03*
X0202455Y0245874D03*
X0217005Y0229974D03*
D122*
X0202425Y0239529D03*
D123*
X0202455Y0239514D03*
D124*
X0202485Y0245904D03*
X0202515Y0245904D03*
D125*
X0202485Y0239394D03*
D126*
X0202515Y0239379D03*
D127*
X0202545Y0245949D03*
X0202665Y0245949D03*
X0218205Y0252339D03*
D128*
X0202575Y0239214D03*
X0202545Y0239214D03*
D129*
X0202575Y0245964D03*
D130*
X0202605Y0239094D03*
X0202635Y0239094D03*
D131*
X0202665Y0238944D03*
X0202695Y0238944D03*
X0215505Y0234144D03*
D132*
X0202695Y0246054D03*
X0218115Y0252294D03*
X0218145Y0252294D03*
D133*
X0202725Y0238824D03*
D134*
X0202755Y0246084D03*
D135*
X0202755Y0238809D03*
X0215475Y0234279D03*
D136*
X0202785Y0246099D03*
D137*
X0202785Y0238674D03*
D138*
X0202815Y0246114D03*
X0217995Y0252174D03*
X0218025Y0252174D03*
D139*
X0202815Y0238659D03*
D140*
X0202845Y0246129D03*
X0216915Y0230199D03*
D141*
X0202845Y0238554D03*
D142*
X0202875Y0246159D03*
X0202905Y0246159D03*
X0217965Y0252129D03*
D143*
X0219165Y0241509D03*
X0219195Y0241509D03*
X0202875Y0238539D03*
D144*
X0202905Y0238509D03*
D145*
X0202935Y0238389D03*
X0202965Y0238389D03*
D146*
X0202995Y0246234D03*
X0203025Y0246234D03*
D147*
X0203025Y0238254D03*
X0202995Y0238254D03*
D148*
X0203055Y0246264D03*
X0203085Y0246264D03*
X0217815Y0252024D03*
X0217845Y0252024D03*
X0216855Y0230364D03*
D149*
X0203085Y0238104D03*
X0203055Y0238104D03*
D150*
X0203115Y0246294D03*
X0203175Y0246354D03*
X0217725Y0251934D03*
X0217785Y0251994D03*
D151*
X0221175Y0240324D03*
X0203115Y0237984D03*
D152*
X0203145Y0237969D03*
D153*
X0203175Y0237804D03*
X0203205Y0237804D03*
D154*
X0203235Y0246384D03*
X0217665Y0251904D03*
X0217695Y0251904D03*
D155*
X0203235Y0237684D03*
D156*
X0203265Y0237669D03*
D157*
X0203295Y0246429D03*
X0203325Y0246429D03*
X0217605Y0251859D03*
X0217635Y0251859D03*
D158*
X0203385Y0237534D03*
X0203355Y0237534D03*
X0203325Y0237534D03*
X0203295Y0237534D03*
X0214995Y0235584D03*
D159*
X0216825Y0230499D03*
X0203355Y0246459D03*
D160*
X0203385Y0246474D03*
X0203415Y0246474D03*
D161*
X0203415Y0237519D03*
X0203445Y0237519D03*
X0203625Y0237489D03*
X0203655Y0237489D03*
X0203685Y0237489D03*
X0203715Y0237489D03*
X0203775Y0237459D03*
X0203805Y0237459D03*
X0204375Y0237369D03*
X0204405Y0237369D03*
X0204435Y0237369D03*
X0204465Y0237369D03*
X0204495Y0237369D03*
X0204525Y0237369D03*
X0204915Y0237309D03*
X0204945Y0237309D03*
D162*
X0203445Y0246504D03*
X0218385Y0243324D03*
D163*
X0218415Y0243309D03*
X0217515Y0251769D03*
X0203475Y0246519D03*
X0216765Y0230559D03*
X0216795Y0230559D03*
D164*
X0204555Y0237354D03*
X0204165Y0237444D03*
X0204135Y0237444D03*
X0204105Y0237444D03*
X0204075Y0237444D03*
X0204045Y0237444D03*
X0204015Y0237444D03*
X0203985Y0237444D03*
X0203955Y0237444D03*
X0203925Y0237444D03*
X0203895Y0237444D03*
X0203865Y0237444D03*
X0203835Y0237444D03*
X0203595Y0237504D03*
X0203565Y0237504D03*
X0203535Y0237504D03*
X0203505Y0237504D03*
X0203475Y0237504D03*
D165*
X0203505Y0246549D03*
X0203535Y0246549D03*
D166*
X0203565Y0246579D03*
X0217425Y0251709D03*
X0217455Y0251709D03*
D167*
X0203595Y0246594D03*
D168*
X0203625Y0246609D03*
X0217365Y0251649D03*
D169*
X0217395Y0251664D03*
X0217335Y0251604D03*
X0203655Y0246624D03*
D170*
X0203685Y0246654D03*
X0203715Y0246654D03*
X0203745Y0246714D03*
X0203775Y0246714D03*
D171*
X0203745Y0237474D03*
X0215025Y0235554D03*
X0219375Y0241074D03*
D172*
X0217275Y0251544D03*
X0217245Y0251544D03*
X0203835Y0246744D03*
X0203805Y0246744D03*
D173*
X0203865Y0246774D03*
D174*
X0203895Y0246789D03*
D175*
X0203925Y0246804D03*
X0217155Y0251484D03*
X0217185Y0251484D03*
D176*
X0217065Y0251469D03*
X0203955Y0246819D03*
D177*
X0203985Y0246834D03*
D178*
X0204015Y0246864D03*
X0204045Y0246864D03*
D179*
X0204075Y0246894D03*
X0218445Y0243174D03*
X0218475Y0243174D03*
D180*
X0217005Y0251319D03*
X0216975Y0251319D03*
X0204105Y0246909D03*
D181*
X0204135Y0246939D03*
X0204165Y0246939D03*
D182*
X0204195Y0246984D03*
X0216945Y0251274D03*
D183*
X0205665Y0237219D03*
X0205635Y0237219D03*
X0205605Y0237219D03*
X0205575Y0237219D03*
X0205545Y0237219D03*
X0205335Y0237279D03*
X0205305Y0237279D03*
X0205275Y0237279D03*
X0205245Y0237279D03*
X0205215Y0237279D03*
X0205185Y0237279D03*
X0205155Y0237279D03*
X0205125Y0237279D03*
X0205095Y0237279D03*
X0205065Y0237279D03*
X0205035Y0237279D03*
X0205005Y0237279D03*
X0204975Y0237279D03*
X0204885Y0237339D03*
X0204855Y0237339D03*
X0204825Y0237339D03*
X0204795Y0237339D03*
X0204765Y0237339D03*
X0204735Y0237339D03*
X0204705Y0237339D03*
X0204675Y0237339D03*
X0204645Y0237339D03*
X0204615Y0237339D03*
X0204585Y0237339D03*
X0204345Y0237399D03*
X0204315Y0237399D03*
X0204285Y0237399D03*
X0204195Y0237429D03*
D184*
X0204225Y0237414D03*
X0204255Y0237414D03*
D185*
X0204255Y0247029D03*
X0204285Y0247029D03*
X0216915Y0251259D03*
D186*
X0216855Y0251214D03*
X0204345Y0247074D03*
D187*
X0204375Y0247089D03*
X0216825Y0251199D03*
D188*
X0204405Y0247104D03*
D189*
X0204435Y0247119D03*
X0216795Y0251169D03*
D190*
X0216765Y0251139D03*
X0204495Y0247149D03*
X0204465Y0247149D03*
X0216585Y0231069D03*
D191*
X0204555Y0247194D03*
D192*
X0204585Y0247224D03*
X0204615Y0247224D03*
D193*
X0204645Y0247254D03*
X0204675Y0247254D03*
D194*
X0204705Y0247284D03*
X0204735Y0247284D03*
X0216525Y0250944D03*
X0218535Y0243024D03*
D195*
X0216525Y0231294D03*
X0204765Y0247314D03*
X0204795Y0247344D03*
X0204825Y0247374D03*
D196*
X0204855Y0247389D03*
D197*
X0204885Y0247404D03*
D198*
X0204915Y0247419D03*
X0216435Y0250869D03*
D199*
X0216405Y0250854D03*
X0204945Y0247434D03*
D200*
X0204975Y0247464D03*
X0205005Y0247464D03*
D201*
X0205095Y0247539D03*
X0205125Y0247539D03*
D202*
X0205155Y0247569D03*
X0205185Y0247569D03*
D203*
X0205215Y0247599D03*
X0205275Y0247659D03*
X0216135Y0250629D03*
X0216165Y0250629D03*
D204*
X0205245Y0247569D03*
D205*
X0205305Y0247614D03*
X0216195Y0250674D03*
X0216225Y0250674D03*
D206*
X0218565Y0242889D03*
X0205335Y0247689D03*
D207*
X0205365Y0247644D03*
D208*
X0205365Y0237249D03*
X0205395Y0237249D03*
X0205425Y0237249D03*
X0205455Y0237249D03*
X0205485Y0237249D03*
X0205515Y0237249D03*
X0205755Y0237189D03*
X0206115Y0237129D03*
X0206145Y0237129D03*
D209*
X0205425Y0247734D03*
X0216045Y0250554D03*
D210*
X0205455Y0247749D03*
D211*
X0205485Y0247779D03*
X0215955Y0250479D03*
X0215985Y0250479D03*
X0216405Y0231639D03*
D212*
X0205515Y0247794D03*
D213*
X0205545Y0247824D03*
X0205575Y0247824D03*
X0215775Y0250374D03*
D214*
X0205815Y0247914D03*
X0205665Y0247884D03*
D215*
X0205695Y0247899D03*
X0215745Y0250299D03*
D216*
X0205725Y0237204D03*
X0205695Y0237204D03*
D217*
X0205725Y0247914D03*
X0216375Y0231774D03*
D218*
X0205755Y0247869D03*
X0215805Y0250329D03*
X0215865Y0250389D03*
D219*
X0215715Y0250254D03*
X0215685Y0250254D03*
X0205785Y0247944D03*
D220*
X0205785Y0237174D03*
X0205815Y0237174D03*
X0205845Y0237174D03*
X0205875Y0237174D03*
X0205905Y0237174D03*
X0205935Y0237174D03*
X0205965Y0237174D03*
X0205995Y0237174D03*
X0206025Y0237174D03*
X0206055Y0237174D03*
X0206175Y0237114D03*
X0206205Y0237114D03*
X0206235Y0237114D03*
X0206265Y0237114D03*
X0206295Y0237114D03*
X0206325Y0237114D03*
X0206355Y0237114D03*
X0206385Y0237114D03*
X0206415Y0237114D03*
X0206445Y0237114D03*
X0206475Y0237114D03*
X0206745Y0237054D03*
X0206775Y0237054D03*
X0206805Y0237054D03*
X0206835Y0237054D03*
X0206865Y0237054D03*
D221*
X0205845Y0247989D03*
X0205875Y0248019D03*
X0205905Y0248049D03*
D222*
X0205935Y0248064D03*
D223*
X0205965Y0248079D03*
D224*
X0205995Y0248109D03*
D225*
X0206025Y0248124D03*
X0215595Y0250164D03*
D226*
X0215505Y0250074D03*
X0206085Y0248154D03*
X0206055Y0248154D03*
X0221625Y0239274D03*
D227*
X0206085Y0237159D03*
D228*
X0206115Y0248184D03*
X0218685Y0242694D03*
D229*
X0215475Y0250029D03*
X0215445Y0250029D03*
X0206325Y0248259D03*
X0206265Y0248199D03*
X0206145Y0248199D03*
D230*
X0206175Y0248214D03*
D231*
X0206205Y0248169D03*
X0215535Y0250119D03*
X0221595Y0239259D03*
D232*
X0215385Y0249984D03*
X0215355Y0249984D03*
X0206235Y0248244D03*
D233*
X0206295Y0248274D03*
X0206355Y0248334D03*
D234*
X0206385Y0248349D03*
D235*
X0206415Y0248364D03*
X0215295Y0249924D03*
D236*
X0206445Y0248379D03*
D237*
X0206475Y0248409D03*
X0206505Y0248409D03*
X0206535Y0248409D03*
X0206565Y0248409D03*
X0206595Y0248409D03*
X0206625Y0248409D03*
X0206655Y0248409D03*
X0206685Y0248409D03*
X0206715Y0248409D03*
X0206745Y0248409D03*
X0206775Y0248409D03*
X0206925Y0248469D03*
X0206955Y0248469D03*
X0206985Y0248469D03*
X0207015Y0248469D03*
X0207045Y0248469D03*
X0207075Y0248469D03*
X0207105Y0248469D03*
X0207135Y0248469D03*
X0207165Y0248469D03*
X0207195Y0248469D03*
X0207405Y0248529D03*
X0207435Y0248529D03*
X0207465Y0248529D03*
X0207495Y0248529D03*
X0207525Y0248529D03*
D238*
X0206505Y0237099D03*
X0206895Y0237039D03*
X0207255Y0237009D03*
X0214965Y0235719D03*
X0221115Y0240519D03*
D239*
X0208035Y0236904D03*
X0208005Y0236904D03*
X0207975Y0236904D03*
X0207945Y0236904D03*
X0207915Y0236904D03*
X0207645Y0236964D03*
X0207615Y0236964D03*
X0207585Y0236964D03*
X0207555Y0236964D03*
X0207525Y0236964D03*
X0207495Y0236964D03*
X0207465Y0236964D03*
X0207435Y0236964D03*
X0207405Y0236964D03*
X0207375Y0236964D03*
X0207345Y0236964D03*
X0207315Y0236964D03*
X0207285Y0236994D03*
X0207225Y0237024D03*
X0207195Y0237024D03*
X0207165Y0237024D03*
X0207135Y0237024D03*
X0207105Y0237024D03*
X0207075Y0237024D03*
X0207045Y0237024D03*
X0207015Y0237024D03*
X0206985Y0237024D03*
X0206955Y0237024D03*
X0206925Y0237024D03*
X0206715Y0237084D03*
X0206685Y0237084D03*
X0206655Y0237084D03*
X0206625Y0237084D03*
X0206595Y0237084D03*
X0206565Y0237084D03*
X0206535Y0237084D03*
D240*
X0206805Y0248439D03*
X0206835Y0248439D03*
X0206865Y0248439D03*
X0206895Y0248439D03*
X0207225Y0248499D03*
X0207255Y0248499D03*
X0207285Y0248499D03*
X0207315Y0248499D03*
X0207345Y0248499D03*
X0207375Y0248499D03*
D241*
X0207555Y0248559D03*
X0207585Y0248559D03*
X0207615Y0248559D03*
X0207645Y0248559D03*
X0207675Y0248559D03*
X0207705Y0248559D03*
X0207735Y0248559D03*
X0207765Y0248559D03*
X0207795Y0248559D03*
X0207825Y0248559D03*
X0207855Y0248559D03*
X0207885Y0248559D03*
X0208005Y0248619D03*
D242*
X0207855Y0236934D03*
X0207825Y0236934D03*
X0207795Y0236934D03*
X0207765Y0236934D03*
X0207735Y0236934D03*
X0207705Y0236934D03*
X0207675Y0236934D03*
X0208545Y0236784D03*
X0208575Y0236784D03*
X0208605Y0236784D03*
X0208635Y0236784D03*
X0208665Y0236784D03*
X0208695Y0236784D03*
X0208725Y0236784D03*
X0208755Y0236784D03*
X0208785Y0236784D03*
X0208815Y0236784D03*
D243*
X0208515Y0236799D03*
X0208395Y0236859D03*
X0208365Y0236859D03*
X0207885Y0236919D03*
X0221085Y0240519D03*
D244*
X0215205Y0249834D03*
X0215175Y0249834D03*
X0208695Y0248694D03*
X0208665Y0248694D03*
X0208635Y0248694D03*
X0208605Y0248694D03*
X0208575Y0248694D03*
X0208545Y0248694D03*
X0208515Y0248694D03*
X0208485Y0248694D03*
X0208275Y0248634D03*
X0208245Y0248634D03*
X0208215Y0248634D03*
X0208185Y0248634D03*
X0208155Y0248634D03*
X0208125Y0248634D03*
X0208095Y0248634D03*
X0208065Y0248634D03*
X0208035Y0248634D03*
X0207945Y0248574D03*
X0207915Y0248574D03*
D245*
X0207975Y0248589D03*
X0208305Y0248649D03*
X0208425Y0248679D03*
X0208455Y0248679D03*
X0209025Y0248739D03*
X0210135Y0248919D03*
X0210165Y0248919D03*
X0210195Y0248919D03*
X0210225Y0248919D03*
D246*
X0208335Y0236874D03*
X0208305Y0236874D03*
X0208275Y0236874D03*
X0208245Y0236874D03*
X0208215Y0236874D03*
X0208185Y0236874D03*
X0208155Y0236874D03*
X0208125Y0236874D03*
X0208095Y0236874D03*
X0208065Y0236874D03*
X0208485Y0236814D03*
X0209115Y0236724D03*
X0209145Y0236724D03*
X0209175Y0236724D03*
X0214905Y0235764D03*
X0214935Y0235764D03*
D247*
X0218715Y0242574D03*
X0218745Y0242574D03*
X0215145Y0249804D03*
X0209775Y0248844D03*
X0209745Y0248844D03*
X0209715Y0248844D03*
X0209685Y0248844D03*
X0209655Y0248844D03*
X0209625Y0248844D03*
X0209595Y0248844D03*
X0209565Y0248844D03*
X0209535Y0248844D03*
X0209445Y0248784D03*
X0209415Y0248784D03*
X0209385Y0248784D03*
X0209355Y0248784D03*
X0209325Y0248784D03*
X0209295Y0248784D03*
X0209265Y0248784D03*
X0209235Y0248784D03*
X0209205Y0248784D03*
X0209175Y0248784D03*
X0209145Y0248784D03*
X0209115Y0248784D03*
X0209085Y0248784D03*
X0209055Y0248784D03*
X0208995Y0248724D03*
X0208965Y0248724D03*
X0208935Y0248724D03*
X0208905Y0248724D03*
X0208875Y0248724D03*
X0208845Y0248724D03*
X0208815Y0248724D03*
X0208785Y0248724D03*
X0208755Y0248724D03*
X0208725Y0248724D03*
X0208395Y0248664D03*
X0208365Y0248664D03*
X0208335Y0248664D03*
D248*
X0208425Y0236829D03*
X0208455Y0236829D03*
X0208845Y0236769D03*
X0209205Y0236709D03*
X0209235Y0236709D03*
D249*
X0209265Y0236694D03*
X0209295Y0236694D03*
X0209325Y0236694D03*
X0209355Y0236694D03*
X0209385Y0236694D03*
X0209415Y0236694D03*
X0209445Y0236694D03*
X0209475Y0236694D03*
X0209505Y0236694D03*
X0209535Y0236694D03*
X0209565Y0236694D03*
X0209685Y0236634D03*
X0209715Y0236634D03*
X0209745Y0236634D03*
X0209775Y0236634D03*
X0209805Y0236634D03*
X0209835Y0236634D03*
X0209865Y0236634D03*
X0209895Y0236634D03*
X0209925Y0236634D03*
X0209955Y0236634D03*
X0210285Y0236574D03*
X0210315Y0236574D03*
X0210345Y0236574D03*
X0209085Y0236754D03*
X0209055Y0236754D03*
X0209025Y0236754D03*
X0208995Y0236754D03*
X0208965Y0236754D03*
X0208935Y0236754D03*
X0208905Y0236754D03*
X0208875Y0236754D03*
D250*
X0209475Y0248829D03*
X0209505Y0248829D03*
X0210255Y0248949D03*
X0210285Y0248949D03*
X0210315Y0248949D03*
X0210345Y0248949D03*
X0210375Y0248949D03*
X0210405Y0248949D03*
X0210435Y0248949D03*
X0210465Y0248949D03*
X0210495Y0248949D03*
X0210525Y0248949D03*
D251*
X0209595Y0236679D03*
X0209655Y0236649D03*
X0209985Y0236619D03*
D252*
X0209625Y0236664D03*
D253*
X0209805Y0248874D03*
X0209835Y0248874D03*
X0209865Y0248874D03*
X0209895Y0248874D03*
X0209925Y0248874D03*
X0209955Y0248874D03*
X0209985Y0248874D03*
X0210615Y0249024D03*
X0210645Y0249024D03*
X0210675Y0249024D03*
X0210705Y0249024D03*
X0210735Y0249024D03*
X0210765Y0249024D03*
X0210795Y0249024D03*
X0210825Y0249024D03*
X0210855Y0249024D03*
X0210885Y0249024D03*
X0210915Y0249024D03*
X0210945Y0249024D03*
X0215055Y0249714D03*
D254*
X0215115Y0249789D03*
X0210105Y0248889D03*
X0210075Y0248889D03*
X0210045Y0248889D03*
X0210015Y0248889D03*
D255*
X0210015Y0236604D03*
X0210045Y0236604D03*
X0210075Y0236604D03*
X0210105Y0236604D03*
X0210135Y0236604D03*
X0210165Y0236604D03*
X0210195Y0236604D03*
X0210225Y0236604D03*
X0210255Y0236604D03*
X0210375Y0236544D03*
X0210405Y0236544D03*
X0210435Y0236544D03*
X0210465Y0236544D03*
X0210495Y0236544D03*
X0210525Y0236544D03*
X0210555Y0236544D03*
X0210585Y0236544D03*
X0210615Y0236544D03*
X0210645Y0236544D03*
X0210675Y0236544D03*
X0210705Y0236544D03*
X0210735Y0236544D03*
X0210765Y0236544D03*
X0210885Y0236484D03*
X0210915Y0236484D03*
X0210945Y0236484D03*
X0210975Y0236484D03*
X0211005Y0236484D03*
X0211035Y0236484D03*
X0211065Y0236484D03*
X0211095Y0236484D03*
X0211125Y0236484D03*
D256*
X0210585Y0248979D03*
X0210555Y0248979D03*
X0210975Y0249039D03*
X0211005Y0249039D03*
X0211305Y0249099D03*
X0211665Y0249129D03*
D257*
X0210855Y0236499D03*
X0210825Y0236499D03*
X0210795Y0236499D03*
D258*
X0211035Y0249054D03*
X0211065Y0249054D03*
X0211095Y0249054D03*
X0211125Y0249054D03*
X0211155Y0249054D03*
X0211185Y0249054D03*
X0211335Y0249114D03*
X0211365Y0249114D03*
X0211395Y0249114D03*
X0211425Y0249114D03*
X0211455Y0249114D03*
X0211485Y0249114D03*
X0211515Y0249114D03*
X0211545Y0249114D03*
X0211575Y0249114D03*
X0211605Y0249114D03*
X0211635Y0249114D03*
X0211755Y0249174D03*
X0211785Y0249174D03*
X0211815Y0249174D03*
X0211845Y0249174D03*
X0211875Y0249174D03*
X0211905Y0249174D03*
X0211935Y0249174D03*
X0211965Y0249174D03*
X0211995Y0249174D03*
X0212025Y0249174D03*
X0212055Y0249174D03*
X0212295Y0249234D03*
X0212325Y0249234D03*
X0212355Y0249234D03*
X0212385Y0249234D03*
X0212415Y0249234D03*
X0212445Y0249234D03*
X0212475Y0249234D03*
X0212775Y0249294D03*
X0212805Y0249294D03*
X0215025Y0249684D03*
X0215085Y0249744D03*
D259*
X0212655Y0236244D03*
X0211575Y0236394D03*
X0211545Y0236394D03*
X0211425Y0236424D03*
X0211155Y0236454D03*
D260*
X0211185Y0236439D03*
X0211215Y0236439D03*
X0211245Y0236439D03*
X0211275Y0236439D03*
X0211305Y0236439D03*
X0211335Y0236439D03*
X0211365Y0236439D03*
X0211395Y0236439D03*
X0211605Y0236379D03*
X0211635Y0236379D03*
X0211665Y0236379D03*
X0211695Y0236379D03*
X0211725Y0236379D03*
X0211755Y0236379D03*
X0211785Y0236379D03*
X0211815Y0236379D03*
X0211845Y0236379D03*
X0211875Y0236379D03*
X0211905Y0236379D03*
X0212055Y0236319D03*
X0212085Y0236319D03*
X0212115Y0236319D03*
X0212145Y0236319D03*
X0212175Y0236319D03*
X0212205Y0236319D03*
X0212235Y0236319D03*
X0212265Y0236319D03*
X0212295Y0236319D03*
X0212625Y0236259D03*
X0212685Y0236229D03*
D261*
X0211275Y0249084D03*
X0211245Y0249084D03*
X0211215Y0249084D03*
X0211695Y0249144D03*
X0211725Y0249144D03*
D262*
X0211515Y0236409D03*
X0211485Y0236409D03*
X0211455Y0236409D03*
D263*
X0211935Y0236334D03*
X0211965Y0236334D03*
X0211995Y0236334D03*
X0212025Y0236334D03*
X0212325Y0236304D03*
X0212565Y0236274D03*
X0212595Y0236274D03*
X0212715Y0236214D03*
X0212745Y0236214D03*
X0212775Y0236214D03*
X0212805Y0236214D03*
X0212835Y0236214D03*
X0212865Y0236214D03*
X0212895Y0236214D03*
X0212925Y0236214D03*
X0212955Y0236214D03*
X0212985Y0236214D03*
X0213015Y0236214D03*
X0213045Y0236214D03*
X0213075Y0236214D03*
X0213195Y0236154D03*
X0213225Y0236154D03*
X0213255Y0236154D03*
X0213285Y0236154D03*
X0213315Y0236154D03*
X0213345Y0236154D03*
X0213375Y0236154D03*
X0213405Y0236154D03*
X0213435Y0236154D03*
X0213795Y0236094D03*
X0213825Y0236094D03*
X0213855Y0236094D03*
D264*
X0212235Y0249204D03*
X0212205Y0249204D03*
X0212175Y0249204D03*
X0212145Y0249204D03*
X0212115Y0249204D03*
X0212085Y0249204D03*
X0212835Y0249324D03*
X0212865Y0249324D03*
X0212895Y0249324D03*
X0212925Y0249324D03*
X0212955Y0249324D03*
X0212985Y0249324D03*
X0213015Y0249324D03*
X0213045Y0249324D03*
X0213075Y0249324D03*
X0213105Y0249324D03*
X0213135Y0249324D03*
X0213165Y0249324D03*
X0213195Y0249324D03*
X0213225Y0249324D03*
X0213855Y0249474D03*
X0213885Y0249474D03*
X0213915Y0249474D03*
X0213945Y0249474D03*
X0213975Y0249474D03*
D265*
X0212535Y0236289D03*
X0212505Y0236289D03*
X0212475Y0236289D03*
X0212445Y0236289D03*
X0212415Y0236289D03*
X0212385Y0236289D03*
X0212355Y0236289D03*
D266*
X0212505Y0249264D03*
X0212535Y0249264D03*
X0212565Y0249264D03*
X0212595Y0249264D03*
X0212625Y0249264D03*
X0212655Y0249264D03*
X0212685Y0249264D03*
D267*
X0213105Y0236184D03*
X0213135Y0236184D03*
X0213165Y0236184D03*
D268*
X0216135Y0232374D03*
X0213285Y0249354D03*
X0213255Y0249354D03*
X0213315Y0249384D03*
X0213345Y0249384D03*
X0213585Y0249414D03*
X0213765Y0249444D03*
X0213795Y0249444D03*
X0213825Y0249444D03*
X0214035Y0249504D03*
X0214065Y0249504D03*
X0214095Y0249504D03*
X0214125Y0249504D03*
X0214155Y0249504D03*
X0214185Y0249504D03*
X0214215Y0249504D03*
X0214245Y0249504D03*
X0214275Y0249504D03*
X0214305Y0249504D03*
X0214425Y0249564D03*
X0214455Y0249564D03*
X0214485Y0249564D03*
X0214515Y0249564D03*
X0214545Y0249564D03*
X0214575Y0249564D03*
X0214605Y0249564D03*
X0214635Y0249564D03*
X0214665Y0249564D03*
X0214695Y0249564D03*
X0214725Y0249564D03*
X0214965Y0249624D03*
D269*
X0214005Y0249489D03*
X0213555Y0249399D03*
X0213525Y0249399D03*
X0213495Y0249399D03*
X0213465Y0249399D03*
X0213435Y0249399D03*
X0213405Y0249399D03*
X0213375Y0249399D03*
X0221565Y0239379D03*
D270*
X0219405Y0240924D03*
X0213945Y0236064D03*
X0213915Y0236064D03*
X0213885Y0236064D03*
X0213765Y0236124D03*
X0213735Y0236124D03*
X0213705Y0236124D03*
X0213675Y0236124D03*
X0213645Y0236124D03*
X0213615Y0236124D03*
X0213585Y0236124D03*
X0213555Y0236124D03*
X0213525Y0236124D03*
X0213495Y0236124D03*
X0213465Y0236124D03*
D271*
X0221535Y0239409D03*
X0214935Y0249609D03*
X0214755Y0249579D03*
X0214335Y0249519D03*
X0213735Y0249429D03*
X0213705Y0249429D03*
X0213675Y0249429D03*
X0213645Y0249429D03*
X0213615Y0249429D03*
D272*
X0213975Y0236049D03*
X0214005Y0236049D03*
X0214035Y0236049D03*
X0214065Y0236049D03*
X0214095Y0236049D03*
X0214125Y0236049D03*
X0214155Y0236049D03*
X0214185Y0236049D03*
X0214215Y0236049D03*
X0214395Y0235989D03*
X0214425Y0235989D03*
X0214455Y0235989D03*
X0214485Y0235989D03*
X0214515Y0235989D03*
X0214545Y0235989D03*
X0214575Y0235989D03*
X0214605Y0235989D03*
D273*
X0214635Y0235974D03*
X0214665Y0235974D03*
X0214365Y0236004D03*
X0214245Y0236034D03*
D274*
X0214275Y0236019D03*
X0214305Y0236019D03*
X0214335Y0236019D03*
X0214695Y0235959D03*
X0214725Y0235959D03*
X0214755Y0235959D03*
X0214785Y0235959D03*
X0214815Y0235959D03*
X0214845Y0235959D03*
X0214875Y0235959D03*
X0219435Y0240909D03*
D275*
X0214905Y0249594D03*
X0214875Y0249594D03*
X0214845Y0249594D03*
X0214815Y0249594D03*
X0214785Y0249594D03*
X0214395Y0249534D03*
X0214365Y0249534D03*
D276*
X0215055Y0235374D03*
D277*
X0215085Y0235359D03*
D278*
X0215115Y0235224D03*
D279*
X0215145Y0235209D03*
D280*
X0215175Y0235029D03*
X0215205Y0235029D03*
D281*
X0215235Y0249894D03*
X0215265Y0249894D03*
D282*
X0215235Y0234879D03*
D283*
X0215265Y0234864D03*
D284*
X0215295Y0234669D03*
X0215325Y0234669D03*
D285*
X0215325Y0249939D03*
D286*
X0215355Y0234519D03*
X0215385Y0234519D03*
D287*
X0215415Y0234414D03*
D288*
X0215445Y0234294D03*
D289*
X0215535Y0234129D03*
D290*
X0218655Y0242709D03*
X0215565Y0250149D03*
D291*
X0215565Y0233949D03*
D292*
X0215595Y0233934D03*
D293*
X0215625Y0250209D03*
X0215655Y0250209D03*
D294*
X0215655Y0233799D03*
X0215625Y0233799D03*
D295*
X0215685Y0233604D03*
D296*
X0215745Y0233439D03*
D297*
X0215775Y0247614D03*
X0216675Y0248964D03*
D298*
X0215775Y0233409D03*
D299*
X0215805Y0233214D03*
X0215835Y0233214D03*
X0218895Y0242124D03*
D300*
X0215865Y0233079D03*
D301*
X0215895Y0250419D03*
D302*
X0215895Y0233064D03*
D303*
X0215925Y0250449D03*
D304*
X0215925Y0233049D03*
D305*
X0215955Y0232869D03*
D306*
X0216015Y0250539D03*
D307*
X0216045Y0232704D03*
D308*
X0218595Y0242874D03*
X0216105Y0250584D03*
X0216075Y0250584D03*
D309*
X0216075Y0232524D03*
D310*
X0216105Y0232509D03*
D311*
X0216165Y0232359D03*
D312*
X0216255Y0250734D03*
D313*
X0216315Y0231789D03*
X0216345Y0231789D03*
D314*
X0216345Y0250809D03*
X0216375Y0250809D03*
D315*
X0216435Y0231624D03*
D316*
X0216555Y0250959D03*
D317*
X0216585Y0250989D03*
X0216615Y0251019D03*
X0218505Y0243039D03*
D318*
X0216675Y0251154D03*
X0216615Y0231054D03*
D319*
X0216645Y0251079D03*
D320*
X0216645Y0230904D03*
X0216675Y0230904D03*
D321*
X0216705Y0230709D03*
X0216735Y0230709D03*
D322*
X0216885Y0230349D03*
D323*
X0216945Y0230184D03*
D324*
X0216975Y0229989D03*
D325*
X0217035Y0229809D03*
X0217065Y0229809D03*
D326*
X0217095Y0251439D03*
X0217125Y0251439D03*
D327*
X0217215Y0251529D03*
D328*
X0217305Y0251589D03*
D329*
X0219825Y0253689D03*
X0217395Y0228879D03*
D330*
X0217485Y0251754D03*
D331*
X0217545Y0251799D03*
X0217575Y0251799D03*
D332*
X0217755Y0251949D03*
D333*
X0217935Y0252114D03*
D334*
X0218115Y0243939D03*
D335*
X0218145Y0243924D03*
X0219435Y0253374D03*
D336*
X0218175Y0252309D03*
D337*
X0218235Y0252354D03*
X0221835Y0238644D03*
X0221865Y0238644D03*
D338*
X0218295Y0252399D03*
X0218265Y0252399D03*
D339*
X0218265Y0243624D03*
X0218295Y0243624D03*
D340*
X0218325Y0243474D03*
X0218355Y0243474D03*
D341*
X0218445Y0252534D03*
X0218475Y0252534D03*
D342*
X0218625Y0242754D03*
D343*
X0218685Y0252729D03*
D344*
X0218805Y0252819D03*
D345*
X0218835Y0242274D03*
X0218865Y0242274D03*
D346*
X0218925Y0242109D03*
D347*
X0218955Y0241974D03*
D348*
X0219015Y0241839D03*
D349*
X0219045Y0241809D03*
D350*
X0219075Y0253059D03*
D351*
X0219075Y0241674D03*
D352*
X0219105Y0241674D03*
X0221265Y0240024D03*
X0221295Y0240024D03*
D353*
X0219135Y0241584D03*
D354*
X0219165Y0253149D03*
X0219195Y0253149D03*
D355*
X0219225Y0253179D03*
D356*
X0219225Y0241389D03*
X0219255Y0241389D03*
D357*
X0219285Y0241209D03*
D358*
X0219315Y0253269D03*
D359*
X0219315Y0241224D03*
D360*
X0219345Y0241089D03*
D361*
X0219465Y0240789D03*
D362*
X0219495Y0240774D03*
D363*
X0219525Y0240639D03*
D364*
X0219555Y0240609D03*
D365*
X0219585Y0240489D03*
D366*
X0219615Y0240474D03*
X0219645Y0240474D03*
D367*
X0219675Y0240309D03*
D368*
X0219705Y0240324D03*
D369*
X0219735Y0253629D03*
X0219765Y0253629D03*
D370*
X0219765Y0240174D03*
X0219735Y0240174D03*
D371*
X0219795Y0240024D03*
D372*
X0219825Y0240009D03*
D373*
X0219855Y0239889D03*
D374*
X0219885Y0239889D03*
D375*
X0219915Y0239724D03*
D376*
X0219945Y0239724D03*
D377*
X0219975Y0239589D03*
X0220485Y0240939D03*
X0220515Y0240939D03*
D378*
X0220005Y0239589D03*
D379*
X0220035Y0239454D03*
D380*
X0220065Y0239409D03*
X0220125Y0239559D03*
D381*
X0220095Y0239349D03*
D382*
X0220155Y0239589D03*
D383*
X0220185Y0239784D03*
D384*
X0220215Y0239799D03*
D385*
X0220245Y0240009D03*
D386*
X0220275Y0240039D03*
D387*
X0220305Y0240234D03*
D388*
X0220335Y0240249D03*
D389*
X0220365Y0240459D03*
D390*
X0220395Y0240474D03*
D391*
X0220425Y0240684D03*
D392*
X0220455Y0240699D03*
D393*
X0220545Y0240984D03*
D394*
X0220575Y0241149D03*
D395*
X0220605Y0241179D03*
D396*
X0220635Y0241389D03*
D397*
X0220665Y0241434D03*
D398*
X0220695Y0241449D03*
D399*
X0220725Y0241434D03*
D400*
X0220755Y0241269D03*
D401*
X0220785Y0241269D03*
D402*
X0220815Y0241134D03*
X0220845Y0241134D03*
D403*
X0220875Y0240954D03*
X0220905Y0240954D03*
D404*
X0220935Y0240834D03*
X0220965Y0240834D03*
D405*
X0220995Y0240804D03*
D406*
X0221025Y0240654D03*
D407*
X0221055Y0240624D03*
D408*
X0221145Y0240354D03*
D409*
X0221205Y0240204D03*
D410*
X0221235Y0240204D03*
D411*
X0221325Y0239889D03*
X0221355Y0239889D03*
D412*
X0221445Y0239604D03*
D413*
X0221475Y0239589D03*
D414*
X0221955Y0238449D03*
D415*
X0113757Y0060680D02*
X0114857Y0059580D01*
X0113757Y0060680D02*
X0113757Y0064580D01*
X0113757Y0068480D01*
X0114857Y0069580D01*
X0114757Y0064580D02*
X0113757Y0064580D01*
X0122257Y0064580D02*
X0125257Y0064580D01*
X0132757Y0064580D02*
X0133757Y0064580D01*
X0133757Y0060680D01*
X0132657Y0059580D01*
X0133243Y0054603D02*
X0127338Y0054603D01*
X0127337Y0054603D02*
X0127301Y0054530D01*
X0127260Y0054459D01*
X0127217Y0054389D01*
X0127170Y0054322D01*
X0127120Y0054257D01*
X0127067Y0054195D01*
X0127012Y0054135D01*
X0126953Y0054078D01*
X0126892Y0054023D01*
X0126828Y0053972D01*
X0126762Y0053923D01*
X0126694Y0053878D01*
X0126624Y0053836D01*
X0126552Y0053797D01*
X0126478Y0053761D01*
X0126403Y0053730D01*
X0126326Y0053701D01*
X0126248Y0053677D01*
X0126169Y0053656D01*
X0126089Y0053639D01*
X0126008Y0053625D01*
X0125927Y0053616D01*
X0125845Y0053610D01*
X0125763Y0053608D01*
X0125681Y0053610D01*
X0125599Y0053616D01*
X0125518Y0053625D01*
X0125437Y0053639D01*
X0125357Y0053656D01*
X0125278Y0053677D01*
X0125200Y0053701D01*
X0125123Y0053730D01*
X0125048Y0053761D01*
X0124974Y0053797D01*
X0124902Y0053836D01*
X0124832Y0053878D01*
X0124764Y0053923D01*
X0124698Y0053972D01*
X0124634Y0054023D01*
X0124573Y0054078D01*
X0124514Y0054135D01*
X0124459Y0054195D01*
X0124406Y0054257D01*
X0124356Y0054322D01*
X0124309Y0054389D01*
X0124266Y0054459D01*
X0124225Y0054530D01*
X0124189Y0054603D01*
X0124188Y0054603D02*
X0118283Y0054603D01*
X0118283Y0047910D01*
X0124188Y0047910D01*
X0124189Y0047910D02*
X0124225Y0047983D01*
X0124266Y0048054D01*
X0124309Y0048124D01*
X0124356Y0048191D01*
X0124406Y0048256D01*
X0124459Y0048318D01*
X0124514Y0048378D01*
X0124573Y0048435D01*
X0124634Y0048490D01*
X0124698Y0048541D01*
X0124764Y0048590D01*
X0124832Y0048635D01*
X0124902Y0048677D01*
X0124974Y0048716D01*
X0125048Y0048752D01*
X0125123Y0048783D01*
X0125200Y0048812D01*
X0125278Y0048836D01*
X0125357Y0048857D01*
X0125437Y0048874D01*
X0125518Y0048888D01*
X0125599Y0048897D01*
X0125681Y0048903D01*
X0125763Y0048905D01*
X0125845Y0048903D01*
X0125927Y0048897D01*
X0126008Y0048888D01*
X0126089Y0048874D01*
X0126169Y0048857D01*
X0126248Y0048836D01*
X0126326Y0048812D01*
X0126403Y0048783D01*
X0126478Y0048752D01*
X0126552Y0048716D01*
X0126624Y0048677D01*
X0126694Y0048635D01*
X0126762Y0048590D01*
X0126828Y0048541D01*
X0126892Y0048490D01*
X0126953Y0048435D01*
X0127012Y0048378D01*
X0127067Y0048318D01*
X0127120Y0048256D01*
X0127170Y0048191D01*
X0127217Y0048124D01*
X0127260Y0048054D01*
X0127301Y0047983D01*
X0127337Y0047910D01*
X0127338Y0047910D02*
X0133243Y0047910D01*
X0133243Y0054603D01*
X0133757Y0064580D02*
X0133757Y0068480D01*
X0132657Y0069580D01*
D416*
X0226979Y0073621D02*
X0226979Y0053936D01*
X0246664Y0053936D01*
X0246664Y0069684D01*
X0242727Y0073621D01*
X0226979Y0073621D01*
X0226979Y0076180D02*
X0226979Y0095865D01*
X0242727Y0095865D01*
X0246664Y0091928D01*
X0246664Y0095865D01*
X0242727Y0095865D01*
X0246664Y0098424D02*
X0246664Y0114172D01*
X0242727Y0118109D01*
X0226979Y0118109D01*
X0226979Y0098424D01*
X0246664Y0098424D01*
X0247816Y0096605D02*
X0247818Y0096652D01*
X0247824Y0096698D01*
X0247833Y0096744D01*
X0247847Y0096788D01*
X0247864Y0096832D01*
X0247885Y0096873D01*
X0247909Y0096913D01*
X0247936Y0096951D01*
X0247967Y0096986D01*
X0248000Y0097019D01*
X0248036Y0097049D01*
X0248075Y0097075D01*
X0248115Y0097099D01*
X0248157Y0097118D01*
X0248201Y0097135D01*
X0248246Y0097147D01*
X0248292Y0097156D01*
X0248338Y0097161D01*
X0248385Y0097162D01*
X0248431Y0097159D01*
X0248477Y0097152D01*
X0248523Y0097141D01*
X0248567Y0097127D01*
X0248610Y0097109D01*
X0248651Y0097087D01*
X0248691Y0097062D01*
X0248728Y0097034D01*
X0248763Y0097003D01*
X0248795Y0096969D01*
X0248824Y0096932D01*
X0248849Y0096894D01*
X0248872Y0096853D01*
X0248891Y0096810D01*
X0248906Y0096766D01*
X0248918Y0096721D01*
X0248926Y0096675D01*
X0248930Y0096628D01*
X0248930Y0096582D01*
X0248926Y0096535D01*
X0248918Y0096489D01*
X0248906Y0096444D01*
X0248891Y0096400D01*
X0248872Y0096357D01*
X0248849Y0096316D01*
X0248824Y0096278D01*
X0248795Y0096241D01*
X0248763Y0096207D01*
X0248728Y0096176D01*
X0248691Y0096148D01*
X0248652Y0096123D01*
X0248610Y0096101D01*
X0248567Y0096083D01*
X0248523Y0096069D01*
X0248477Y0096058D01*
X0248431Y0096051D01*
X0248385Y0096048D01*
X0248338Y0096049D01*
X0248292Y0096054D01*
X0248246Y0096063D01*
X0248201Y0096075D01*
X0248157Y0096092D01*
X0248115Y0096111D01*
X0248075Y0096135D01*
X0248036Y0096161D01*
X0248000Y0096191D01*
X0247967Y0096224D01*
X0247936Y0096259D01*
X0247909Y0096297D01*
X0247885Y0096337D01*
X0247864Y0096378D01*
X0247847Y0096422D01*
X0247833Y0096466D01*
X0247824Y0096512D01*
X0247818Y0096558D01*
X0247816Y0096605D01*
X0246664Y0091928D02*
X0246664Y0076180D01*
X0226979Y0076180D01*
X0228554Y0086023D02*
X0228556Y0086226D01*
X0228564Y0086429D01*
X0228576Y0086631D01*
X0228594Y0086833D01*
X0228616Y0087035D01*
X0228643Y0087236D01*
X0228676Y0087437D01*
X0228713Y0087636D01*
X0228755Y0087835D01*
X0228802Y0088032D01*
X0228853Y0088228D01*
X0228910Y0088423D01*
X0228971Y0088617D01*
X0229037Y0088808D01*
X0229108Y0088999D01*
X0229183Y0089187D01*
X0229263Y0089374D01*
X0229348Y0089558D01*
X0229437Y0089740D01*
X0229530Y0089921D01*
X0229628Y0090098D01*
X0229730Y0090274D01*
X0229837Y0090446D01*
X0229947Y0090616D01*
X0230062Y0090784D01*
X0230181Y0090948D01*
X0230304Y0091110D01*
X0230431Y0091268D01*
X0230561Y0091423D01*
X0230696Y0091575D01*
X0230834Y0091724D01*
X0230976Y0091869D01*
X0231121Y0092011D01*
X0231270Y0092149D01*
X0231422Y0092284D01*
X0231577Y0092414D01*
X0231735Y0092541D01*
X0231897Y0092664D01*
X0232061Y0092783D01*
X0232229Y0092898D01*
X0232399Y0093008D01*
X0232571Y0093115D01*
X0232747Y0093217D01*
X0232924Y0093315D01*
X0233105Y0093408D01*
X0233287Y0093497D01*
X0233471Y0093582D01*
X0233658Y0093662D01*
X0233846Y0093737D01*
X0234037Y0093808D01*
X0234228Y0093874D01*
X0234422Y0093935D01*
X0234617Y0093992D01*
X0234813Y0094043D01*
X0235010Y0094090D01*
X0235209Y0094132D01*
X0235408Y0094169D01*
X0235609Y0094202D01*
X0235810Y0094229D01*
X0236012Y0094251D01*
X0236214Y0094269D01*
X0236416Y0094281D01*
X0236619Y0094289D01*
X0236822Y0094291D01*
X0237025Y0094289D01*
X0237228Y0094281D01*
X0237430Y0094269D01*
X0237632Y0094251D01*
X0237834Y0094229D01*
X0238035Y0094202D01*
X0238236Y0094169D01*
X0238435Y0094132D01*
X0238634Y0094090D01*
X0238831Y0094043D01*
X0239027Y0093992D01*
X0239222Y0093935D01*
X0239416Y0093874D01*
X0239607Y0093808D01*
X0239798Y0093737D01*
X0239986Y0093662D01*
X0240173Y0093582D01*
X0240357Y0093497D01*
X0240539Y0093408D01*
X0240720Y0093315D01*
X0240897Y0093217D01*
X0241073Y0093115D01*
X0241245Y0093008D01*
X0241415Y0092898D01*
X0241583Y0092783D01*
X0241747Y0092664D01*
X0241909Y0092541D01*
X0242067Y0092414D01*
X0242222Y0092284D01*
X0242374Y0092149D01*
X0242523Y0092011D01*
X0242668Y0091869D01*
X0242810Y0091724D01*
X0242948Y0091575D01*
X0243083Y0091423D01*
X0243213Y0091268D01*
X0243340Y0091110D01*
X0243463Y0090948D01*
X0243582Y0090784D01*
X0243697Y0090616D01*
X0243807Y0090446D01*
X0243914Y0090274D01*
X0244016Y0090098D01*
X0244114Y0089921D01*
X0244207Y0089740D01*
X0244296Y0089558D01*
X0244381Y0089374D01*
X0244461Y0089187D01*
X0244536Y0088999D01*
X0244607Y0088808D01*
X0244673Y0088617D01*
X0244734Y0088423D01*
X0244791Y0088228D01*
X0244842Y0088032D01*
X0244889Y0087835D01*
X0244931Y0087636D01*
X0244968Y0087437D01*
X0245001Y0087236D01*
X0245028Y0087035D01*
X0245050Y0086833D01*
X0245068Y0086631D01*
X0245080Y0086429D01*
X0245088Y0086226D01*
X0245090Y0086023D01*
X0245088Y0085820D01*
X0245080Y0085617D01*
X0245068Y0085415D01*
X0245050Y0085213D01*
X0245028Y0085011D01*
X0245001Y0084810D01*
X0244968Y0084609D01*
X0244931Y0084410D01*
X0244889Y0084211D01*
X0244842Y0084014D01*
X0244791Y0083818D01*
X0244734Y0083623D01*
X0244673Y0083429D01*
X0244607Y0083238D01*
X0244536Y0083047D01*
X0244461Y0082859D01*
X0244381Y0082672D01*
X0244296Y0082488D01*
X0244207Y0082306D01*
X0244114Y0082125D01*
X0244016Y0081948D01*
X0243914Y0081772D01*
X0243807Y0081600D01*
X0243697Y0081430D01*
X0243582Y0081262D01*
X0243463Y0081098D01*
X0243340Y0080936D01*
X0243213Y0080778D01*
X0243083Y0080623D01*
X0242948Y0080471D01*
X0242810Y0080322D01*
X0242668Y0080177D01*
X0242523Y0080035D01*
X0242374Y0079897D01*
X0242222Y0079762D01*
X0242067Y0079632D01*
X0241909Y0079505D01*
X0241747Y0079382D01*
X0241583Y0079263D01*
X0241415Y0079148D01*
X0241245Y0079038D01*
X0241073Y0078931D01*
X0240897Y0078829D01*
X0240720Y0078731D01*
X0240539Y0078638D01*
X0240357Y0078549D01*
X0240173Y0078464D01*
X0239986Y0078384D01*
X0239798Y0078309D01*
X0239607Y0078238D01*
X0239416Y0078172D01*
X0239222Y0078111D01*
X0239027Y0078054D01*
X0238831Y0078003D01*
X0238634Y0077956D01*
X0238435Y0077914D01*
X0238236Y0077877D01*
X0238035Y0077844D01*
X0237834Y0077817D01*
X0237632Y0077795D01*
X0237430Y0077777D01*
X0237228Y0077765D01*
X0237025Y0077757D01*
X0236822Y0077755D01*
X0236619Y0077757D01*
X0236416Y0077765D01*
X0236214Y0077777D01*
X0236012Y0077795D01*
X0235810Y0077817D01*
X0235609Y0077844D01*
X0235408Y0077877D01*
X0235209Y0077914D01*
X0235010Y0077956D01*
X0234813Y0078003D01*
X0234617Y0078054D01*
X0234422Y0078111D01*
X0234228Y0078172D01*
X0234037Y0078238D01*
X0233846Y0078309D01*
X0233658Y0078384D01*
X0233471Y0078464D01*
X0233287Y0078549D01*
X0233105Y0078638D01*
X0232924Y0078731D01*
X0232747Y0078829D01*
X0232571Y0078931D01*
X0232399Y0079038D01*
X0232229Y0079148D01*
X0232061Y0079263D01*
X0231897Y0079382D01*
X0231735Y0079505D01*
X0231577Y0079632D01*
X0231422Y0079762D01*
X0231270Y0079897D01*
X0231121Y0080035D01*
X0230976Y0080177D01*
X0230834Y0080322D01*
X0230696Y0080471D01*
X0230561Y0080623D01*
X0230431Y0080778D01*
X0230304Y0080936D01*
X0230181Y0081098D01*
X0230062Y0081262D01*
X0229947Y0081430D01*
X0229837Y0081600D01*
X0229730Y0081772D01*
X0229628Y0081948D01*
X0229530Y0082125D01*
X0229437Y0082306D01*
X0229348Y0082488D01*
X0229263Y0082672D01*
X0229183Y0082859D01*
X0229108Y0083047D01*
X0229037Y0083238D01*
X0228971Y0083429D01*
X0228910Y0083623D01*
X0228853Y0083818D01*
X0228802Y0084014D01*
X0228755Y0084211D01*
X0228713Y0084410D01*
X0228676Y0084609D01*
X0228643Y0084810D01*
X0228616Y0085011D01*
X0228594Y0085213D01*
X0228576Y0085415D01*
X0228564Y0085617D01*
X0228556Y0085820D01*
X0228554Y0086023D01*
X0242727Y0073621D02*
X0246664Y0073621D01*
X0246664Y0069684D01*
X0247816Y0074361D02*
X0247818Y0074408D01*
X0247824Y0074454D01*
X0247833Y0074500D01*
X0247847Y0074544D01*
X0247864Y0074588D01*
X0247885Y0074629D01*
X0247909Y0074669D01*
X0247936Y0074707D01*
X0247967Y0074742D01*
X0248000Y0074775D01*
X0248036Y0074805D01*
X0248075Y0074831D01*
X0248115Y0074855D01*
X0248157Y0074874D01*
X0248201Y0074891D01*
X0248246Y0074903D01*
X0248292Y0074912D01*
X0248338Y0074917D01*
X0248385Y0074918D01*
X0248431Y0074915D01*
X0248477Y0074908D01*
X0248523Y0074897D01*
X0248567Y0074883D01*
X0248610Y0074865D01*
X0248651Y0074843D01*
X0248691Y0074818D01*
X0248728Y0074790D01*
X0248763Y0074759D01*
X0248795Y0074725D01*
X0248824Y0074688D01*
X0248849Y0074650D01*
X0248872Y0074609D01*
X0248891Y0074566D01*
X0248906Y0074522D01*
X0248918Y0074477D01*
X0248926Y0074431D01*
X0248930Y0074384D01*
X0248930Y0074338D01*
X0248926Y0074291D01*
X0248918Y0074245D01*
X0248906Y0074200D01*
X0248891Y0074156D01*
X0248872Y0074113D01*
X0248849Y0074072D01*
X0248824Y0074034D01*
X0248795Y0073997D01*
X0248763Y0073963D01*
X0248728Y0073932D01*
X0248691Y0073904D01*
X0248652Y0073879D01*
X0248610Y0073857D01*
X0248567Y0073839D01*
X0248523Y0073825D01*
X0248477Y0073814D01*
X0248431Y0073807D01*
X0248385Y0073804D01*
X0248338Y0073805D01*
X0248292Y0073810D01*
X0248246Y0073819D01*
X0248201Y0073831D01*
X0248157Y0073848D01*
X0248115Y0073867D01*
X0248075Y0073891D01*
X0248036Y0073917D01*
X0248000Y0073947D01*
X0247967Y0073980D01*
X0247936Y0074015D01*
X0247909Y0074053D01*
X0247885Y0074093D01*
X0247864Y0074134D01*
X0247847Y0074178D01*
X0247833Y0074222D01*
X0247824Y0074268D01*
X0247818Y0074314D01*
X0247816Y0074361D01*
X0228554Y0063779D02*
X0228556Y0063982D01*
X0228564Y0064185D01*
X0228576Y0064387D01*
X0228594Y0064589D01*
X0228616Y0064791D01*
X0228643Y0064992D01*
X0228676Y0065193D01*
X0228713Y0065392D01*
X0228755Y0065591D01*
X0228802Y0065788D01*
X0228853Y0065984D01*
X0228910Y0066179D01*
X0228971Y0066373D01*
X0229037Y0066564D01*
X0229108Y0066755D01*
X0229183Y0066943D01*
X0229263Y0067130D01*
X0229348Y0067314D01*
X0229437Y0067496D01*
X0229530Y0067677D01*
X0229628Y0067854D01*
X0229730Y0068030D01*
X0229837Y0068202D01*
X0229947Y0068372D01*
X0230062Y0068540D01*
X0230181Y0068704D01*
X0230304Y0068866D01*
X0230431Y0069024D01*
X0230561Y0069179D01*
X0230696Y0069331D01*
X0230834Y0069480D01*
X0230976Y0069625D01*
X0231121Y0069767D01*
X0231270Y0069905D01*
X0231422Y0070040D01*
X0231577Y0070170D01*
X0231735Y0070297D01*
X0231897Y0070420D01*
X0232061Y0070539D01*
X0232229Y0070654D01*
X0232399Y0070764D01*
X0232571Y0070871D01*
X0232747Y0070973D01*
X0232924Y0071071D01*
X0233105Y0071164D01*
X0233287Y0071253D01*
X0233471Y0071338D01*
X0233658Y0071418D01*
X0233846Y0071493D01*
X0234037Y0071564D01*
X0234228Y0071630D01*
X0234422Y0071691D01*
X0234617Y0071748D01*
X0234813Y0071799D01*
X0235010Y0071846D01*
X0235209Y0071888D01*
X0235408Y0071925D01*
X0235609Y0071958D01*
X0235810Y0071985D01*
X0236012Y0072007D01*
X0236214Y0072025D01*
X0236416Y0072037D01*
X0236619Y0072045D01*
X0236822Y0072047D01*
X0237025Y0072045D01*
X0237228Y0072037D01*
X0237430Y0072025D01*
X0237632Y0072007D01*
X0237834Y0071985D01*
X0238035Y0071958D01*
X0238236Y0071925D01*
X0238435Y0071888D01*
X0238634Y0071846D01*
X0238831Y0071799D01*
X0239027Y0071748D01*
X0239222Y0071691D01*
X0239416Y0071630D01*
X0239607Y0071564D01*
X0239798Y0071493D01*
X0239986Y0071418D01*
X0240173Y0071338D01*
X0240357Y0071253D01*
X0240539Y0071164D01*
X0240720Y0071071D01*
X0240897Y0070973D01*
X0241073Y0070871D01*
X0241245Y0070764D01*
X0241415Y0070654D01*
X0241583Y0070539D01*
X0241747Y0070420D01*
X0241909Y0070297D01*
X0242067Y0070170D01*
X0242222Y0070040D01*
X0242374Y0069905D01*
X0242523Y0069767D01*
X0242668Y0069625D01*
X0242810Y0069480D01*
X0242948Y0069331D01*
X0243083Y0069179D01*
X0243213Y0069024D01*
X0243340Y0068866D01*
X0243463Y0068704D01*
X0243582Y0068540D01*
X0243697Y0068372D01*
X0243807Y0068202D01*
X0243914Y0068030D01*
X0244016Y0067854D01*
X0244114Y0067677D01*
X0244207Y0067496D01*
X0244296Y0067314D01*
X0244381Y0067130D01*
X0244461Y0066943D01*
X0244536Y0066755D01*
X0244607Y0066564D01*
X0244673Y0066373D01*
X0244734Y0066179D01*
X0244791Y0065984D01*
X0244842Y0065788D01*
X0244889Y0065591D01*
X0244931Y0065392D01*
X0244968Y0065193D01*
X0245001Y0064992D01*
X0245028Y0064791D01*
X0245050Y0064589D01*
X0245068Y0064387D01*
X0245080Y0064185D01*
X0245088Y0063982D01*
X0245090Y0063779D01*
X0245088Y0063576D01*
X0245080Y0063373D01*
X0245068Y0063171D01*
X0245050Y0062969D01*
X0245028Y0062767D01*
X0245001Y0062566D01*
X0244968Y0062365D01*
X0244931Y0062166D01*
X0244889Y0061967D01*
X0244842Y0061770D01*
X0244791Y0061574D01*
X0244734Y0061379D01*
X0244673Y0061185D01*
X0244607Y0060994D01*
X0244536Y0060803D01*
X0244461Y0060615D01*
X0244381Y0060428D01*
X0244296Y0060244D01*
X0244207Y0060062D01*
X0244114Y0059881D01*
X0244016Y0059704D01*
X0243914Y0059528D01*
X0243807Y0059356D01*
X0243697Y0059186D01*
X0243582Y0059018D01*
X0243463Y0058854D01*
X0243340Y0058692D01*
X0243213Y0058534D01*
X0243083Y0058379D01*
X0242948Y0058227D01*
X0242810Y0058078D01*
X0242668Y0057933D01*
X0242523Y0057791D01*
X0242374Y0057653D01*
X0242222Y0057518D01*
X0242067Y0057388D01*
X0241909Y0057261D01*
X0241747Y0057138D01*
X0241583Y0057019D01*
X0241415Y0056904D01*
X0241245Y0056794D01*
X0241073Y0056687D01*
X0240897Y0056585D01*
X0240720Y0056487D01*
X0240539Y0056394D01*
X0240357Y0056305D01*
X0240173Y0056220D01*
X0239986Y0056140D01*
X0239798Y0056065D01*
X0239607Y0055994D01*
X0239416Y0055928D01*
X0239222Y0055867D01*
X0239027Y0055810D01*
X0238831Y0055759D01*
X0238634Y0055712D01*
X0238435Y0055670D01*
X0238236Y0055633D01*
X0238035Y0055600D01*
X0237834Y0055573D01*
X0237632Y0055551D01*
X0237430Y0055533D01*
X0237228Y0055521D01*
X0237025Y0055513D01*
X0236822Y0055511D01*
X0236619Y0055513D01*
X0236416Y0055521D01*
X0236214Y0055533D01*
X0236012Y0055551D01*
X0235810Y0055573D01*
X0235609Y0055600D01*
X0235408Y0055633D01*
X0235209Y0055670D01*
X0235010Y0055712D01*
X0234813Y0055759D01*
X0234617Y0055810D01*
X0234422Y0055867D01*
X0234228Y0055928D01*
X0234037Y0055994D01*
X0233846Y0056065D01*
X0233658Y0056140D01*
X0233471Y0056220D01*
X0233287Y0056305D01*
X0233105Y0056394D01*
X0232924Y0056487D01*
X0232747Y0056585D01*
X0232571Y0056687D01*
X0232399Y0056794D01*
X0232229Y0056904D01*
X0232061Y0057019D01*
X0231897Y0057138D01*
X0231735Y0057261D01*
X0231577Y0057388D01*
X0231422Y0057518D01*
X0231270Y0057653D01*
X0231121Y0057791D01*
X0230976Y0057933D01*
X0230834Y0058078D01*
X0230696Y0058227D01*
X0230561Y0058379D01*
X0230431Y0058534D01*
X0230304Y0058692D01*
X0230181Y0058854D01*
X0230062Y0059018D01*
X0229947Y0059186D01*
X0229837Y0059356D01*
X0229730Y0059528D01*
X0229628Y0059704D01*
X0229530Y0059881D01*
X0229437Y0060062D01*
X0229348Y0060244D01*
X0229263Y0060428D01*
X0229183Y0060615D01*
X0229108Y0060803D01*
X0229037Y0060994D01*
X0228971Y0061185D01*
X0228910Y0061379D01*
X0228853Y0061574D01*
X0228802Y0061770D01*
X0228755Y0061967D01*
X0228713Y0062166D01*
X0228676Y0062365D01*
X0228643Y0062566D01*
X0228616Y0062767D01*
X0228594Y0062969D01*
X0228576Y0063171D01*
X0228564Y0063373D01*
X0228556Y0063576D01*
X0228554Y0063779D01*
X0226979Y0051377D02*
X0226979Y0031692D01*
X0246664Y0031692D01*
X0246664Y0047440D01*
X0242727Y0051377D01*
X0226979Y0051377D01*
X0228554Y0041534D02*
X0228556Y0041737D01*
X0228564Y0041940D01*
X0228576Y0042142D01*
X0228594Y0042344D01*
X0228616Y0042546D01*
X0228643Y0042747D01*
X0228676Y0042948D01*
X0228713Y0043147D01*
X0228755Y0043346D01*
X0228802Y0043543D01*
X0228853Y0043739D01*
X0228910Y0043934D01*
X0228971Y0044128D01*
X0229037Y0044319D01*
X0229108Y0044510D01*
X0229183Y0044698D01*
X0229263Y0044885D01*
X0229348Y0045069D01*
X0229437Y0045251D01*
X0229530Y0045432D01*
X0229628Y0045609D01*
X0229730Y0045785D01*
X0229837Y0045957D01*
X0229947Y0046127D01*
X0230062Y0046295D01*
X0230181Y0046459D01*
X0230304Y0046621D01*
X0230431Y0046779D01*
X0230561Y0046934D01*
X0230696Y0047086D01*
X0230834Y0047235D01*
X0230976Y0047380D01*
X0231121Y0047522D01*
X0231270Y0047660D01*
X0231422Y0047795D01*
X0231577Y0047925D01*
X0231735Y0048052D01*
X0231897Y0048175D01*
X0232061Y0048294D01*
X0232229Y0048409D01*
X0232399Y0048519D01*
X0232571Y0048626D01*
X0232747Y0048728D01*
X0232924Y0048826D01*
X0233105Y0048919D01*
X0233287Y0049008D01*
X0233471Y0049093D01*
X0233658Y0049173D01*
X0233846Y0049248D01*
X0234037Y0049319D01*
X0234228Y0049385D01*
X0234422Y0049446D01*
X0234617Y0049503D01*
X0234813Y0049554D01*
X0235010Y0049601D01*
X0235209Y0049643D01*
X0235408Y0049680D01*
X0235609Y0049713D01*
X0235810Y0049740D01*
X0236012Y0049762D01*
X0236214Y0049780D01*
X0236416Y0049792D01*
X0236619Y0049800D01*
X0236822Y0049802D01*
X0237025Y0049800D01*
X0237228Y0049792D01*
X0237430Y0049780D01*
X0237632Y0049762D01*
X0237834Y0049740D01*
X0238035Y0049713D01*
X0238236Y0049680D01*
X0238435Y0049643D01*
X0238634Y0049601D01*
X0238831Y0049554D01*
X0239027Y0049503D01*
X0239222Y0049446D01*
X0239416Y0049385D01*
X0239607Y0049319D01*
X0239798Y0049248D01*
X0239986Y0049173D01*
X0240173Y0049093D01*
X0240357Y0049008D01*
X0240539Y0048919D01*
X0240720Y0048826D01*
X0240897Y0048728D01*
X0241073Y0048626D01*
X0241245Y0048519D01*
X0241415Y0048409D01*
X0241583Y0048294D01*
X0241747Y0048175D01*
X0241909Y0048052D01*
X0242067Y0047925D01*
X0242222Y0047795D01*
X0242374Y0047660D01*
X0242523Y0047522D01*
X0242668Y0047380D01*
X0242810Y0047235D01*
X0242948Y0047086D01*
X0243083Y0046934D01*
X0243213Y0046779D01*
X0243340Y0046621D01*
X0243463Y0046459D01*
X0243582Y0046295D01*
X0243697Y0046127D01*
X0243807Y0045957D01*
X0243914Y0045785D01*
X0244016Y0045609D01*
X0244114Y0045432D01*
X0244207Y0045251D01*
X0244296Y0045069D01*
X0244381Y0044885D01*
X0244461Y0044698D01*
X0244536Y0044510D01*
X0244607Y0044319D01*
X0244673Y0044128D01*
X0244734Y0043934D01*
X0244791Y0043739D01*
X0244842Y0043543D01*
X0244889Y0043346D01*
X0244931Y0043147D01*
X0244968Y0042948D01*
X0245001Y0042747D01*
X0245028Y0042546D01*
X0245050Y0042344D01*
X0245068Y0042142D01*
X0245080Y0041940D01*
X0245088Y0041737D01*
X0245090Y0041534D01*
X0245088Y0041331D01*
X0245080Y0041128D01*
X0245068Y0040926D01*
X0245050Y0040724D01*
X0245028Y0040522D01*
X0245001Y0040321D01*
X0244968Y0040120D01*
X0244931Y0039921D01*
X0244889Y0039722D01*
X0244842Y0039525D01*
X0244791Y0039329D01*
X0244734Y0039134D01*
X0244673Y0038940D01*
X0244607Y0038749D01*
X0244536Y0038558D01*
X0244461Y0038370D01*
X0244381Y0038183D01*
X0244296Y0037999D01*
X0244207Y0037817D01*
X0244114Y0037636D01*
X0244016Y0037459D01*
X0243914Y0037283D01*
X0243807Y0037111D01*
X0243697Y0036941D01*
X0243582Y0036773D01*
X0243463Y0036609D01*
X0243340Y0036447D01*
X0243213Y0036289D01*
X0243083Y0036134D01*
X0242948Y0035982D01*
X0242810Y0035833D01*
X0242668Y0035688D01*
X0242523Y0035546D01*
X0242374Y0035408D01*
X0242222Y0035273D01*
X0242067Y0035143D01*
X0241909Y0035016D01*
X0241747Y0034893D01*
X0241583Y0034774D01*
X0241415Y0034659D01*
X0241245Y0034549D01*
X0241073Y0034442D01*
X0240897Y0034340D01*
X0240720Y0034242D01*
X0240539Y0034149D01*
X0240357Y0034060D01*
X0240173Y0033975D01*
X0239986Y0033895D01*
X0239798Y0033820D01*
X0239607Y0033749D01*
X0239416Y0033683D01*
X0239222Y0033622D01*
X0239027Y0033565D01*
X0238831Y0033514D01*
X0238634Y0033467D01*
X0238435Y0033425D01*
X0238236Y0033388D01*
X0238035Y0033355D01*
X0237834Y0033328D01*
X0237632Y0033306D01*
X0237430Y0033288D01*
X0237228Y0033276D01*
X0237025Y0033268D01*
X0236822Y0033266D01*
X0236619Y0033268D01*
X0236416Y0033276D01*
X0236214Y0033288D01*
X0236012Y0033306D01*
X0235810Y0033328D01*
X0235609Y0033355D01*
X0235408Y0033388D01*
X0235209Y0033425D01*
X0235010Y0033467D01*
X0234813Y0033514D01*
X0234617Y0033565D01*
X0234422Y0033622D01*
X0234228Y0033683D01*
X0234037Y0033749D01*
X0233846Y0033820D01*
X0233658Y0033895D01*
X0233471Y0033975D01*
X0233287Y0034060D01*
X0233105Y0034149D01*
X0232924Y0034242D01*
X0232747Y0034340D01*
X0232571Y0034442D01*
X0232399Y0034549D01*
X0232229Y0034659D01*
X0232061Y0034774D01*
X0231897Y0034893D01*
X0231735Y0035016D01*
X0231577Y0035143D01*
X0231422Y0035273D01*
X0231270Y0035408D01*
X0231121Y0035546D01*
X0230976Y0035688D01*
X0230834Y0035833D01*
X0230696Y0035982D01*
X0230561Y0036134D01*
X0230431Y0036289D01*
X0230304Y0036447D01*
X0230181Y0036609D01*
X0230062Y0036773D01*
X0229947Y0036941D01*
X0229837Y0037111D01*
X0229730Y0037283D01*
X0229628Y0037459D01*
X0229530Y0037636D01*
X0229437Y0037817D01*
X0229348Y0037999D01*
X0229263Y0038183D01*
X0229183Y0038370D01*
X0229108Y0038558D01*
X0229037Y0038749D01*
X0228971Y0038940D01*
X0228910Y0039134D01*
X0228853Y0039329D01*
X0228802Y0039525D01*
X0228755Y0039722D01*
X0228713Y0039921D01*
X0228676Y0040120D01*
X0228643Y0040321D01*
X0228616Y0040522D01*
X0228594Y0040724D01*
X0228576Y0040926D01*
X0228564Y0041128D01*
X0228556Y0041331D01*
X0228554Y0041534D01*
X0226979Y0029133D02*
X0226979Y0009448D01*
X0246664Y0009448D01*
X0246664Y0025196D01*
X0242727Y0029133D01*
X0226979Y0029133D01*
X0228554Y0019290D02*
X0228556Y0019493D01*
X0228564Y0019696D01*
X0228576Y0019898D01*
X0228594Y0020100D01*
X0228616Y0020302D01*
X0228643Y0020503D01*
X0228676Y0020704D01*
X0228713Y0020903D01*
X0228755Y0021102D01*
X0228802Y0021299D01*
X0228853Y0021495D01*
X0228910Y0021690D01*
X0228971Y0021884D01*
X0229037Y0022075D01*
X0229108Y0022266D01*
X0229183Y0022454D01*
X0229263Y0022641D01*
X0229348Y0022825D01*
X0229437Y0023007D01*
X0229530Y0023188D01*
X0229628Y0023365D01*
X0229730Y0023541D01*
X0229837Y0023713D01*
X0229947Y0023883D01*
X0230062Y0024051D01*
X0230181Y0024215D01*
X0230304Y0024377D01*
X0230431Y0024535D01*
X0230561Y0024690D01*
X0230696Y0024842D01*
X0230834Y0024991D01*
X0230976Y0025136D01*
X0231121Y0025278D01*
X0231270Y0025416D01*
X0231422Y0025551D01*
X0231577Y0025681D01*
X0231735Y0025808D01*
X0231897Y0025931D01*
X0232061Y0026050D01*
X0232229Y0026165D01*
X0232399Y0026275D01*
X0232571Y0026382D01*
X0232747Y0026484D01*
X0232924Y0026582D01*
X0233105Y0026675D01*
X0233287Y0026764D01*
X0233471Y0026849D01*
X0233658Y0026929D01*
X0233846Y0027004D01*
X0234037Y0027075D01*
X0234228Y0027141D01*
X0234422Y0027202D01*
X0234617Y0027259D01*
X0234813Y0027310D01*
X0235010Y0027357D01*
X0235209Y0027399D01*
X0235408Y0027436D01*
X0235609Y0027469D01*
X0235810Y0027496D01*
X0236012Y0027518D01*
X0236214Y0027536D01*
X0236416Y0027548D01*
X0236619Y0027556D01*
X0236822Y0027558D01*
X0237025Y0027556D01*
X0237228Y0027548D01*
X0237430Y0027536D01*
X0237632Y0027518D01*
X0237834Y0027496D01*
X0238035Y0027469D01*
X0238236Y0027436D01*
X0238435Y0027399D01*
X0238634Y0027357D01*
X0238831Y0027310D01*
X0239027Y0027259D01*
X0239222Y0027202D01*
X0239416Y0027141D01*
X0239607Y0027075D01*
X0239798Y0027004D01*
X0239986Y0026929D01*
X0240173Y0026849D01*
X0240357Y0026764D01*
X0240539Y0026675D01*
X0240720Y0026582D01*
X0240897Y0026484D01*
X0241073Y0026382D01*
X0241245Y0026275D01*
X0241415Y0026165D01*
X0241583Y0026050D01*
X0241747Y0025931D01*
X0241909Y0025808D01*
X0242067Y0025681D01*
X0242222Y0025551D01*
X0242374Y0025416D01*
X0242523Y0025278D01*
X0242668Y0025136D01*
X0242810Y0024991D01*
X0242948Y0024842D01*
X0243083Y0024690D01*
X0243213Y0024535D01*
X0243340Y0024377D01*
X0243463Y0024215D01*
X0243582Y0024051D01*
X0243697Y0023883D01*
X0243807Y0023713D01*
X0243914Y0023541D01*
X0244016Y0023365D01*
X0244114Y0023188D01*
X0244207Y0023007D01*
X0244296Y0022825D01*
X0244381Y0022641D01*
X0244461Y0022454D01*
X0244536Y0022266D01*
X0244607Y0022075D01*
X0244673Y0021884D01*
X0244734Y0021690D01*
X0244791Y0021495D01*
X0244842Y0021299D01*
X0244889Y0021102D01*
X0244931Y0020903D01*
X0244968Y0020704D01*
X0245001Y0020503D01*
X0245028Y0020302D01*
X0245050Y0020100D01*
X0245068Y0019898D01*
X0245080Y0019696D01*
X0245088Y0019493D01*
X0245090Y0019290D01*
X0245088Y0019087D01*
X0245080Y0018884D01*
X0245068Y0018682D01*
X0245050Y0018480D01*
X0245028Y0018278D01*
X0245001Y0018077D01*
X0244968Y0017876D01*
X0244931Y0017677D01*
X0244889Y0017478D01*
X0244842Y0017281D01*
X0244791Y0017085D01*
X0244734Y0016890D01*
X0244673Y0016696D01*
X0244607Y0016505D01*
X0244536Y0016314D01*
X0244461Y0016126D01*
X0244381Y0015939D01*
X0244296Y0015755D01*
X0244207Y0015573D01*
X0244114Y0015392D01*
X0244016Y0015215D01*
X0243914Y0015039D01*
X0243807Y0014867D01*
X0243697Y0014697D01*
X0243582Y0014529D01*
X0243463Y0014365D01*
X0243340Y0014203D01*
X0243213Y0014045D01*
X0243083Y0013890D01*
X0242948Y0013738D01*
X0242810Y0013589D01*
X0242668Y0013444D01*
X0242523Y0013302D01*
X0242374Y0013164D01*
X0242222Y0013029D01*
X0242067Y0012899D01*
X0241909Y0012772D01*
X0241747Y0012649D01*
X0241583Y0012530D01*
X0241415Y0012415D01*
X0241245Y0012305D01*
X0241073Y0012198D01*
X0240897Y0012096D01*
X0240720Y0011998D01*
X0240539Y0011905D01*
X0240357Y0011816D01*
X0240173Y0011731D01*
X0239986Y0011651D01*
X0239798Y0011576D01*
X0239607Y0011505D01*
X0239416Y0011439D01*
X0239222Y0011378D01*
X0239027Y0011321D01*
X0238831Y0011270D01*
X0238634Y0011223D01*
X0238435Y0011181D01*
X0238236Y0011144D01*
X0238035Y0011111D01*
X0237834Y0011084D01*
X0237632Y0011062D01*
X0237430Y0011044D01*
X0237228Y0011032D01*
X0237025Y0011024D01*
X0236822Y0011022D01*
X0236619Y0011024D01*
X0236416Y0011032D01*
X0236214Y0011044D01*
X0236012Y0011062D01*
X0235810Y0011084D01*
X0235609Y0011111D01*
X0235408Y0011144D01*
X0235209Y0011181D01*
X0235010Y0011223D01*
X0234813Y0011270D01*
X0234617Y0011321D01*
X0234422Y0011378D01*
X0234228Y0011439D01*
X0234037Y0011505D01*
X0233846Y0011576D01*
X0233658Y0011651D01*
X0233471Y0011731D01*
X0233287Y0011816D01*
X0233105Y0011905D01*
X0232924Y0011998D01*
X0232747Y0012096D01*
X0232571Y0012198D01*
X0232399Y0012305D01*
X0232229Y0012415D01*
X0232061Y0012530D01*
X0231897Y0012649D01*
X0231735Y0012772D01*
X0231577Y0012899D01*
X0231422Y0013029D01*
X0231270Y0013164D01*
X0231121Y0013302D01*
X0230976Y0013444D01*
X0230834Y0013589D01*
X0230696Y0013738D01*
X0230561Y0013890D01*
X0230431Y0014045D01*
X0230304Y0014203D01*
X0230181Y0014365D01*
X0230062Y0014529D01*
X0229947Y0014697D01*
X0229837Y0014867D01*
X0229730Y0015039D01*
X0229628Y0015215D01*
X0229530Y0015392D01*
X0229437Y0015573D01*
X0229348Y0015755D01*
X0229263Y0015939D01*
X0229183Y0016126D01*
X0229108Y0016314D01*
X0229037Y0016505D01*
X0228971Y0016696D01*
X0228910Y0016890D01*
X0228853Y0017085D01*
X0228802Y0017281D01*
X0228755Y0017478D01*
X0228713Y0017677D01*
X0228676Y0017876D01*
X0228643Y0018077D01*
X0228616Y0018278D01*
X0228594Y0018480D01*
X0228576Y0018682D01*
X0228564Y0018884D01*
X0228556Y0019087D01*
X0228554Y0019290D01*
X0242727Y0029133D02*
X0246664Y0029133D01*
X0246664Y0025196D01*
X0247816Y0029873D02*
X0247818Y0029920D01*
X0247824Y0029966D01*
X0247833Y0030012D01*
X0247847Y0030056D01*
X0247864Y0030100D01*
X0247885Y0030141D01*
X0247909Y0030181D01*
X0247936Y0030219D01*
X0247967Y0030254D01*
X0248000Y0030287D01*
X0248036Y0030317D01*
X0248075Y0030343D01*
X0248115Y0030367D01*
X0248157Y0030386D01*
X0248201Y0030403D01*
X0248246Y0030415D01*
X0248292Y0030424D01*
X0248338Y0030429D01*
X0248385Y0030430D01*
X0248431Y0030427D01*
X0248477Y0030420D01*
X0248523Y0030409D01*
X0248567Y0030395D01*
X0248610Y0030377D01*
X0248651Y0030355D01*
X0248691Y0030330D01*
X0248728Y0030302D01*
X0248763Y0030271D01*
X0248795Y0030237D01*
X0248824Y0030200D01*
X0248849Y0030162D01*
X0248872Y0030121D01*
X0248891Y0030078D01*
X0248906Y0030034D01*
X0248918Y0029989D01*
X0248926Y0029943D01*
X0248930Y0029896D01*
X0248930Y0029850D01*
X0248926Y0029803D01*
X0248918Y0029757D01*
X0248906Y0029712D01*
X0248891Y0029668D01*
X0248872Y0029625D01*
X0248849Y0029584D01*
X0248824Y0029546D01*
X0248795Y0029509D01*
X0248763Y0029475D01*
X0248728Y0029444D01*
X0248691Y0029416D01*
X0248652Y0029391D01*
X0248610Y0029369D01*
X0248567Y0029351D01*
X0248523Y0029337D01*
X0248477Y0029326D01*
X0248431Y0029319D01*
X0248385Y0029316D01*
X0248338Y0029317D01*
X0248292Y0029322D01*
X0248246Y0029331D01*
X0248201Y0029343D01*
X0248157Y0029360D01*
X0248115Y0029379D01*
X0248075Y0029403D01*
X0248036Y0029429D01*
X0248000Y0029459D01*
X0247967Y0029492D01*
X0247936Y0029527D01*
X0247909Y0029565D01*
X0247885Y0029605D01*
X0247864Y0029646D01*
X0247847Y0029690D01*
X0247833Y0029734D01*
X0247824Y0029780D01*
X0247818Y0029826D01*
X0247816Y0029873D01*
X0246664Y0047440D02*
X0246664Y0051377D01*
X0242727Y0051377D01*
X0247816Y0052117D02*
X0247818Y0052164D01*
X0247824Y0052210D01*
X0247833Y0052256D01*
X0247847Y0052300D01*
X0247864Y0052344D01*
X0247885Y0052385D01*
X0247909Y0052425D01*
X0247936Y0052463D01*
X0247967Y0052498D01*
X0248000Y0052531D01*
X0248036Y0052561D01*
X0248075Y0052587D01*
X0248115Y0052611D01*
X0248157Y0052630D01*
X0248201Y0052647D01*
X0248246Y0052659D01*
X0248292Y0052668D01*
X0248338Y0052673D01*
X0248385Y0052674D01*
X0248431Y0052671D01*
X0248477Y0052664D01*
X0248523Y0052653D01*
X0248567Y0052639D01*
X0248610Y0052621D01*
X0248651Y0052599D01*
X0248691Y0052574D01*
X0248728Y0052546D01*
X0248763Y0052515D01*
X0248795Y0052481D01*
X0248824Y0052444D01*
X0248849Y0052406D01*
X0248872Y0052365D01*
X0248891Y0052322D01*
X0248906Y0052278D01*
X0248918Y0052233D01*
X0248926Y0052187D01*
X0248930Y0052140D01*
X0248930Y0052094D01*
X0248926Y0052047D01*
X0248918Y0052001D01*
X0248906Y0051956D01*
X0248891Y0051912D01*
X0248872Y0051869D01*
X0248849Y0051828D01*
X0248824Y0051790D01*
X0248795Y0051753D01*
X0248763Y0051719D01*
X0248728Y0051688D01*
X0248691Y0051660D01*
X0248652Y0051635D01*
X0248610Y0051613D01*
X0248567Y0051595D01*
X0248523Y0051581D01*
X0248477Y0051570D01*
X0248431Y0051563D01*
X0248385Y0051560D01*
X0248338Y0051561D01*
X0248292Y0051566D01*
X0248246Y0051575D01*
X0248201Y0051587D01*
X0248157Y0051604D01*
X0248115Y0051623D01*
X0248075Y0051647D01*
X0248036Y0051673D01*
X0248000Y0051703D01*
X0247967Y0051736D01*
X0247936Y0051771D01*
X0247909Y0051809D01*
X0247885Y0051849D01*
X0247864Y0051890D01*
X0247847Y0051934D01*
X0247833Y0051978D01*
X0247824Y0052024D01*
X0247818Y0052070D01*
X0247816Y0052117D01*
X0228554Y0108267D02*
X0228556Y0108470D01*
X0228564Y0108673D01*
X0228576Y0108875D01*
X0228594Y0109077D01*
X0228616Y0109279D01*
X0228643Y0109480D01*
X0228676Y0109681D01*
X0228713Y0109880D01*
X0228755Y0110079D01*
X0228802Y0110276D01*
X0228853Y0110472D01*
X0228910Y0110667D01*
X0228971Y0110861D01*
X0229037Y0111052D01*
X0229108Y0111243D01*
X0229183Y0111431D01*
X0229263Y0111618D01*
X0229348Y0111802D01*
X0229437Y0111984D01*
X0229530Y0112165D01*
X0229628Y0112342D01*
X0229730Y0112518D01*
X0229837Y0112690D01*
X0229947Y0112860D01*
X0230062Y0113028D01*
X0230181Y0113192D01*
X0230304Y0113354D01*
X0230431Y0113512D01*
X0230561Y0113667D01*
X0230696Y0113819D01*
X0230834Y0113968D01*
X0230976Y0114113D01*
X0231121Y0114255D01*
X0231270Y0114393D01*
X0231422Y0114528D01*
X0231577Y0114658D01*
X0231735Y0114785D01*
X0231897Y0114908D01*
X0232061Y0115027D01*
X0232229Y0115142D01*
X0232399Y0115252D01*
X0232571Y0115359D01*
X0232747Y0115461D01*
X0232924Y0115559D01*
X0233105Y0115652D01*
X0233287Y0115741D01*
X0233471Y0115826D01*
X0233658Y0115906D01*
X0233846Y0115981D01*
X0234037Y0116052D01*
X0234228Y0116118D01*
X0234422Y0116179D01*
X0234617Y0116236D01*
X0234813Y0116287D01*
X0235010Y0116334D01*
X0235209Y0116376D01*
X0235408Y0116413D01*
X0235609Y0116446D01*
X0235810Y0116473D01*
X0236012Y0116495D01*
X0236214Y0116513D01*
X0236416Y0116525D01*
X0236619Y0116533D01*
X0236822Y0116535D01*
X0237025Y0116533D01*
X0237228Y0116525D01*
X0237430Y0116513D01*
X0237632Y0116495D01*
X0237834Y0116473D01*
X0238035Y0116446D01*
X0238236Y0116413D01*
X0238435Y0116376D01*
X0238634Y0116334D01*
X0238831Y0116287D01*
X0239027Y0116236D01*
X0239222Y0116179D01*
X0239416Y0116118D01*
X0239607Y0116052D01*
X0239798Y0115981D01*
X0239986Y0115906D01*
X0240173Y0115826D01*
X0240357Y0115741D01*
X0240539Y0115652D01*
X0240720Y0115559D01*
X0240897Y0115461D01*
X0241073Y0115359D01*
X0241245Y0115252D01*
X0241415Y0115142D01*
X0241583Y0115027D01*
X0241747Y0114908D01*
X0241909Y0114785D01*
X0242067Y0114658D01*
X0242222Y0114528D01*
X0242374Y0114393D01*
X0242523Y0114255D01*
X0242668Y0114113D01*
X0242810Y0113968D01*
X0242948Y0113819D01*
X0243083Y0113667D01*
X0243213Y0113512D01*
X0243340Y0113354D01*
X0243463Y0113192D01*
X0243582Y0113028D01*
X0243697Y0112860D01*
X0243807Y0112690D01*
X0243914Y0112518D01*
X0244016Y0112342D01*
X0244114Y0112165D01*
X0244207Y0111984D01*
X0244296Y0111802D01*
X0244381Y0111618D01*
X0244461Y0111431D01*
X0244536Y0111243D01*
X0244607Y0111052D01*
X0244673Y0110861D01*
X0244734Y0110667D01*
X0244791Y0110472D01*
X0244842Y0110276D01*
X0244889Y0110079D01*
X0244931Y0109880D01*
X0244968Y0109681D01*
X0245001Y0109480D01*
X0245028Y0109279D01*
X0245050Y0109077D01*
X0245068Y0108875D01*
X0245080Y0108673D01*
X0245088Y0108470D01*
X0245090Y0108267D01*
X0245088Y0108064D01*
X0245080Y0107861D01*
X0245068Y0107659D01*
X0245050Y0107457D01*
X0245028Y0107255D01*
X0245001Y0107054D01*
X0244968Y0106853D01*
X0244931Y0106654D01*
X0244889Y0106455D01*
X0244842Y0106258D01*
X0244791Y0106062D01*
X0244734Y0105867D01*
X0244673Y0105673D01*
X0244607Y0105482D01*
X0244536Y0105291D01*
X0244461Y0105103D01*
X0244381Y0104916D01*
X0244296Y0104732D01*
X0244207Y0104550D01*
X0244114Y0104369D01*
X0244016Y0104192D01*
X0243914Y0104016D01*
X0243807Y0103844D01*
X0243697Y0103674D01*
X0243582Y0103506D01*
X0243463Y0103342D01*
X0243340Y0103180D01*
X0243213Y0103022D01*
X0243083Y0102867D01*
X0242948Y0102715D01*
X0242810Y0102566D01*
X0242668Y0102421D01*
X0242523Y0102279D01*
X0242374Y0102141D01*
X0242222Y0102006D01*
X0242067Y0101876D01*
X0241909Y0101749D01*
X0241747Y0101626D01*
X0241583Y0101507D01*
X0241415Y0101392D01*
X0241245Y0101282D01*
X0241073Y0101175D01*
X0240897Y0101073D01*
X0240720Y0100975D01*
X0240539Y0100882D01*
X0240357Y0100793D01*
X0240173Y0100708D01*
X0239986Y0100628D01*
X0239798Y0100553D01*
X0239607Y0100482D01*
X0239416Y0100416D01*
X0239222Y0100355D01*
X0239027Y0100298D01*
X0238831Y0100247D01*
X0238634Y0100200D01*
X0238435Y0100158D01*
X0238236Y0100121D01*
X0238035Y0100088D01*
X0237834Y0100061D01*
X0237632Y0100039D01*
X0237430Y0100021D01*
X0237228Y0100009D01*
X0237025Y0100001D01*
X0236822Y0099999D01*
X0236619Y0100001D01*
X0236416Y0100009D01*
X0236214Y0100021D01*
X0236012Y0100039D01*
X0235810Y0100061D01*
X0235609Y0100088D01*
X0235408Y0100121D01*
X0235209Y0100158D01*
X0235010Y0100200D01*
X0234813Y0100247D01*
X0234617Y0100298D01*
X0234422Y0100355D01*
X0234228Y0100416D01*
X0234037Y0100482D01*
X0233846Y0100553D01*
X0233658Y0100628D01*
X0233471Y0100708D01*
X0233287Y0100793D01*
X0233105Y0100882D01*
X0232924Y0100975D01*
X0232747Y0101073D01*
X0232571Y0101175D01*
X0232399Y0101282D01*
X0232229Y0101392D01*
X0232061Y0101507D01*
X0231897Y0101626D01*
X0231735Y0101749D01*
X0231577Y0101876D01*
X0231422Y0102006D01*
X0231270Y0102141D01*
X0231121Y0102279D01*
X0230976Y0102421D01*
X0230834Y0102566D01*
X0230696Y0102715D01*
X0230561Y0102867D01*
X0230431Y0103022D01*
X0230304Y0103180D01*
X0230181Y0103342D01*
X0230062Y0103506D01*
X0229947Y0103674D01*
X0229837Y0103844D01*
X0229730Y0104016D01*
X0229628Y0104192D01*
X0229530Y0104369D01*
X0229437Y0104550D01*
X0229348Y0104732D01*
X0229263Y0104916D01*
X0229183Y0105103D01*
X0229108Y0105291D01*
X0229037Y0105482D01*
X0228971Y0105673D01*
X0228910Y0105867D01*
X0228853Y0106062D01*
X0228802Y0106258D01*
X0228755Y0106455D01*
X0228713Y0106654D01*
X0228676Y0106853D01*
X0228643Y0107054D01*
X0228616Y0107255D01*
X0228594Y0107457D01*
X0228576Y0107659D01*
X0228564Y0107861D01*
X0228556Y0108064D01*
X0228554Y0108267D01*
X0226979Y0120472D02*
X0226979Y0140157D01*
X0242727Y0140157D01*
X0246664Y0136220D01*
X0246664Y0140157D01*
X0242727Y0140157D01*
X0246664Y0142519D02*
X0246664Y0158267D01*
X0242727Y0162204D01*
X0226979Y0162204D01*
X0226979Y0142519D01*
X0246664Y0142519D01*
X0247816Y0140897D02*
X0247818Y0140944D01*
X0247824Y0140990D01*
X0247833Y0141036D01*
X0247847Y0141080D01*
X0247864Y0141124D01*
X0247885Y0141165D01*
X0247909Y0141205D01*
X0247936Y0141243D01*
X0247967Y0141278D01*
X0248000Y0141311D01*
X0248036Y0141341D01*
X0248075Y0141367D01*
X0248115Y0141391D01*
X0248157Y0141410D01*
X0248201Y0141427D01*
X0248246Y0141439D01*
X0248292Y0141448D01*
X0248338Y0141453D01*
X0248385Y0141454D01*
X0248431Y0141451D01*
X0248477Y0141444D01*
X0248523Y0141433D01*
X0248567Y0141419D01*
X0248610Y0141401D01*
X0248651Y0141379D01*
X0248691Y0141354D01*
X0248728Y0141326D01*
X0248763Y0141295D01*
X0248795Y0141261D01*
X0248824Y0141224D01*
X0248849Y0141186D01*
X0248872Y0141145D01*
X0248891Y0141102D01*
X0248906Y0141058D01*
X0248918Y0141013D01*
X0248926Y0140967D01*
X0248930Y0140920D01*
X0248930Y0140874D01*
X0248926Y0140827D01*
X0248918Y0140781D01*
X0248906Y0140736D01*
X0248891Y0140692D01*
X0248872Y0140649D01*
X0248849Y0140608D01*
X0248824Y0140570D01*
X0248795Y0140533D01*
X0248763Y0140499D01*
X0248728Y0140468D01*
X0248691Y0140440D01*
X0248652Y0140415D01*
X0248610Y0140393D01*
X0248567Y0140375D01*
X0248523Y0140361D01*
X0248477Y0140350D01*
X0248431Y0140343D01*
X0248385Y0140340D01*
X0248338Y0140341D01*
X0248292Y0140346D01*
X0248246Y0140355D01*
X0248201Y0140367D01*
X0248157Y0140384D01*
X0248115Y0140403D01*
X0248075Y0140427D01*
X0248036Y0140453D01*
X0248000Y0140483D01*
X0247967Y0140516D01*
X0247936Y0140551D01*
X0247909Y0140589D01*
X0247885Y0140629D01*
X0247864Y0140670D01*
X0247847Y0140714D01*
X0247833Y0140758D01*
X0247824Y0140804D01*
X0247818Y0140850D01*
X0247816Y0140897D01*
X0246664Y0136220D02*
X0246664Y0120472D01*
X0226979Y0120472D01*
X0228554Y0130314D02*
X0228556Y0130517D01*
X0228564Y0130720D01*
X0228576Y0130922D01*
X0228594Y0131124D01*
X0228616Y0131326D01*
X0228643Y0131527D01*
X0228676Y0131728D01*
X0228713Y0131927D01*
X0228755Y0132126D01*
X0228802Y0132323D01*
X0228853Y0132519D01*
X0228910Y0132714D01*
X0228971Y0132908D01*
X0229037Y0133099D01*
X0229108Y0133290D01*
X0229183Y0133478D01*
X0229263Y0133665D01*
X0229348Y0133849D01*
X0229437Y0134031D01*
X0229530Y0134212D01*
X0229628Y0134389D01*
X0229730Y0134565D01*
X0229837Y0134737D01*
X0229947Y0134907D01*
X0230062Y0135075D01*
X0230181Y0135239D01*
X0230304Y0135401D01*
X0230431Y0135559D01*
X0230561Y0135714D01*
X0230696Y0135866D01*
X0230834Y0136015D01*
X0230976Y0136160D01*
X0231121Y0136302D01*
X0231270Y0136440D01*
X0231422Y0136575D01*
X0231577Y0136705D01*
X0231735Y0136832D01*
X0231897Y0136955D01*
X0232061Y0137074D01*
X0232229Y0137189D01*
X0232399Y0137299D01*
X0232571Y0137406D01*
X0232747Y0137508D01*
X0232924Y0137606D01*
X0233105Y0137699D01*
X0233287Y0137788D01*
X0233471Y0137873D01*
X0233658Y0137953D01*
X0233846Y0138028D01*
X0234037Y0138099D01*
X0234228Y0138165D01*
X0234422Y0138226D01*
X0234617Y0138283D01*
X0234813Y0138334D01*
X0235010Y0138381D01*
X0235209Y0138423D01*
X0235408Y0138460D01*
X0235609Y0138493D01*
X0235810Y0138520D01*
X0236012Y0138542D01*
X0236214Y0138560D01*
X0236416Y0138572D01*
X0236619Y0138580D01*
X0236822Y0138582D01*
X0237025Y0138580D01*
X0237228Y0138572D01*
X0237430Y0138560D01*
X0237632Y0138542D01*
X0237834Y0138520D01*
X0238035Y0138493D01*
X0238236Y0138460D01*
X0238435Y0138423D01*
X0238634Y0138381D01*
X0238831Y0138334D01*
X0239027Y0138283D01*
X0239222Y0138226D01*
X0239416Y0138165D01*
X0239607Y0138099D01*
X0239798Y0138028D01*
X0239986Y0137953D01*
X0240173Y0137873D01*
X0240357Y0137788D01*
X0240539Y0137699D01*
X0240720Y0137606D01*
X0240897Y0137508D01*
X0241073Y0137406D01*
X0241245Y0137299D01*
X0241415Y0137189D01*
X0241583Y0137074D01*
X0241747Y0136955D01*
X0241909Y0136832D01*
X0242067Y0136705D01*
X0242222Y0136575D01*
X0242374Y0136440D01*
X0242523Y0136302D01*
X0242668Y0136160D01*
X0242810Y0136015D01*
X0242948Y0135866D01*
X0243083Y0135714D01*
X0243213Y0135559D01*
X0243340Y0135401D01*
X0243463Y0135239D01*
X0243582Y0135075D01*
X0243697Y0134907D01*
X0243807Y0134737D01*
X0243914Y0134565D01*
X0244016Y0134389D01*
X0244114Y0134212D01*
X0244207Y0134031D01*
X0244296Y0133849D01*
X0244381Y0133665D01*
X0244461Y0133478D01*
X0244536Y0133290D01*
X0244607Y0133099D01*
X0244673Y0132908D01*
X0244734Y0132714D01*
X0244791Y0132519D01*
X0244842Y0132323D01*
X0244889Y0132126D01*
X0244931Y0131927D01*
X0244968Y0131728D01*
X0245001Y0131527D01*
X0245028Y0131326D01*
X0245050Y0131124D01*
X0245068Y0130922D01*
X0245080Y0130720D01*
X0245088Y0130517D01*
X0245090Y0130314D01*
X0245088Y0130111D01*
X0245080Y0129908D01*
X0245068Y0129706D01*
X0245050Y0129504D01*
X0245028Y0129302D01*
X0245001Y0129101D01*
X0244968Y0128900D01*
X0244931Y0128701D01*
X0244889Y0128502D01*
X0244842Y0128305D01*
X0244791Y0128109D01*
X0244734Y0127914D01*
X0244673Y0127720D01*
X0244607Y0127529D01*
X0244536Y0127338D01*
X0244461Y0127150D01*
X0244381Y0126963D01*
X0244296Y0126779D01*
X0244207Y0126597D01*
X0244114Y0126416D01*
X0244016Y0126239D01*
X0243914Y0126063D01*
X0243807Y0125891D01*
X0243697Y0125721D01*
X0243582Y0125553D01*
X0243463Y0125389D01*
X0243340Y0125227D01*
X0243213Y0125069D01*
X0243083Y0124914D01*
X0242948Y0124762D01*
X0242810Y0124613D01*
X0242668Y0124468D01*
X0242523Y0124326D01*
X0242374Y0124188D01*
X0242222Y0124053D01*
X0242067Y0123923D01*
X0241909Y0123796D01*
X0241747Y0123673D01*
X0241583Y0123554D01*
X0241415Y0123439D01*
X0241245Y0123329D01*
X0241073Y0123222D01*
X0240897Y0123120D01*
X0240720Y0123022D01*
X0240539Y0122929D01*
X0240357Y0122840D01*
X0240173Y0122755D01*
X0239986Y0122675D01*
X0239798Y0122600D01*
X0239607Y0122529D01*
X0239416Y0122463D01*
X0239222Y0122402D01*
X0239027Y0122345D01*
X0238831Y0122294D01*
X0238634Y0122247D01*
X0238435Y0122205D01*
X0238236Y0122168D01*
X0238035Y0122135D01*
X0237834Y0122108D01*
X0237632Y0122086D01*
X0237430Y0122068D01*
X0237228Y0122056D01*
X0237025Y0122048D01*
X0236822Y0122046D01*
X0236619Y0122048D01*
X0236416Y0122056D01*
X0236214Y0122068D01*
X0236012Y0122086D01*
X0235810Y0122108D01*
X0235609Y0122135D01*
X0235408Y0122168D01*
X0235209Y0122205D01*
X0235010Y0122247D01*
X0234813Y0122294D01*
X0234617Y0122345D01*
X0234422Y0122402D01*
X0234228Y0122463D01*
X0234037Y0122529D01*
X0233846Y0122600D01*
X0233658Y0122675D01*
X0233471Y0122755D01*
X0233287Y0122840D01*
X0233105Y0122929D01*
X0232924Y0123022D01*
X0232747Y0123120D01*
X0232571Y0123222D01*
X0232399Y0123329D01*
X0232229Y0123439D01*
X0232061Y0123554D01*
X0231897Y0123673D01*
X0231735Y0123796D01*
X0231577Y0123923D01*
X0231422Y0124053D01*
X0231270Y0124188D01*
X0231121Y0124326D01*
X0230976Y0124468D01*
X0230834Y0124613D01*
X0230696Y0124762D01*
X0230561Y0124914D01*
X0230431Y0125069D01*
X0230304Y0125227D01*
X0230181Y0125389D01*
X0230062Y0125553D01*
X0229947Y0125721D01*
X0229837Y0125891D01*
X0229730Y0126063D01*
X0229628Y0126239D01*
X0229530Y0126416D01*
X0229437Y0126597D01*
X0229348Y0126779D01*
X0229263Y0126963D01*
X0229183Y0127150D01*
X0229108Y0127338D01*
X0229037Y0127529D01*
X0228971Y0127720D01*
X0228910Y0127914D01*
X0228853Y0128109D01*
X0228802Y0128305D01*
X0228755Y0128502D01*
X0228713Y0128701D01*
X0228676Y0128900D01*
X0228643Y0129101D01*
X0228616Y0129302D01*
X0228594Y0129504D01*
X0228576Y0129706D01*
X0228564Y0129908D01*
X0228556Y0130111D01*
X0228554Y0130314D01*
X0242727Y0118109D02*
X0246664Y0118109D01*
X0246664Y0114172D01*
X0247816Y0118849D02*
X0247818Y0118896D01*
X0247824Y0118942D01*
X0247833Y0118988D01*
X0247847Y0119032D01*
X0247864Y0119076D01*
X0247885Y0119117D01*
X0247909Y0119157D01*
X0247936Y0119195D01*
X0247967Y0119230D01*
X0248000Y0119263D01*
X0248036Y0119293D01*
X0248075Y0119319D01*
X0248115Y0119343D01*
X0248157Y0119362D01*
X0248201Y0119379D01*
X0248246Y0119391D01*
X0248292Y0119400D01*
X0248338Y0119405D01*
X0248385Y0119406D01*
X0248431Y0119403D01*
X0248477Y0119396D01*
X0248523Y0119385D01*
X0248567Y0119371D01*
X0248610Y0119353D01*
X0248651Y0119331D01*
X0248691Y0119306D01*
X0248728Y0119278D01*
X0248763Y0119247D01*
X0248795Y0119213D01*
X0248824Y0119176D01*
X0248849Y0119138D01*
X0248872Y0119097D01*
X0248891Y0119054D01*
X0248906Y0119010D01*
X0248918Y0118965D01*
X0248926Y0118919D01*
X0248930Y0118872D01*
X0248930Y0118826D01*
X0248926Y0118779D01*
X0248918Y0118733D01*
X0248906Y0118688D01*
X0248891Y0118644D01*
X0248872Y0118601D01*
X0248849Y0118560D01*
X0248824Y0118522D01*
X0248795Y0118485D01*
X0248763Y0118451D01*
X0248728Y0118420D01*
X0248691Y0118392D01*
X0248652Y0118367D01*
X0248610Y0118345D01*
X0248567Y0118327D01*
X0248523Y0118313D01*
X0248477Y0118302D01*
X0248431Y0118295D01*
X0248385Y0118292D01*
X0248338Y0118293D01*
X0248292Y0118298D01*
X0248246Y0118307D01*
X0248201Y0118319D01*
X0248157Y0118336D01*
X0248115Y0118355D01*
X0248075Y0118379D01*
X0248036Y0118405D01*
X0248000Y0118435D01*
X0247967Y0118468D01*
X0247936Y0118503D01*
X0247909Y0118541D01*
X0247885Y0118581D01*
X0247864Y0118622D01*
X0247847Y0118666D01*
X0247833Y0118710D01*
X0247824Y0118756D01*
X0247818Y0118802D01*
X0247816Y0118849D01*
X0228554Y0152361D02*
X0228556Y0152564D01*
X0228564Y0152767D01*
X0228576Y0152969D01*
X0228594Y0153171D01*
X0228616Y0153373D01*
X0228643Y0153574D01*
X0228676Y0153775D01*
X0228713Y0153974D01*
X0228755Y0154173D01*
X0228802Y0154370D01*
X0228853Y0154566D01*
X0228910Y0154761D01*
X0228971Y0154955D01*
X0229037Y0155146D01*
X0229108Y0155337D01*
X0229183Y0155525D01*
X0229263Y0155712D01*
X0229348Y0155896D01*
X0229437Y0156078D01*
X0229530Y0156259D01*
X0229628Y0156436D01*
X0229730Y0156612D01*
X0229837Y0156784D01*
X0229947Y0156954D01*
X0230062Y0157122D01*
X0230181Y0157286D01*
X0230304Y0157448D01*
X0230431Y0157606D01*
X0230561Y0157761D01*
X0230696Y0157913D01*
X0230834Y0158062D01*
X0230976Y0158207D01*
X0231121Y0158349D01*
X0231270Y0158487D01*
X0231422Y0158622D01*
X0231577Y0158752D01*
X0231735Y0158879D01*
X0231897Y0159002D01*
X0232061Y0159121D01*
X0232229Y0159236D01*
X0232399Y0159346D01*
X0232571Y0159453D01*
X0232747Y0159555D01*
X0232924Y0159653D01*
X0233105Y0159746D01*
X0233287Y0159835D01*
X0233471Y0159920D01*
X0233658Y0160000D01*
X0233846Y0160075D01*
X0234037Y0160146D01*
X0234228Y0160212D01*
X0234422Y0160273D01*
X0234617Y0160330D01*
X0234813Y0160381D01*
X0235010Y0160428D01*
X0235209Y0160470D01*
X0235408Y0160507D01*
X0235609Y0160540D01*
X0235810Y0160567D01*
X0236012Y0160589D01*
X0236214Y0160607D01*
X0236416Y0160619D01*
X0236619Y0160627D01*
X0236822Y0160629D01*
X0237025Y0160627D01*
X0237228Y0160619D01*
X0237430Y0160607D01*
X0237632Y0160589D01*
X0237834Y0160567D01*
X0238035Y0160540D01*
X0238236Y0160507D01*
X0238435Y0160470D01*
X0238634Y0160428D01*
X0238831Y0160381D01*
X0239027Y0160330D01*
X0239222Y0160273D01*
X0239416Y0160212D01*
X0239607Y0160146D01*
X0239798Y0160075D01*
X0239986Y0160000D01*
X0240173Y0159920D01*
X0240357Y0159835D01*
X0240539Y0159746D01*
X0240720Y0159653D01*
X0240897Y0159555D01*
X0241073Y0159453D01*
X0241245Y0159346D01*
X0241415Y0159236D01*
X0241583Y0159121D01*
X0241747Y0159002D01*
X0241909Y0158879D01*
X0242067Y0158752D01*
X0242222Y0158622D01*
X0242374Y0158487D01*
X0242523Y0158349D01*
X0242668Y0158207D01*
X0242810Y0158062D01*
X0242948Y0157913D01*
X0243083Y0157761D01*
X0243213Y0157606D01*
X0243340Y0157448D01*
X0243463Y0157286D01*
X0243582Y0157122D01*
X0243697Y0156954D01*
X0243807Y0156784D01*
X0243914Y0156612D01*
X0244016Y0156436D01*
X0244114Y0156259D01*
X0244207Y0156078D01*
X0244296Y0155896D01*
X0244381Y0155712D01*
X0244461Y0155525D01*
X0244536Y0155337D01*
X0244607Y0155146D01*
X0244673Y0154955D01*
X0244734Y0154761D01*
X0244791Y0154566D01*
X0244842Y0154370D01*
X0244889Y0154173D01*
X0244931Y0153974D01*
X0244968Y0153775D01*
X0245001Y0153574D01*
X0245028Y0153373D01*
X0245050Y0153171D01*
X0245068Y0152969D01*
X0245080Y0152767D01*
X0245088Y0152564D01*
X0245090Y0152361D01*
X0245088Y0152158D01*
X0245080Y0151955D01*
X0245068Y0151753D01*
X0245050Y0151551D01*
X0245028Y0151349D01*
X0245001Y0151148D01*
X0244968Y0150947D01*
X0244931Y0150748D01*
X0244889Y0150549D01*
X0244842Y0150352D01*
X0244791Y0150156D01*
X0244734Y0149961D01*
X0244673Y0149767D01*
X0244607Y0149576D01*
X0244536Y0149385D01*
X0244461Y0149197D01*
X0244381Y0149010D01*
X0244296Y0148826D01*
X0244207Y0148644D01*
X0244114Y0148463D01*
X0244016Y0148286D01*
X0243914Y0148110D01*
X0243807Y0147938D01*
X0243697Y0147768D01*
X0243582Y0147600D01*
X0243463Y0147436D01*
X0243340Y0147274D01*
X0243213Y0147116D01*
X0243083Y0146961D01*
X0242948Y0146809D01*
X0242810Y0146660D01*
X0242668Y0146515D01*
X0242523Y0146373D01*
X0242374Y0146235D01*
X0242222Y0146100D01*
X0242067Y0145970D01*
X0241909Y0145843D01*
X0241747Y0145720D01*
X0241583Y0145601D01*
X0241415Y0145486D01*
X0241245Y0145376D01*
X0241073Y0145269D01*
X0240897Y0145167D01*
X0240720Y0145069D01*
X0240539Y0144976D01*
X0240357Y0144887D01*
X0240173Y0144802D01*
X0239986Y0144722D01*
X0239798Y0144647D01*
X0239607Y0144576D01*
X0239416Y0144510D01*
X0239222Y0144449D01*
X0239027Y0144392D01*
X0238831Y0144341D01*
X0238634Y0144294D01*
X0238435Y0144252D01*
X0238236Y0144215D01*
X0238035Y0144182D01*
X0237834Y0144155D01*
X0237632Y0144133D01*
X0237430Y0144115D01*
X0237228Y0144103D01*
X0237025Y0144095D01*
X0236822Y0144093D01*
X0236619Y0144095D01*
X0236416Y0144103D01*
X0236214Y0144115D01*
X0236012Y0144133D01*
X0235810Y0144155D01*
X0235609Y0144182D01*
X0235408Y0144215D01*
X0235209Y0144252D01*
X0235010Y0144294D01*
X0234813Y0144341D01*
X0234617Y0144392D01*
X0234422Y0144449D01*
X0234228Y0144510D01*
X0234037Y0144576D01*
X0233846Y0144647D01*
X0233658Y0144722D01*
X0233471Y0144802D01*
X0233287Y0144887D01*
X0233105Y0144976D01*
X0232924Y0145069D01*
X0232747Y0145167D01*
X0232571Y0145269D01*
X0232399Y0145376D01*
X0232229Y0145486D01*
X0232061Y0145601D01*
X0231897Y0145720D01*
X0231735Y0145843D01*
X0231577Y0145970D01*
X0231422Y0146100D01*
X0231270Y0146235D01*
X0231121Y0146373D01*
X0230976Y0146515D01*
X0230834Y0146660D01*
X0230696Y0146809D01*
X0230561Y0146961D01*
X0230431Y0147116D01*
X0230304Y0147274D01*
X0230181Y0147436D01*
X0230062Y0147600D01*
X0229947Y0147768D01*
X0229837Y0147938D01*
X0229730Y0148110D01*
X0229628Y0148286D01*
X0229530Y0148463D01*
X0229437Y0148644D01*
X0229348Y0148826D01*
X0229263Y0149010D01*
X0229183Y0149197D01*
X0229108Y0149385D01*
X0229037Y0149576D01*
X0228971Y0149767D01*
X0228910Y0149961D01*
X0228853Y0150156D01*
X0228802Y0150352D01*
X0228755Y0150549D01*
X0228713Y0150748D01*
X0228676Y0150947D01*
X0228643Y0151148D01*
X0228616Y0151349D01*
X0228594Y0151551D01*
X0228576Y0151753D01*
X0228564Y0151955D01*
X0228556Y0152158D01*
X0228554Y0152361D01*
X0226979Y0164763D02*
X0226979Y0184448D01*
X0242727Y0184448D01*
X0246664Y0180511D01*
X0246664Y0184448D01*
X0242727Y0184448D01*
X0246664Y0187007D02*
X0246664Y0202755D01*
X0242727Y0206692D01*
X0226979Y0206692D01*
X0226979Y0187007D01*
X0246664Y0187007D01*
X0247816Y0185188D02*
X0247818Y0185235D01*
X0247824Y0185281D01*
X0247833Y0185327D01*
X0247847Y0185371D01*
X0247864Y0185415D01*
X0247885Y0185456D01*
X0247909Y0185496D01*
X0247936Y0185534D01*
X0247967Y0185569D01*
X0248000Y0185602D01*
X0248036Y0185632D01*
X0248075Y0185658D01*
X0248115Y0185682D01*
X0248157Y0185701D01*
X0248201Y0185718D01*
X0248246Y0185730D01*
X0248292Y0185739D01*
X0248338Y0185744D01*
X0248385Y0185745D01*
X0248431Y0185742D01*
X0248477Y0185735D01*
X0248523Y0185724D01*
X0248567Y0185710D01*
X0248610Y0185692D01*
X0248651Y0185670D01*
X0248691Y0185645D01*
X0248728Y0185617D01*
X0248763Y0185586D01*
X0248795Y0185552D01*
X0248824Y0185515D01*
X0248849Y0185477D01*
X0248872Y0185436D01*
X0248891Y0185393D01*
X0248906Y0185349D01*
X0248918Y0185304D01*
X0248926Y0185258D01*
X0248930Y0185211D01*
X0248930Y0185165D01*
X0248926Y0185118D01*
X0248918Y0185072D01*
X0248906Y0185027D01*
X0248891Y0184983D01*
X0248872Y0184940D01*
X0248849Y0184899D01*
X0248824Y0184861D01*
X0248795Y0184824D01*
X0248763Y0184790D01*
X0248728Y0184759D01*
X0248691Y0184731D01*
X0248652Y0184706D01*
X0248610Y0184684D01*
X0248567Y0184666D01*
X0248523Y0184652D01*
X0248477Y0184641D01*
X0248431Y0184634D01*
X0248385Y0184631D01*
X0248338Y0184632D01*
X0248292Y0184637D01*
X0248246Y0184646D01*
X0248201Y0184658D01*
X0248157Y0184675D01*
X0248115Y0184694D01*
X0248075Y0184718D01*
X0248036Y0184744D01*
X0248000Y0184774D01*
X0247967Y0184807D01*
X0247936Y0184842D01*
X0247909Y0184880D01*
X0247885Y0184920D01*
X0247864Y0184961D01*
X0247847Y0185005D01*
X0247833Y0185049D01*
X0247824Y0185095D01*
X0247818Y0185141D01*
X0247816Y0185188D01*
X0246664Y0180511D02*
X0246664Y0164763D01*
X0226979Y0164763D01*
X0228554Y0174605D02*
X0228556Y0174808D01*
X0228564Y0175011D01*
X0228576Y0175213D01*
X0228594Y0175415D01*
X0228616Y0175617D01*
X0228643Y0175818D01*
X0228676Y0176019D01*
X0228713Y0176218D01*
X0228755Y0176417D01*
X0228802Y0176614D01*
X0228853Y0176810D01*
X0228910Y0177005D01*
X0228971Y0177199D01*
X0229037Y0177390D01*
X0229108Y0177581D01*
X0229183Y0177769D01*
X0229263Y0177956D01*
X0229348Y0178140D01*
X0229437Y0178322D01*
X0229530Y0178503D01*
X0229628Y0178680D01*
X0229730Y0178856D01*
X0229837Y0179028D01*
X0229947Y0179198D01*
X0230062Y0179366D01*
X0230181Y0179530D01*
X0230304Y0179692D01*
X0230431Y0179850D01*
X0230561Y0180005D01*
X0230696Y0180157D01*
X0230834Y0180306D01*
X0230976Y0180451D01*
X0231121Y0180593D01*
X0231270Y0180731D01*
X0231422Y0180866D01*
X0231577Y0180996D01*
X0231735Y0181123D01*
X0231897Y0181246D01*
X0232061Y0181365D01*
X0232229Y0181480D01*
X0232399Y0181590D01*
X0232571Y0181697D01*
X0232747Y0181799D01*
X0232924Y0181897D01*
X0233105Y0181990D01*
X0233287Y0182079D01*
X0233471Y0182164D01*
X0233658Y0182244D01*
X0233846Y0182319D01*
X0234037Y0182390D01*
X0234228Y0182456D01*
X0234422Y0182517D01*
X0234617Y0182574D01*
X0234813Y0182625D01*
X0235010Y0182672D01*
X0235209Y0182714D01*
X0235408Y0182751D01*
X0235609Y0182784D01*
X0235810Y0182811D01*
X0236012Y0182833D01*
X0236214Y0182851D01*
X0236416Y0182863D01*
X0236619Y0182871D01*
X0236822Y0182873D01*
X0237025Y0182871D01*
X0237228Y0182863D01*
X0237430Y0182851D01*
X0237632Y0182833D01*
X0237834Y0182811D01*
X0238035Y0182784D01*
X0238236Y0182751D01*
X0238435Y0182714D01*
X0238634Y0182672D01*
X0238831Y0182625D01*
X0239027Y0182574D01*
X0239222Y0182517D01*
X0239416Y0182456D01*
X0239607Y0182390D01*
X0239798Y0182319D01*
X0239986Y0182244D01*
X0240173Y0182164D01*
X0240357Y0182079D01*
X0240539Y0181990D01*
X0240720Y0181897D01*
X0240897Y0181799D01*
X0241073Y0181697D01*
X0241245Y0181590D01*
X0241415Y0181480D01*
X0241583Y0181365D01*
X0241747Y0181246D01*
X0241909Y0181123D01*
X0242067Y0180996D01*
X0242222Y0180866D01*
X0242374Y0180731D01*
X0242523Y0180593D01*
X0242668Y0180451D01*
X0242810Y0180306D01*
X0242948Y0180157D01*
X0243083Y0180005D01*
X0243213Y0179850D01*
X0243340Y0179692D01*
X0243463Y0179530D01*
X0243582Y0179366D01*
X0243697Y0179198D01*
X0243807Y0179028D01*
X0243914Y0178856D01*
X0244016Y0178680D01*
X0244114Y0178503D01*
X0244207Y0178322D01*
X0244296Y0178140D01*
X0244381Y0177956D01*
X0244461Y0177769D01*
X0244536Y0177581D01*
X0244607Y0177390D01*
X0244673Y0177199D01*
X0244734Y0177005D01*
X0244791Y0176810D01*
X0244842Y0176614D01*
X0244889Y0176417D01*
X0244931Y0176218D01*
X0244968Y0176019D01*
X0245001Y0175818D01*
X0245028Y0175617D01*
X0245050Y0175415D01*
X0245068Y0175213D01*
X0245080Y0175011D01*
X0245088Y0174808D01*
X0245090Y0174605D01*
X0245088Y0174402D01*
X0245080Y0174199D01*
X0245068Y0173997D01*
X0245050Y0173795D01*
X0245028Y0173593D01*
X0245001Y0173392D01*
X0244968Y0173191D01*
X0244931Y0172992D01*
X0244889Y0172793D01*
X0244842Y0172596D01*
X0244791Y0172400D01*
X0244734Y0172205D01*
X0244673Y0172011D01*
X0244607Y0171820D01*
X0244536Y0171629D01*
X0244461Y0171441D01*
X0244381Y0171254D01*
X0244296Y0171070D01*
X0244207Y0170888D01*
X0244114Y0170707D01*
X0244016Y0170530D01*
X0243914Y0170354D01*
X0243807Y0170182D01*
X0243697Y0170012D01*
X0243582Y0169844D01*
X0243463Y0169680D01*
X0243340Y0169518D01*
X0243213Y0169360D01*
X0243083Y0169205D01*
X0242948Y0169053D01*
X0242810Y0168904D01*
X0242668Y0168759D01*
X0242523Y0168617D01*
X0242374Y0168479D01*
X0242222Y0168344D01*
X0242067Y0168214D01*
X0241909Y0168087D01*
X0241747Y0167964D01*
X0241583Y0167845D01*
X0241415Y0167730D01*
X0241245Y0167620D01*
X0241073Y0167513D01*
X0240897Y0167411D01*
X0240720Y0167313D01*
X0240539Y0167220D01*
X0240357Y0167131D01*
X0240173Y0167046D01*
X0239986Y0166966D01*
X0239798Y0166891D01*
X0239607Y0166820D01*
X0239416Y0166754D01*
X0239222Y0166693D01*
X0239027Y0166636D01*
X0238831Y0166585D01*
X0238634Y0166538D01*
X0238435Y0166496D01*
X0238236Y0166459D01*
X0238035Y0166426D01*
X0237834Y0166399D01*
X0237632Y0166377D01*
X0237430Y0166359D01*
X0237228Y0166347D01*
X0237025Y0166339D01*
X0236822Y0166337D01*
X0236619Y0166339D01*
X0236416Y0166347D01*
X0236214Y0166359D01*
X0236012Y0166377D01*
X0235810Y0166399D01*
X0235609Y0166426D01*
X0235408Y0166459D01*
X0235209Y0166496D01*
X0235010Y0166538D01*
X0234813Y0166585D01*
X0234617Y0166636D01*
X0234422Y0166693D01*
X0234228Y0166754D01*
X0234037Y0166820D01*
X0233846Y0166891D01*
X0233658Y0166966D01*
X0233471Y0167046D01*
X0233287Y0167131D01*
X0233105Y0167220D01*
X0232924Y0167313D01*
X0232747Y0167411D01*
X0232571Y0167513D01*
X0232399Y0167620D01*
X0232229Y0167730D01*
X0232061Y0167845D01*
X0231897Y0167964D01*
X0231735Y0168087D01*
X0231577Y0168214D01*
X0231422Y0168344D01*
X0231270Y0168479D01*
X0231121Y0168617D01*
X0230976Y0168759D01*
X0230834Y0168904D01*
X0230696Y0169053D01*
X0230561Y0169205D01*
X0230431Y0169360D01*
X0230304Y0169518D01*
X0230181Y0169680D01*
X0230062Y0169844D01*
X0229947Y0170012D01*
X0229837Y0170182D01*
X0229730Y0170354D01*
X0229628Y0170530D01*
X0229530Y0170707D01*
X0229437Y0170888D01*
X0229348Y0171070D01*
X0229263Y0171254D01*
X0229183Y0171441D01*
X0229108Y0171629D01*
X0229037Y0171820D01*
X0228971Y0172011D01*
X0228910Y0172205D01*
X0228853Y0172400D01*
X0228802Y0172596D01*
X0228755Y0172793D01*
X0228713Y0172992D01*
X0228676Y0173191D01*
X0228643Y0173392D01*
X0228616Y0173593D01*
X0228594Y0173795D01*
X0228576Y0173997D01*
X0228564Y0174199D01*
X0228556Y0174402D01*
X0228554Y0174605D01*
X0242727Y0162204D02*
X0246664Y0162204D01*
X0246664Y0158267D01*
X0247816Y0162944D02*
X0247818Y0162991D01*
X0247824Y0163037D01*
X0247833Y0163083D01*
X0247847Y0163127D01*
X0247864Y0163171D01*
X0247885Y0163212D01*
X0247909Y0163252D01*
X0247936Y0163290D01*
X0247967Y0163325D01*
X0248000Y0163358D01*
X0248036Y0163388D01*
X0248075Y0163414D01*
X0248115Y0163438D01*
X0248157Y0163457D01*
X0248201Y0163474D01*
X0248246Y0163486D01*
X0248292Y0163495D01*
X0248338Y0163500D01*
X0248385Y0163501D01*
X0248431Y0163498D01*
X0248477Y0163491D01*
X0248523Y0163480D01*
X0248567Y0163466D01*
X0248610Y0163448D01*
X0248651Y0163426D01*
X0248691Y0163401D01*
X0248728Y0163373D01*
X0248763Y0163342D01*
X0248795Y0163308D01*
X0248824Y0163271D01*
X0248849Y0163233D01*
X0248872Y0163192D01*
X0248891Y0163149D01*
X0248906Y0163105D01*
X0248918Y0163060D01*
X0248926Y0163014D01*
X0248930Y0162967D01*
X0248930Y0162921D01*
X0248926Y0162874D01*
X0248918Y0162828D01*
X0248906Y0162783D01*
X0248891Y0162739D01*
X0248872Y0162696D01*
X0248849Y0162655D01*
X0248824Y0162617D01*
X0248795Y0162580D01*
X0248763Y0162546D01*
X0248728Y0162515D01*
X0248691Y0162487D01*
X0248652Y0162462D01*
X0248610Y0162440D01*
X0248567Y0162422D01*
X0248523Y0162408D01*
X0248477Y0162397D01*
X0248431Y0162390D01*
X0248385Y0162387D01*
X0248338Y0162388D01*
X0248292Y0162393D01*
X0248246Y0162402D01*
X0248201Y0162414D01*
X0248157Y0162431D01*
X0248115Y0162450D01*
X0248075Y0162474D01*
X0248036Y0162500D01*
X0248000Y0162530D01*
X0247967Y0162563D01*
X0247936Y0162598D01*
X0247909Y0162636D01*
X0247885Y0162676D01*
X0247864Y0162717D01*
X0247847Y0162761D01*
X0247833Y0162805D01*
X0247824Y0162851D01*
X0247818Y0162897D01*
X0247816Y0162944D01*
X0228554Y0196849D02*
X0228556Y0197052D01*
X0228564Y0197255D01*
X0228576Y0197457D01*
X0228594Y0197659D01*
X0228616Y0197861D01*
X0228643Y0198062D01*
X0228676Y0198263D01*
X0228713Y0198462D01*
X0228755Y0198661D01*
X0228802Y0198858D01*
X0228853Y0199054D01*
X0228910Y0199249D01*
X0228971Y0199443D01*
X0229037Y0199634D01*
X0229108Y0199825D01*
X0229183Y0200013D01*
X0229263Y0200200D01*
X0229348Y0200384D01*
X0229437Y0200566D01*
X0229530Y0200747D01*
X0229628Y0200924D01*
X0229730Y0201100D01*
X0229837Y0201272D01*
X0229947Y0201442D01*
X0230062Y0201610D01*
X0230181Y0201774D01*
X0230304Y0201936D01*
X0230431Y0202094D01*
X0230561Y0202249D01*
X0230696Y0202401D01*
X0230834Y0202550D01*
X0230976Y0202695D01*
X0231121Y0202837D01*
X0231270Y0202975D01*
X0231422Y0203110D01*
X0231577Y0203240D01*
X0231735Y0203367D01*
X0231897Y0203490D01*
X0232061Y0203609D01*
X0232229Y0203724D01*
X0232399Y0203834D01*
X0232571Y0203941D01*
X0232747Y0204043D01*
X0232924Y0204141D01*
X0233105Y0204234D01*
X0233287Y0204323D01*
X0233471Y0204408D01*
X0233658Y0204488D01*
X0233846Y0204563D01*
X0234037Y0204634D01*
X0234228Y0204700D01*
X0234422Y0204761D01*
X0234617Y0204818D01*
X0234813Y0204869D01*
X0235010Y0204916D01*
X0235209Y0204958D01*
X0235408Y0204995D01*
X0235609Y0205028D01*
X0235810Y0205055D01*
X0236012Y0205077D01*
X0236214Y0205095D01*
X0236416Y0205107D01*
X0236619Y0205115D01*
X0236822Y0205117D01*
X0237025Y0205115D01*
X0237228Y0205107D01*
X0237430Y0205095D01*
X0237632Y0205077D01*
X0237834Y0205055D01*
X0238035Y0205028D01*
X0238236Y0204995D01*
X0238435Y0204958D01*
X0238634Y0204916D01*
X0238831Y0204869D01*
X0239027Y0204818D01*
X0239222Y0204761D01*
X0239416Y0204700D01*
X0239607Y0204634D01*
X0239798Y0204563D01*
X0239986Y0204488D01*
X0240173Y0204408D01*
X0240357Y0204323D01*
X0240539Y0204234D01*
X0240720Y0204141D01*
X0240897Y0204043D01*
X0241073Y0203941D01*
X0241245Y0203834D01*
X0241415Y0203724D01*
X0241583Y0203609D01*
X0241747Y0203490D01*
X0241909Y0203367D01*
X0242067Y0203240D01*
X0242222Y0203110D01*
X0242374Y0202975D01*
X0242523Y0202837D01*
X0242668Y0202695D01*
X0242810Y0202550D01*
X0242948Y0202401D01*
X0243083Y0202249D01*
X0243213Y0202094D01*
X0243340Y0201936D01*
X0243463Y0201774D01*
X0243582Y0201610D01*
X0243697Y0201442D01*
X0243807Y0201272D01*
X0243914Y0201100D01*
X0244016Y0200924D01*
X0244114Y0200747D01*
X0244207Y0200566D01*
X0244296Y0200384D01*
X0244381Y0200200D01*
X0244461Y0200013D01*
X0244536Y0199825D01*
X0244607Y0199634D01*
X0244673Y0199443D01*
X0244734Y0199249D01*
X0244791Y0199054D01*
X0244842Y0198858D01*
X0244889Y0198661D01*
X0244931Y0198462D01*
X0244968Y0198263D01*
X0245001Y0198062D01*
X0245028Y0197861D01*
X0245050Y0197659D01*
X0245068Y0197457D01*
X0245080Y0197255D01*
X0245088Y0197052D01*
X0245090Y0196849D01*
X0245088Y0196646D01*
X0245080Y0196443D01*
X0245068Y0196241D01*
X0245050Y0196039D01*
X0245028Y0195837D01*
X0245001Y0195636D01*
X0244968Y0195435D01*
X0244931Y0195236D01*
X0244889Y0195037D01*
X0244842Y0194840D01*
X0244791Y0194644D01*
X0244734Y0194449D01*
X0244673Y0194255D01*
X0244607Y0194064D01*
X0244536Y0193873D01*
X0244461Y0193685D01*
X0244381Y0193498D01*
X0244296Y0193314D01*
X0244207Y0193132D01*
X0244114Y0192951D01*
X0244016Y0192774D01*
X0243914Y0192598D01*
X0243807Y0192426D01*
X0243697Y0192256D01*
X0243582Y0192088D01*
X0243463Y0191924D01*
X0243340Y0191762D01*
X0243213Y0191604D01*
X0243083Y0191449D01*
X0242948Y0191297D01*
X0242810Y0191148D01*
X0242668Y0191003D01*
X0242523Y0190861D01*
X0242374Y0190723D01*
X0242222Y0190588D01*
X0242067Y0190458D01*
X0241909Y0190331D01*
X0241747Y0190208D01*
X0241583Y0190089D01*
X0241415Y0189974D01*
X0241245Y0189864D01*
X0241073Y0189757D01*
X0240897Y0189655D01*
X0240720Y0189557D01*
X0240539Y0189464D01*
X0240357Y0189375D01*
X0240173Y0189290D01*
X0239986Y0189210D01*
X0239798Y0189135D01*
X0239607Y0189064D01*
X0239416Y0188998D01*
X0239222Y0188937D01*
X0239027Y0188880D01*
X0238831Y0188829D01*
X0238634Y0188782D01*
X0238435Y0188740D01*
X0238236Y0188703D01*
X0238035Y0188670D01*
X0237834Y0188643D01*
X0237632Y0188621D01*
X0237430Y0188603D01*
X0237228Y0188591D01*
X0237025Y0188583D01*
X0236822Y0188581D01*
X0236619Y0188583D01*
X0236416Y0188591D01*
X0236214Y0188603D01*
X0236012Y0188621D01*
X0235810Y0188643D01*
X0235609Y0188670D01*
X0235408Y0188703D01*
X0235209Y0188740D01*
X0235010Y0188782D01*
X0234813Y0188829D01*
X0234617Y0188880D01*
X0234422Y0188937D01*
X0234228Y0188998D01*
X0234037Y0189064D01*
X0233846Y0189135D01*
X0233658Y0189210D01*
X0233471Y0189290D01*
X0233287Y0189375D01*
X0233105Y0189464D01*
X0232924Y0189557D01*
X0232747Y0189655D01*
X0232571Y0189757D01*
X0232399Y0189864D01*
X0232229Y0189974D01*
X0232061Y0190089D01*
X0231897Y0190208D01*
X0231735Y0190331D01*
X0231577Y0190458D01*
X0231422Y0190588D01*
X0231270Y0190723D01*
X0231121Y0190861D01*
X0230976Y0191003D01*
X0230834Y0191148D01*
X0230696Y0191297D01*
X0230561Y0191449D01*
X0230431Y0191604D01*
X0230304Y0191762D01*
X0230181Y0191924D01*
X0230062Y0192088D01*
X0229947Y0192256D01*
X0229837Y0192426D01*
X0229730Y0192598D01*
X0229628Y0192774D01*
X0229530Y0192951D01*
X0229437Y0193132D01*
X0229348Y0193314D01*
X0229263Y0193498D01*
X0229183Y0193685D01*
X0229108Y0193873D01*
X0229037Y0194064D01*
X0228971Y0194255D01*
X0228910Y0194449D01*
X0228853Y0194644D01*
X0228802Y0194840D01*
X0228755Y0195037D01*
X0228713Y0195236D01*
X0228676Y0195435D01*
X0228643Y0195636D01*
X0228616Y0195837D01*
X0228594Y0196039D01*
X0228576Y0196241D01*
X0228564Y0196443D01*
X0228556Y0196646D01*
X0228554Y0196849D01*
X0226979Y0209251D02*
X0226979Y0228936D01*
X0242727Y0228936D01*
X0246664Y0224999D01*
X0246664Y0228936D01*
X0242727Y0228936D01*
X0246664Y0231495D02*
X0246664Y0247243D01*
X0242727Y0251180D01*
X0226979Y0251180D01*
X0226979Y0231495D01*
X0246664Y0231495D01*
X0247816Y0229676D02*
X0247818Y0229723D01*
X0247824Y0229769D01*
X0247833Y0229815D01*
X0247847Y0229859D01*
X0247864Y0229903D01*
X0247885Y0229944D01*
X0247909Y0229984D01*
X0247936Y0230022D01*
X0247967Y0230057D01*
X0248000Y0230090D01*
X0248036Y0230120D01*
X0248075Y0230146D01*
X0248115Y0230170D01*
X0248157Y0230189D01*
X0248201Y0230206D01*
X0248246Y0230218D01*
X0248292Y0230227D01*
X0248338Y0230232D01*
X0248385Y0230233D01*
X0248431Y0230230D01*
X0248477Y0230223D01*
X0248523Y0230212D01*
X0248567Y0230198D01*
X0248610Y0230180D01*
X0248651Y0230158D01*
X0248691Y0230133D01*
X0248728Y0230105D01*
X0248763Y0230074D01*
X0248795Y0230040D01*
X0248824Y0230003D01*
X0248849Y0229965D01*
X0248872Y0229924D01*
X0248891Y0229881D01*
X0248906Y0229837D01*
X0248918Y0229792D01*
X0248926Y0229746D01*
X0248930Y0229699D01*
X0248930Y0229653D01*
X0248926Y0229606D01*
X0248918Y0229560D01*
X0248906Y0229515D01*
X0248891Y0229471D01*
X0248872Y0229428D01*
X0248849Y0229387D01*
X0248824Y0229349D01*
X0248795Y0229312D01*
X0248763Y0229278D01*
X0248728Y0229247D01*
X0248691Y0229219D01*
X0248652Y0229194D01*
X0248610Y0229172D01*
X0248567Y0229154D01*
X0248523Y0229140D01*
X0248477Y0229129D01*
X0248431Y0229122D01*
X0248385Y0229119D01*
X0248338Y0229120D01*
X0248292Y0229125D01*
X0248246Y0229134D01*
X0248201Y0229146D01*
X0248157Y0229163D01*
X0248115Y0229182D01*
X0248075Y0229206D01*
X0248036Y0229232D01*
X0248000Y0229262D01*
X0247967Y0229295D01*
X0247936Y0229330D01*
X0247909Y0229368D01*
X0247885Y0229408D01*
X0247864Y0229449D01*
X0247847Y0229493D01*
X0247833Y0229537D01*
X0247824Y0229583D01*
X0247818Y0229629D01*
X0247816Y0229676D01*
X0246664Y0224999D02*
X0246664Y0209251D01*
X0226979Y0209251D01*
X0228554Y0219094D02*
X0228556Y0219297D01*
X0228564Y0219500D01*
X0228576Y0219702D01*
X0228594Y0219904D01*
X0228616Y0220106D01*
X0228643Y0220307D01*
X0228676Y0220508D01*
X0228713Y0220707D01*
X0228755Y0220906D01*
X0228802Y0221103D01*
X0228853Y0221299D01*
X0228910Y0221494D01*
X0228971Y0221688D01*
X0229037Y0221879D01*
X0229108Y0222070D01*
X0229183Y0222258D01*
X0229263Y0222445D01*
X0229348Y0222629D01*
X0229437Y0222811D01*
X0229530Y0222992D01*
X0229628Y0223169D01*
X0229730Y0223345D01*
X0229837Y0223517D01*
X0229947Y0223687D01*
X0230062Y0223855D01*
X0230181Y0224019D01*
X0230304Y0224181D01*
X0230431Y0224339D01*
X0230561Y0224494D01*
X0230696Y0224646D01*
X0230834Y0224795D01*
X0230976Y0224940D01*
X0231121Y0225082D01*
X0231270Y0225220D01*
X0231422Y0225355D01*
X0231577Y0225485D01*
X0231735Y0225612D01*
X0231897Y0225735D01*
X0232061Y0225854D01*
X0232229Y0225969D01*
X0232399Y0226079D01*
X0232571Y0226186D01*
X0232747Y0226288D01*
X0232924Y0226386D01*
X0233105Y0226479D01*
X0233287Y0226568D01*
X0233471Y0226653D01*
X0233658Y0226733D01*
X0233846Y0226808D01*
X0234037Y0226879D01*
X0234228Y0226945D01*
X0234422Y0227006D01*
X0234617Y0227063D01*
X0234813Y0227114D01*
X0235010Y0227161D01*
X0235209Y0227203D01*
X0235408Y0227240D01*
X0235609Y0227273D01*
X0235810Y0227300D01*
X0236012Y0227322D01*
X0236214Y0227340D01*
X0236416Y0227352D01*
X0236619Y0227360D01*
X0236822Y0227362D01*
X0237025Y0227360D01*
X0237228Y0227352D01*
X0237430Y0227340D01*
X0237632Y0227322D01*
X0237834Y0227300D01*
X0238035Y0227273D01*
X0238236Y0227240D01*
X0238435Y0227203D01*
X0238634Y0227161D01*
X0238831Y0227114D01*
X0239027Y0227063D01*
X0239222Y0227006D01*
X0239416Y0226945D01*
X0239607Y0226879D01*
X0239798Y0226808D01*
X0239986Y0226733D01*
X0240173Y0226653D01*
X0240357Y0226568D01*
X0240539Y0226479D01*
X0240720Y0226386D01*
X0240897Y0226288D01*
X0241073Y0226186D01*
X0241245Y0226079D01*
X0241415Y0225969D01*
X0241583Y0225854D01*
X0241747Y0225735D01*
X0241909Y0225612D01*
X0242067Y0225485D01*
X0242222Y0225355D01*
X0242374Y0225220D01*
X0242523Y0225082D01*
X0242668Y0224940D01*
X0242810Y0224795D01*
X0242948Y0224646D01*
X0243083Y0224494D01*
X0243213Y0224339D01*
X0243340Y0224181D01*
X0243463Y0224019D01*
X0243582Y0223855D01*
X0243697Y0223687D01*
X0243807Y0223517D01*
X0243914Y0223345D01*
X0244016Y0223169D01*
X0244114Y0222992D01*
X0244207Y0222811D01*
X0244296Y0222629D01*
X0244381Y0222445D01*
X0244461Y0222258D01*
X0244536Y0222070D01*
X0244607Y0221879D01*
X0244673Y0221688D01*
X0244734Y0221494D01*
X0244791Y0221299D01*
X0244842Y0221103D01*
X0244889Y0220906D01*
X0244931Y0220707D01*
X0244968Y0220508D01*
X0245001Y0220307D01*
X0245028Y0220106D01*
X0245050Y0219904D01*
X0245068Y0219702D01*
X0245080Y0219500D01*
X0245088Y0219297D01*
X0245090Y0219094D01*
X0245088Y0218891D01*
X0245080Y0218688D01*
X0245068Y0218486D01*
X0245050Y0218284D01*
X0245028Y0218082D01*
X0245001Y0217881D01*
X0244968Y0217680D01*
X0244931Y0217481D01*
X0244889Y0217282D01*
X0244842Y0217085D01*
X0244791Y0216889D01*
X0244734Y0216694D01*
X0244673Y0216500D01*
X0244607Y0216309D01*
X0244536Y0216118D01*
X0244461Y0215930D01*
X0244381Y0215743D01*
X0244296Y0215559D01*
X0244207Y0215377D01*
X0244114Y0215196D01*
X0244016Y0215019D01*
X0243914Y0214843D01*
X0243807Y0214671D01*
X0243697Y0214501D01*
X0243582Y0214333D01*
X0243463Y0214169D01*
X0243340Y0214007D01*
X0243213Y0213849D01*
X0243083Y0213694D01*
X0242948Y0213542D01*
X0242810Y0213393D01*
X0242668Y0213248D01*
X0242523Y0213106D01*
X0242374Y0212968D01*
X0242222Y0212833D01*
X0242067Y0212703D01*
X0241909Y0212576D01*
X0241747Y0212453D01*
X0241583Y0212334D01*
X0241415Y0212219D01*
X0241245Y0212109D01*
X0241073Y0212002D01*
X0240897Y0211900D01*
X0240720Y0211802D01*
X0240539Y0211709D01*
X0240357Y0211620D01*
X0240173Y0211535D01*
X0239986Y0211455D01*
X0239798Y0211380D01*
X0239607Y0211309D01*
X0239416Y0211243D01*
X0239222Y0211182D01*
X0239027Y0211125D01*
X0238831Y0211074D01*
X0238634Y0211027D01*
X0238435Y0210985D01*
X0238236Y0210948D01*
X0238035Y0210915D01*
X0237834Y0210888D01*
X0237632Y0210866D01*
X0237430Y0210848D01*
X0237228Y0210836D01*
X0237025Y0210828D01*
X0236822Y0210826D01*
X0236619Y0210828D01*
X0236416Y0210836D01*
X0236214Y0210848D01*
X0236012Y0210866D01*
X0235810Y0210888D01*
X0235609Y0210915D01*
X0235408Y0210948D01*
X0235209Y0210985D01*
X0235010Y0211027D01*
X0234813Y0211074D01*
X0234617Y0211125D01*
X0234422Y0211182D01*
X0234228Y0211243D01*
X0234037Y0211309D01*
X0233846Y0211380D01*
X0233658Y0211455D01*
X0233471Y0211535D01*
X0233287Y0211620D01*
X0233105Y0211709D01*
X0232924Y0211802D01*
X0232747Y0211900D01*
X0232571Y0212002D01*
X0232399Y0212109D01*
X0232229Y0212219D01*
X0232061Y0212334D01*
X0231897Y0212453D01*
X0231735Y0212576D01*
X0231577Y0212703D01*
X0231422Y0212833D01*
X0231270Y0212968D01*
X0231121Y0213106D01*
X0230976Y0213248D01*
X0230834Y0213393D01*
X0230696Y0213542D01*
X0230561Y0213694D01*
X0230431Y0213849D01*
X0230304Y0214007D01*
X0230181Y0214169D01*
X0230062Y0214333D01*
X0229947Y0214501D01*
X0229837Y0214671D01*
X0229730Y0214843D01*
X0229628Y0215019D01*
X0229530Y0215196D01*
X0229437Y0215377D01*
X0229348Y0215559D01*
X0229263Y0215743D01*
X0229183Y0215930D01*
X0229108Y0216118D01*
X0229037Y0216309D01*
X0228971Y0216500D01*
X0228910Y0216694D01*
X0228853Y0216889D01*
X0228802Y0217085D01*
X0228755Y0217282D01*
X0228713Y0217481D01*
X0228676Y0217680D01*
X0228643Y0217881D01*
X0228616Y0218082D01*
X0228594Y0218284D01*
X0228576Y0218486D01*
X0228564Y0218688D01*
X0228556Y0218891D01*
X0228554Y0219094D01*
X0242727Y0206692D02*
X0246664Y0206692D01*
X0246664Y0202755D01*
X0247816Y0207432D02*
X0247818Y0207479D01*
X0247824Y0207525D01*
X0247833Y0207571D01*
X0247847Y0207615D01*
X0247864Y0207659D01*
X0247885Y0207700D01*
X0247909Y0207740D01*
X0247936Y0207778D01*
X0247967Y0207813D01*
X0248000Y0207846D01*
X0248036Y0207876D01*
X0248075Y0207902D01*
X0248115Y0207926D01*
X0248157Y0207945D01*
X0248201Y0207962D01*
X0248246Y0207974D01*
X0248292Y0207983D01*
X0248338Y0207988D01*
X0248385Y0207989D01*
X0248431Y0207986D01*
X0248477Y0207979D01*
X0248523Y0207968D01*
X0248567Y0207954D01*
X0248610Y0207936D01*
X0248651Y0207914D01*
X0248691Y0207889D01*
X0248728Y0207861D01*
X0248763Y0207830D01*
X0248795Y0207796D01*
X0248824Y0207759D01*
X0248849Y0207721D01*
X0248872Y0207680D01*
X0248891Y0207637D01*
X0248906Y0207593D01*
X0248918Y0207548D01*
X0248926Y0207502D01*
X0248930Y0207455D01*
X0248930Y0207409D01*
X0248926Y0207362D01*
X0248918Y0207316D01*
X0248906Y0207271D01*
X0248891Y0207227D01*
X0248872Y0207184D01*
X0248849Y0207143D01*
X0248824Y0207105D01*
X0248795Y0207068D01*
X0248763Y0207034D01*
X0248728Y0207003D01*
X0248691Y0206975D01*
X0248652Y0206950D01*
X0248610Y0206928D01*
X0248567Y0206910D01*
X0248523Y0206896D01*
X0248477Y0206885D01*
X0248431Y0206878D01*
X0248385Y0206875D01*
X0248338Y0206876D01*
X0248292Y0206881D01*
X0248246Y0206890D01*
X0248201Y0206902D01*
X0248157Y0206919D01*
X0248115Y0206938D01*
X0248075Y0206962D01*
X0248036Y0206988D01*
X0248000Y0207018D01*
X0247967Y0207051D01*
X0247936Y0207086D01*
X0247909Y0207124D01*
X0247885Y0207164D01*
X0247864Y0207205D01*
X0247847Y0207249D01*
X0247833Y0207293D01*
X0247824Y0207339D01*
X0247818Y0207385D01*
X0247816Y0207432D01*
X0228554Y0241338D02*
X0228556Y0241541D01*
X0228564Y0241744D01*
X0228576Y0241946D01*
X0228594Y0242148D01*
X0228616Y0242350D01*
X0228643Y0242551D01*
X0228676Y0242752D01*
X0228713Y0242951D01*
X0228755Y0243150D01*
X0228802Y0243347D01*
X0228853Y0243543D01*
X0228910Y0243738D01*
X0228971Y0243932D01*
X0229037Y0244123D01*
X0229108Y0244314D01*
X0229183Y0244502D01*
X0229263Y0244689D01*
X0229348Y0244873D01*
X0229437Y0245055D01*
X0229530Y0245236D01*
X0229628Y0245413D01*
X0229730Y0245589D01*
X0229837Y0245761D01*
X0229947Y0245931D01*
X0230062Y0246099D01*
X0230181Y0246263D01*
X0230304Y0246425D01*
X0230431Y0246583D01*
X0230561Y0246738D01*
X0230696Y0246890D01*
X0230834Y0247039D01*
X0230976Y0247184D01*
X0231121Y0247326D01*
X0231270Y0247464D01*
X0231422Y0247599D01*
X0231577Y0247729D01*
X0231735Y0247856D01*
X0231897Y0247979D01*
X0232061Y0248098D01*
X0232229Y0248213D01*
X0232399Y0248323D01*
X0232571Y0248430D01*
X0232747Y0248532D01*
X0232924Y0248630D01*
X0233105Y0248723D01*
X0233287Y0248812D01*
X0233471Y0248897D01*
X0233658Y0248977D01*
X0233846Y0249052D01*
X0234037Y0249123D01*
X0234228Y0249189D01*
X0234422Y0249250D01*
X0234617Y0249307D01*
X0234813Y0249358D01*
X0235010Y0249405D01*
X0235209Y0249447D01*
X0235408Y0249484D01*
X0235609Y0249517D01*
X0235810Y0249544D01*
X0236012Y0249566D01*
X0236214Y0249584D01*
X0236416Y0249596D01*
X0236619Y0249604D01*
X0236822Y0249606D01*
X0237025Y0249604D01*
X0237228Y0249596D01*
X0237430Y0249584D01*
X0237632Y0249566D01*
X0237834Y0249544D01*
X0238035Y0249517D01*
X0238236Y0249484D01*
X0238435Y0249447D01*
X0238634Y0249405D01*
X0238831Y0249358D01*
X0239027Y0249307D01*
X0239222Y0249250D01*
X0239416Y0249189D01*
X0239607Y0249123D01*
X0239798Y0249052D01*
X0239986Y0248977D01*
X0240173Y0248897D01*
X0240357Y0248812D01*
X0240539Y0248723D01*
X0240720Y0248630D01*
X0240897Y0248532D01*
X0241073Y0248430D01*
X0241245Y0248323D01*
X0241415Y0248213D01*
X0241583Y0248098D01*
X0241747Y0247979D01*
X0241909Y0247856D01*
X0242067Y0247729D01*
X0242222Y0247599D01*
X0242374Y0247464D01*
X0242523Y0247326D01*
X0242668Y0247184D01*
X0242810Y0247039D01*
X0242948Y0246890D01*
X0243083Y0246738D01*
X0243213Y0246583D01*
X0243340Y0246425D01*
X0243463Y0246263D01*
X0243582Y0246099D01*
X0243697Y0245931D01*
X0243807Y0245761D01*
X0243914Y0245589D01*
X0244016Y0245413D01*
X0244114Y0245236D01*
X0244207Y0245055D01*
X0244296Y0244873D01*
X0244381Y0244689D01*
X0244461Y0244502D01*
X0244536Y0244314D01*
X0244607Y0244123D01*
X0244673Y0243932D01*
X0244734Y0243738D01*
X0244791Y0243543D01*
X0244842Y0243347D01*
X0244889Y0243150D01*
X0244931Y0242951D01*
X0244968Y0242752D01*
X0245001Y0242551D01*
X0245028Y0242350D01*
X0245050Y0242148D01*
X0245068Y0241946D01*
X0245080Y0241744D01*
X0245088Y0241541D01*
X0245090Y0241338D01*
X0245088Y0241135D01*
X0245080Y0240932D01*
X0245068Y0240730D01*
X0245050Y0240528D01*
X0245028Y0240326D01*
X0245001Y0240125D01*
X0244968Y0239924D01*
X0244931Y0239725D01*
X0244889Y0239526D01*
X0244842Y0239329D01*
X0244791Y0239133D01*
X0244734Y0238938D01*
X0244673Y0238744D01*
X0244607Y0238553D01*
X0244536Y0238362D01*
X0244461Y0238174D01*
X0244381Y0237987D01*
X0244296Y0237803D01*
X0244207Y0237621D01*
X0244114Y0237440D01*
X0244016Y0237263D01*
X0243914Y0237087D01*
X0243807Y0236915D01*
X0243697Y0236745D01*
X0243582Y0236577D01*
X0243463Y0236413D01*
X0243340Y0236251D01*
X0243213Y0236093D01*
X0243083Y0235938D01*
X0242948Y0235786D01*
X0242810Y0235637D01*
X0242668Y0235492D01*
X0242523Y0235350D01*
X0242374Y0235212D01*
X0242222Y0235077D01*
X0242067Y0234947D01*
X0241909Y0234820D01*
X0241747Y0234697D01*
X0241583Y0234578D01*
X0241415Y0234463D01*
X0241245Y0234353D01*
X0241073Y0234246D01*
X0240897Y0234144D01*
X0240720Y0234046D01*
X0240539Y0233953D01*
X0240357Y0233864D01*
X0240173Y0233779D01*
X0239986Y0233699D01*
X0239798Y0233624D01*
X0239607Y0233553D01*
X0239416Y0233487D01*
X0239222Y0233426D01*
X0239027Y0233369D01*
X0238831Y0233318D01*
X0238634Y0233271D01*
X0238435Y0233229D01*
X0238236Y0233192D01*
X0238035Y0233159D01*
X0237834Y0233132D01*
X0237632Y0233110D01*
X0237430Y0233092D01*
X0237228Y0233080D01*
X0237025Y0233072D01*
X0236822Y0233070D01*
X0236619Y0233072D01*
X0236416Y0233080D01*
X0236214Y0233092D01*
X0236012Y0233110D01*
X0235810Y0233132D01*
X0235609Y0233159D01*
X0235408Y0233192D01*
X0235209Y0233229D01*
X0235010Y0233271D01*
X0234813Y0233318D01*
X0234617Y0233369D01*
X0234422Y0233426D01*
X0234228Y0233487D01*
X0234037Y0233553D01*
X0233846Y0233624D01*
X0233658Y0233699D01*
X0233471Y0233779D01*
X0233287Y0233864D01*
X0233105Y0233953D01*
X0232924Y0234046D01*
X0232747Y0234144D01*
X0232571Y0234246D01*
X0232399Y0234353D01*
X0232229Y0234463D01*
X0232061Y0234578D01*
X0231897Y0234697D01*
X0231735Y0234820D01*
X0231577Y0234947D01*
X0231422Y0235077D01*
X0231270Y0235212D01*
X0231121Y0235350D01*
X0230976Y0235492D01*
X0230834Y0235637D01*
X0230696Y0235786D01*
X0230561Y0235938D01*
X0230431Y0236093D01*
X0230304Y0236251D01*
X0230181Y0236413D01*
X0230062Y0236577D01*
X0229947Y0236745D01*
X0229837Y0236915D01*
X0229730Y0237087D01*
X0229628Y0237263D01*
X0229530Y0237440D01*
X0229437Y0237621D01*
X0229348Y0237803D01*
X0229263Y0237987D01*
X0229183Y0238174D01*
X0229108Y0238362D01*
X0229037Y0238553D01*
X0228971Y0238744D01*
X0228910Y0238938D01*
X0228853Y0239133D01*
X0228802Y0239329D01*
X0228755Y0239526D01*
X0228713Y0239725D01*
X0228676Y0239924D01*
X0228643Y0240125D01*
X0228616Y0240326D01*
X0228594Y0240528D01*
X0228576Y0240730D01*
X0228564Y0240932D01*
X0228556Y0241135D01*
X0228554Y0241338D01*
X0226979Y0253739D02*
X0226979Y0273424D01*
X0242727Y0273424D01*
X0246664Y0269487D01*
X0246664Y0273424D01*
X0242727Y0273424D01*
X0246664Y0269487D02*
X0246664Y0253739D01*
X0226979Y0253739D01*
X0228554Y0263582D02*
X0228556Y0263785D01*
X0228564Y0263988D01*
X0228576Y0264190D01*
X0228594Y0264392D01*
X0228616Y0264594D01*
X0228643Y0264795D01*
X0228676Y0264996D01*
X0228713Y0265195D01*
X0228755Y0265394D01*
X0228802Y0265591D01*
X0228853Y0265787D01*
X0228910Y0265982D01*
X0228971Y0266176D01*
X0229037Y0266367D01*
X0229108Y0266558D01*
X0229183Y0266746D01*
X0229263Y0266933D01*
X0229348Y0267117D01*
X0229437Y0267299D01*
X0229530Y0267480D01*
X0229628Y0267657D01*
X0229730Y0267833D01*
X0229837Y0268005D01*
X0229947Y0268175D01*
X0230062Y0268343D01*
X0230181Y0268507D01*
X0230304Y0268669D01*
X0230431Y0268827D01*
X0230561Y0268982D01*
X0230696Y0269134D01*
X0230834Y0269283D01*
X0230976Y0269428D01*
X0231121Y0269570D01*
X0231270Y0269708D01*
X0231422Y0269843D01*
X0231577Y0269973D01*
X0231735Y0270100D01*
X0231897Y0270223D01*
X0232061Y0270342D01*
X0232229Y0270457D01*
X0232399Y0270567D01*
X0232571Y0270674D01*
X0232747Y0270776D01*
X0232924Y0270874D01*
X0233105Y0270967D01*
X0233287Y0271056D01*
X0233471Y0271141D01*
X0233658Y0271221D01*
X0233846Y0271296D01*
X0234037Y0271367D01*
X0234228Y0271433D01*
X0234422Y0271494D01*
X0234617Y0271551D01*
X0234813Y0271602D01*
X0235010Y0271649D01*
X0235209Y0271691D01*
X0235408Y0271728D01*
X0235609Y0271761D01*
X0235810Y0271788D01*
X0236012Y0271810D01*
X0236214Y0271828D01*
X0236416Y0271840D01*
X0236619Y0271848D01*
X0236822Y0271850D01*
X0237025Y0271848D01*
X0237228Y0271840D01*
X0237430Y0271828D01*
X0237632Y0271810D01*
X0237834Y0271788D01*
X0238035Y0271761D01*
X0238236Y0271728D01*
X0238435Y0271691D01*
X0238634Y0271649D01*
X0238831Y0271602D01*
X0239027Y0271551D01*
X0239222Y0271494D01*
X0239416Y0271433D01*
X0239607Y0271367D01*
X0239798Y0271296D01*
X0239986Y0271221D01*
X0240173Y0271141D01*
X0240357Y0271056D01*
X0240539Y0270967D01*
X0240720Y0270874D01*
X0240897Y0270776D01*
X0241073Y0270674D01*
X0241245Y0270567D01*
X0241415Y0270457D01*
X0241583Y0270342D01*
X0241747Y0270223D01*
X0241909Y0270100D01*
X0242067Y0269973D01*
X0242222Y0269843D01*
X0242374Y0269708D01*
X0242523Y0269570D01*
X0242668Y0269428D01*
X0242810Y0269283D01*
X0242948Y0269134D01*
X0243083Y0268982D01*
X0243213Y0268827D01*
X0243340Y0268669D01*
X0243463Y0268507D01*
X0243582Y0268343D01*
X0243697Y0268175D01*
X0243807Y0268005D01*
X0243914Y0267833D01*
X0244016Y0267657D01*
X0244114Y0267480D01*
X0244207Y0267299D01*
X0244296Y0267117D01*
X0244381Y0266933D01*
X0244461Y0266746D01*
X0244536Y0266558D01*
X0244607Y0266367D01*
X0244673Y0266176D01*
X0244734Y0265982D01*
X0244791Y0265787D01*
X0244842Y0265591D01*
X0244889Y0265394D01*
X0244931Y0265195D01*
X0244968Y0264996D01*
X0245001Y0264795D01*
X0245028Y0264594D01*
X0245050Y0264392D01*
X0245068Y0264190D01*
X0245080Y0263988D01*
X0245088Y0263785D01*
X0245090Y0263582D01*
X0245088Y0263379D01*
X0245080Y0263176D01*
X0245068Y0262974D01*
X0245050Y0262772D01*
X0245028Y0262570D01*
X0245001Y0262369D01*
X0244968Y0262168D01*
X0244931Y0261969D01*
X0244889Y0261770D01*
X0244842Y0261573D01*
X0244791Y0261377D01*
X0244734Y0261182D01*
X0244673Y0260988D01*
X0244607Y0260797D01*
X0244536Y0260606D01*
X0244461Y0260418D01*
X0244381Y0260231D01*
X0244296Y0260047D01*
X0244207Y0259865D01*
X0244114Y0259684D01*
X0244016Y0259507D01*
X0243914Y0259331D01*
X0243807Y0259159D01*
X0243697Y0258989D01*
X0243582Y0258821D01*
X0243463Y0258657D01*
X0243340Y0258495D01*
X0243213Y0258337D01*
X0243083Y0258182D01*
X0242948Y0258030D01*
X0242810Y0257881D01*
X0242668Y0257736D01*
X0242523Y0257594D01*
X0242374Y0257456D01*
X0242222Y0257321D01*
X0242067Y0257191D01*
X0241909Y0257064D01*
X0241747Y0256941D01*
X0241583Y0256822D01*
X0241415Y0256707D01*
X0241245Y0256597D01*
X0241073Y0256490D01*
X0240897Y0256388D01*
X0240720Y0256290D01*
X0240539Y0256197D01*
X0240357Y0256108D01*
X0240173Y0256023D01*
X0239986Y0255943D01*
X0239798Y0255868D01*
X0239607Y0255797D01*
X0239416Y0255731D01*
X0239222Y0255670D01*
X0239027Y0255613D01*
X0238831Y0255562D01*
X0238634Y0255515D01*
X0238435Y0255473D01*
X0238236Y0255436D01*
X0238035Y0255403D01*
X0237834Y0255376D01*
X0237632Y0255354D01*
X0237430Y0255336D01*
X0237228Y0255324D01*
X0237025Y0255316D01*
X0236822Y0255314D01*
X0236619Y0255316D01*
X0236416Y0255324D01*
X0236214Y0255336D01*
X0236012Y0255354D01*
X0235810Y0255376D01*
X0235609Y0255403D01*
X0235408Y0255436D01*
X0235209Y0255473D01*
X0235010Y0255515D01*
X0234813Y0255562D01*
X0234617Y0255613D01*
X0234422Y0255670D01*
X0234228Y0255731D01*
X0234037Y0255797D01*
X0233846Y0255868D01*
X0233658Y0255943D01*
X0233471Y0256023D01*
X0233287Y0256108D01*
X0233105Y0256197D01*
X0232924Y0256290D01*
X0232747Y0256388D01*
X0232571Y0256490D01*
X0232399Y0256597D01*
X0232229Y0256707D01*
X0232061Y0256822D01*
X0231897Y0256941D01*
X0231735Y0257064D01*
X0231577Y0257191D01*
X0231422Y0257321D01*
X0231270Y0257456D01*
X0231121Y0257594D01*
X0230976Y0257736D01*
X0230834Y0257881D01*
X0230696Y0258030D01*
X0230561Y0258182D01*
X0230431Y0258337D01*
X0230304Y0258495D01*
X0230181Y0258657D01*
X0230062Y0258821D01*
X0229947Y0258989D01*
X0229837Y0259159D01*
X0229730Y0259331D01*
X0229628Y0259507D01*
X0229530Y0259684D01*
X0229437Y0259865D01*
X0229348Y0260047D01*
X0229263Y0260231D01*
X0229183Y0260418D01*
X0229108Y0260606D01*
X0229037Y0260797D01*
X0228971Y0260988D01*
X0228910Y0261182D01*
X0228853Y0261377D01*
X0228802Y0261573D01*
X0228755Y0261770D01*
X0228713Y0261969D01*
X0228676Y0262168D01*
X0228643Y0262369D01*
X0228616Y0262570D01*
X0228594Y0262772D01*
X0228576Y0262974D01*
X0228564Y0263176D01*
X0228556Y0263379D01*
X0228554Y0263582D01*
X0242727Y0251180D02*
X0246664Y0251180D01*
X0246664Y0247243D01*
X0247816Y0251920D02*
X0247818Y0251967D01*
X0247824Y0252013D01*
X0247833Y0252059D01*
X0247847Y0252103D01*
X0247864Y0252147D01*
X0247885Y0252188D01*
X0247909Y0252228D01*
X0247936Y0252266D01*
X0247967Y0252301D01*
X0248000Y0252334D01*
X0248036Y0252364D01*
X0248075Y0252390D01*
X0248115Y0252414D01*
X0248157Y0252433D01*
X0248201Y0252450D01*
X0248246Y0252462D01*
X0248292Y0252471D01*
X0248338Y0252476D01*
X0248385Y0252477D01*
X0248431Y0252474D01*
X0248477Y0252467D01*
X0248523Y0252456D01*
X0248567Y0252442D01*
X0248610Y0252424D01*
X0248651Y0252402D01*
X0248691Y0252377D01*
X0248728Y0252349D01*
X0248763Y0252318D01*
X0248795Y0252284D01*
X0248824Y0252247D01*
X0248849Y0252209D01*
X0248872Y0252168D01*
X0248891Y0252125D01*
X0248906Y0252081D01*
X0248918Y0252036D01*
X0248926Y0251990D01*
X0248930Y0251943D01*
X0248930Y0251897D01*
X0248926Y0251850D01*
X0248918Y0251804D01*
X0248906Y0251759D01*
X0248891Y0251715D01*
X0248872Y0251672D01*
X0248849Y0251631D01*
X0248824Y0251593D01*
X0248795Y0251556D01*
X0248763Y0251522D01*
X0248728Y0251491D01*
X0248691Y0251463D01*
X0248652Y0251438D01*
X0248610Y0251416D01*
X0248567Y0251398D01*
X0248523Y0251384D01*
X0248477Y0251373D01*
X0248431Y0251366D01*
X0248385Y0251363D01*
X0248338Y0251364D01*
X0248292Y0251369D01*
X0248246Y0251378D01*
X0248201Y0251390D01*
X0248157Y0251407D01*
X0248115Y0251426D01*
X0248075Y0251450D01*
X0248036Y0251476D01*
X0248000Y0251506D01*
X0247967Y0251539D01*
X0247936Y0251574D01*
X0247909Y0251612D01*
X0247885Y0251652D01*
X0247864Y0251693D01*
X0247847Y0251737D01*
X0247833Y0251781D01*
X0247824Y0251827D01*
X0247818Y0251873D01*
X0247816Y0251920D01*
X0247816Y0274164D02*
X0247818Y0274211D01*
X0247824Y0274257D01*
X0247833Y0274303D01*
X0247847Y0274347D01*
X0247864Y0274391D01*
X0247885Y0274432D01*
X0247909Y0274472D01*
X0247936Y0274510D01*
X0247967Y0274545D01*
X0248000Y0274578D01*
X0248036Y0274608D01*
X0248075Y0274634D01*
X0248115Y0274658D01*
X0248157Y0274677D01*
X0248201Y0274694D01*
X0248246Y0274706D01*
X0248292Y0274715D01*
X0248338Y0274720D01*
X0248385Y0274721D01*
X0248431Y0274718D01*
X0248477Y0274711D01*
X0248523Y0274700D01*
X0248567Y0274686D01*
X0248610Y0274668D01*
X0248651Y0274646D01*
X0248691Y0274621D01*
X0248728Y0274593D01*
X0248763Y0274562D01*
X0248795Y0274528D01*
X0248824Y0274491D01*
X0248849Y0274453D01*
X0248872Y0274412D01*
X0248891Y0274369D01*
X0248906Y0274325D01*
X0248918Y0274280D01*
X0248926Y0274234D01*
X0248930Y0274187D01*
X0248930Y0274141D01*
X0248926Y0274094D01*
X0248918Y0274048D01*
X0248906Y0274003D01*
X0248891Y0273959D01*
X0248872Y0273916D01*
X0248849Y0273875D01*
X0248824Y0273837D01*
X0248795Y0273800D01*
X0248763Y0273766D01*
X0248728Y0273735D01*
X0248691Y0273707D01*
X0248652Y0273682D01*
X0248610Y0273660D01*
X0248567Y0273642D01*
X0248523Y0273628D01*
X0248477Y0273617D01*
X0248431Y0273610D01*
X0248385Y0273607D01*
X0248338Y0273608D01*
X0248292Y0273613D01*
X0248246Y0273622D01*
X0248201Y0273634D01*
X0248157Y0273651D01*
X0248115Y0273670D01*
X0248075Y0273694D01*
X0248036Y0273720D01*
X0248000Y0273750D01*
X0247967Y0273783D01*
X0247936Y0273818D01*
X0247909Y0273856D01*
X0247885Y0273896D01*
X0247864Y0273937D01*
X0247847Y0273981D01*
X0247833Y0274025D01*
X0247824Y0274071D01*
X0247818Y0274117D01*
X0247816Y0274164D01*
D417*
X0131503Y0053495D02*
X0131503Y0052761D01*
X0131503Y0053128D02*
X0132604Y0053128D01*
X0132237Y0052761D01*
M02*
