%
M48
M72
T01C0.01969
T02C0.02362
T03C0.03543
T04C0.04000
T05C0.12598
%
T01
X250827Y263582
X250927Y270175
T02
X138578Y207137
T03
X129700Y51257
X121826Y51257
T04
X118257Y64580
X129257Y64580
X157098Y84645
X173223Y57924
X194089Y57924
X210247Y84645
X210247Y132747
X210247Y142747
X210247Y152747
X210247Y162747
X210247Y172747
X210247Y182747
X210247Y192747
X210247Y202747
X120247Y202747
X120247Y192747
X120247Y182747
X120247Y172747
X120247Y162747
X120247Y152747
X120247Y142747
X120247Y132747
X156310Y12991
X210641Y12991
T05
X139775Y84645
X204145Y262597
M30
